<?xml version="1.0" encoding="utf-8" ?>
<svg xmlns="http://www.w3.org/2000/svg" xmlns:cc="http://creativecommons.org/ns" xmlns:dc="http://purl.org/dc/elements/1.1/" xmlns:ev="http://www.w3.org/2001/xml-events" xmlns:inkscape="http://www.inkscape.org/namespaces/inkscape" xmlns:rdf="http://www.w3.org/1999/02/22-rdf-syntax-ns" xmlns:sodipodi="http://sodipodi.sourceforge.net/DTD/sodipodi-0.dtd" xmlns:xlink="http://www.w3.org/1999/xlink" baseProfile="tiny" height="16.92332344cm" version="1.2" viewBox="0 0 682.7091044107488 639.6216732695328" width="18.06334505cm">
  <metadata>
    <rdf:RDF>
      <cc:Work>
        <dc:format>image/svg+xml</dc:format>
        <dc:source>vpype read breeze-for-site.svg write breeze-for-site.svg
</dc:source>
        <dc:date>2024-01-04T23:50:20.837717</dc:date>
      </cc:Work>
    </rdf:RDF>
  </metadata>
  <defs/>
  <g fill="none" id="layer1" inkscape:groupmode="layer" inkscape:label="1" stroke="#bc9eca" stroke-width="1.0" style="display:inline">
    <polyline points="682.7091,321.4223 664.3355,322.3829 646.7376,322.5582 629.9488,321.9838 612.4056,320.5909 594.9407,318.4247 576.0022,315.2745 555.6297,311.0847 537.7684,306.6709 522.4175,302.1642 508.0373,297.2436 493.8915,291.6851 480.0021,285.5134 466.3719,278.7881 451.5843,270.8166 435.6547,261.6083 414.9121,249.0602"/>
    <polyline points="641.5184,326.7933 628.7369,326.1156 615.9843,325.0218 603.2728,323.5237 590.6117,321.6459 576.4348,319.1236 562.33,316.2248 548.3051,312.9618 535.9305,309.6912 513.8074,302.7179 492.9314,294.6077 481.9733,289.7183 471.1766,284.4819 448.8442,272.4559"/>
    <polyline points="641.0968,332.1495 628.3256,331.2997 615.587,330.0524 602.8924,328.4174 589.4618,326.2806 575.3114,323.6133 560.4536,320.4083 546.4628,317.0018 534.1227,313.6035 512.0717,306.4054 491.273,298.0985 469.6,287.7981 447.2224,275.5689"/>
    <polyline points="640.3956,337.4764 614.9154,335.0409 588.8293,331.0045 573.9187,328.055 559.0889,324.7227 545.1272,321.199 532.8159,317.6977 510.824,310.3207 500.389,306.2537 489.3572,301.533 467.7705,291.0525 445.6878,278.7797"/>
    <polyline points="639.4164,342.7593 613.1788,339.8676 587.1413,335.5265 557.4564,328.9859 544.2948,325.5624 531.2417,321.7467 509.3111,314.1894 488.6406,305.5681 467.1024,294.9881 444.2191,282.1534"/>
    <polyline points="638.1622,347.9836 611.175,344.6141 584.404,339.8192 554.7825,332.9959 541.654,329.4477 529.4016,325.7455 507.5343,318.0071 486.9324,309.2227 465.4671,298.4951 442.8591,285.6131"/>
    <polyline points="636.6362,353.1352 609.6962,349.4031 582.9703,344.3605 553.3937,337.3444 540.287,333.7163 528.0575,329.9393 506.238,322.067 485.688,313.1619 464.278,302.3242 441.5701,289.2867"/>
    <polyline points="673.1663,372.9108 650.1557,369.9542 629.5786,366.9196 610.6528,363.689 591.8155,359.9775 572.3059,355.5786 552.9211,350.6588 536.0084,345.7917 520.8108,340.7918 507.3212,335.7554 494.7738,330.5112 481.7098,324.4559 468.8751,317.9284 455.5593,310.5994 441.7593,302.5032 402.1495,277.774"/>
    <polyline points="632.7866,363.1637 604.3763,358.4548 576.1925,352.5397 547.5056,345.2541 523.8146,337.9321 502.8509,330.0501 482.4099,320.8972 461.1165,309.8314 439.3469,297.0422"/>
    <polyline points="630.4736,368.0131 601.3332,362.8268 573.198,356.683 545.3268,349.4368 521.6784,341.9786 500.7633,333.9687 480.3786,324.6911 458.4475,313.119 442.5471,303.8609 438.439,301.3781 438.4411,301.1007"/>
    <polyline points="627.9099,372.7348 598.0401,367.0893 569.172,360.5553 542.8892,353.5592 520.0372,346.2358 499.1529,338.1457 478.8044,328.789 456.219,316.7437 438.988,306.5916 437.6213,305.7596 437.6585,305.4561"/>
    <polyline points="625.1026,377.3159 594.5017,371.2367 565.6732,364.5292 540.1973,357.6129 518.1386,350.4353 498.0202,342.5819 478.4028,333.5495 456.5132,321.899 441.3265,313.005 437.223,310.5148 437.0297,310.1517"/>
    <polyline points="622.0594,381.7438 589.9425,375.0892 561.9289,368.4103 538.0232,361.8172 516.7414,354.8365 497.3697,347.2694 477.7447,338.2537 457.9432,327.7867 436.5963,315.2242"/>
    <polyline points="650.6906,411.8399 627.351,406.2502 575.0467,394.5372 551.7305,388.8513 525.5544,381.4684 502.8434,373.7194 490.9362,369.0245 479.1975,363.9227 467.6392,358.4245 455.557,352.1822 431.9344,338.7036 395.4541,316.1934"/>
    <polyline points="615.2993,390.0918 582.4752,382.9153 555.2811,376.2498 532.9563,369.9438 512.4694,363.107 493.1299,355.4579 474.2563,346.722 452.3847,335.0381 436.531,325.7001 436.4808,325.2613"/>
    <polyline points="611.6009,393.9891 578.8007,386.7035 553.1683,380.3873 531.6132,374.2986 511.8718,367.7542 492.5048,360.1746 474.3157,351.8646 454.4764,341.4697 439.9256,333.0737 436.8554,330.9842"/>
    <polyline points="607.7036,397.6876 574.9192,390.3307 550.0718,384.1723 529.2939,378.2748 510.3103,371.986 490.9314,364.437 472.7257,356.1632 451.4657,345.0337 437.6088,337.0357 437.528,336.5362"/>
    <polyline points="603.618,401.1769 571.6213,393.9636 548.3257,388.1949 527.5423,382.3168 509.3049,376.3187 491.3754,369.4561 473.8217,361.6826 455.9692,352.6708 438.672,342.8553"/>
    <polyline points="599.3555,404.4477 568.9198,397.5853 546.3967,392.0248 527.1392,386.6296 508.8729,380.7198 490.9038,373.9615 474.0255,366.6393 456.0956,357.7826 440.1501,348.8791"/>
    <polyline points="594.9276,407.4909 566.0496,400.9941 544.2993,395.641 525.8035,390.4922 508.2767,384.8953 491.0133,378.5334 474.8023,371.6844 457.4907,363.385 442.0808,355.0674"/>
    <polyline points="610.8715,445.8485 536.4306,430.5468 514.6437,425.3456 495.355,420.0627 474.0012,413.3029 453.7128,405.8952 431.5473,396.6974 411.3422,387.2808"/>
    <polyline points="585.6248,412.8619 560.6392,407.2878 541.207,402.5582 523.4577,397.7112 507.4113,392.7387 491.5674,387.1557 475.9703,380.9164 459.9289,373.6785 447.1804,367.1916"/>
    <polyline points="580.7754,415.1749 558.1276,410.144 539.4671,405.6265 522.4781,401.0317 507.1741,396.3664 492.0457,391.1605 477.1306,385.3722 461.7298,378.6626 450.3399,373.0484"/>
    <polyline points="575.8115,417.231 538.3923,408.617 522.9305,404.5038 508.3593,400.1791 493.9365,395.3832 480.4387,390.3684 467.1249,384.8838 454.0329,378.9264"/>
    <polyline points="570.7469,419.0245 536.4454,411.1301 521.7499,407.2481 507.9309,403.2006 494.9968,398.999 482.1991,394.3986 468.8183,389.0794 457.8837,384.2438"/>
    <polyline points="565.5953,420.5505 533.6392,413.1655 507.425,405.9193 494.472,401.7758 481.6507,397.2416 466.7599,391.3906 462.3363,389.5272 461.8185,389.0216"/>
    <polyline points="560.371,421.8047 532.3147,415.3077 508.3874,408.7939 484.8062,401.1242 470.5766,395.7825 466.8637,394.2945 466.2974,393.8189"/>
    <polyline points="555.0881,422.7838 530.9336,417.1663 510.0703,411.5778 490.2117,405.3965 471.4033,398.6102"/>
    <polyline points="549.7613,423.4851 528.7331,418.5506 509.411,413.3912 491.0553,407.7646 476.0148,402.419"/>
    <polyline points="544.405,423.9067 527.279,419.8514 511.035,415.567 495.6921,411.031 481.2703,406.2471"/>
    <polyline points="539.034,424.0473 509.565,416.5927 494.9864,412.2931 485.9196,409.2332"/>
    <polyline points="533.6631,423.9067 510.406,417.9871 491.2626,412.2506"/>
    <line x1="524.0159" x2="496.5933" y1="464.3103" y2="458.6859"/>
    <line x1="522.9799" x2="501.3788" y1="422.7838" y2="416.8895"/>
    <line x1="517.6971" x2="506.8865" y1="421.8047" y2="418.8822"/>
    <line x1="549.7613" x2="541.7801" y1="219.3594" y2="218.834"/>
    <line x1="555.0881" x2="536.7382" y1="220.0607" y2="218.8229"/>
    <polyline points="560.371,221.0398 545.9848,220.4558 531.6652,219.0621"/>
    <polyline points="565.5953,222.2941 546.4091,221.6913 526.5591,219.5583"/>
    <polyline points="570.7469,223.82 557.948,223.7857 545.9635,223.1984 534.0236,222.0133 522.1662,220.1929"/>
    <polyline points="575.8115,225.6135 560.6137,225.7307 546.2308,225.0692 532.7055,223.6643 516.9916,221.1924"/>
    <polyline points="580.7754,227.6696 563.1805,227.9649 545.6021,227.1612 530.5008,225.4565 513.2093,222.2015 512.5015,222.2864"/>
    <polyline points="585.6248,229.9827 564.8347,230.4645 544.8624,229.5039 526.6126,227.1966 508.6202,223.4075"/>
    <polyline points="590.3465,232.5464 579.1611,233.1037 567.9625,233.2378 556.7669,232.9524 545.5922,232.2127 535.2549,231.0793 525.7662,229.6265 514.7869,227.4199 504.7048,224.8721 504.0402,224.9478"/>
    <polyline points="594.9276,235.3536 582.9481,236.041 570.1507,236.2408 557.3562,235.9004 545.387,235.055 534.2635,233.7569 523.2141,231.9331 511.4915,229.3745 500.6895,226.4198 500.048,226.4908"/>
    <polyline points="599.3555,238.3968 585.7828,239.2387 572.1857,239.4621 558.5921,239.0843 545.0315,238.0692 532.3342,236.4621 520.5249,234.3385 508.8434,231.5982 496.562,227.9984"/>
    <polyline points="603.618,241.6676 589.2511,242.6222 574.8549,242.8865 559.6628,242.4432 545.309,241.3105 532.6189,239.648 520.0341,237.3193 508.3687,234.5109 493.0714,229.832 492.508,229.9497"/>
    <polyline points="607.7036,245.157 592.5416,246.2072 576.5458,246.486 560.5563,245.9536 545.4118,244.6766 531.1527,242.6809 517.8145,240.0347 506.1888,237.0663 489.4453,231.6553 488.9542,231.846"/>
    <polyline points="611.6009,248.8554 594.8431,250.0139 578.0467,250.2434 561.2611,249.592 544.5347,248.0461 529.5087,245.7678 515.426,242.7714 501.5479,238.938 485.8199,233.6717"/>
    <polyline points="645.8054,225.2849 632.5716,228.4152 620.0005,230.8196 607.3371,232.6776 594.6043,233.9778 581.8268,234.7185 569.0291,234.9073 556.2351,234.5517 543.4714,233.605 531.5646,232.1225 520.5347,230.1848 509.6158,227.6965 498.8368,224.6588 488.2221,221.0892 477.7886,217.0197 466.0963,211.814 453.9389,205.7206 453.6304,205.8855"/>
    <polyline points="618.7886,256.8382 600.4325,258.065 582.0355,258.1906 562.8621,257.2274 544.5688,255.2742 528.006,252.4772 512.4307,248.8267 497.8779,244.4466 479.9076,237.6978 479.4894,237.838"/>
    <polyline points="622.0594,261.1008 603.7007,262.289 584.5037,262.3616 564.5366,261.2632 544.6667,259.0138 527.3409,255.9359 511.0267,251.9376 495.0085,246.8822 477.136,239.8773 476.6751,239.9161"/>
    <polyline points="659.5301,243.1712 645.5058,246.4339 631.3442,249.0356 617.0733,250.9486 602.726,252.1628 588.3368,252.6872 573.1392,252.521 557.9652,251.6551 543.6448,250.1567 530.9965,248.2002 518.4625,245.6113 506.081,242.3706 493.8868,238.4843 481.9058,233.9828 469.4244,228.5848 457.1961,222.6345 442.6186,214.9019"/>
    <polyline points="627.9099,270.1097 607.9421,271.18 587.1469,270.9465 565.6067,269.3827 544.1952,266.5623 525.3652,262.829 507.6021,258.0434 490.9537,252.3439 471.3426,244.2875"/>
    <polyline points="630.4736,274.8314 609.6996,275.7889 588.1079,275.3474 565.7876,273.4982 543.6147,270.3428 524.8221,266.4245 506.3359,261.2522 488.9966,255.1051 468.8264,246.5705"/>
    <polyline points="632.7866,279.681 611.206,280.4881 589.6191,279.8516 566.5197,277.7303 543.5849,274.2577 524.0483,269.994 504.8492,264.4056 486.09,257.4823 466.5325,248.7902"/>
    <polyline points="634.8427,284.6448 623.6548,285.1519 612.4559,285.2638 590.0783,284.3558 566.2096,281.883 542.5276,278.0135 522.2672,273.3234 503.1393,267.4953 484.4549,260.372 464.2491,251.1435"/>
    <polyline points="636.6362,289.7094 625.4439,290.1075 614.2444,290.1167 591.8751,289.0206 567.2329,286.261 554.5867,284.2854 542.7945,282.0647 521.7953,277.0233 501.9581,270.7824 483.3357,263.4978 462.0035,253.6122"/>
    <polyline points="638.1622,294.861 626.9662,295.1397 614.9675,295.015 591.8153,293.5911 579.0921,292.196 566.4162,290.4212 542.0276,285.9432 521.0797,280.6922 510.372,277.4099 500.5436,274.0111 481.2573,266.2316 459.9259,256.0479"/>
    <polyline points="639.4164,300.0854 628.218,300.2357 616.2213,299.9828 604.2405,299.3142 592.288,298.2527 579.5803,296.7226 566.1328,294.6947 553.5338,292.4379 541.0096,289.7978 520.1178,284.3266 499.6429,277.4601 479.6848,269.2099 457.8851,258.599"/>
    <polyline points="680.9403,298.9466 663.4598,300.981 646.7013,302.1399 630.7064,302.4809 613.9142,302.0281 596.366,300.7004 578.8953,298.5819 559.9459,295.4976 541.923,291.7991 527.1856,288.0826 512.6336,283.6967 498.3093,278.6165 484.2437,272.8581 470.4496,266.4763 456.211,259.1801 440.8331,250.6211 421.2795,239.1033"/>
    <polyline points="641.0968,310.6951 629.0984,310.5455 617.1118,309.9901 605.1499,309.0405 592.4298,307.618 578.9685,305.6842 564.7815,303.2194 551.4512,300.5267 538.9874,297.6147 517.4469,291.4832 506.8422,287.882 496.368,283.9175 475.8454,274.9503 454.0834,263.8435"/>
    <polyline points="641.5184,316.0513 629.5228,315.746 616.746,314.9869 604.7976,313.8806 592.0955,312.3045 578.6563,310.2222 564.4945,307.6163 550.4089,304.6263 537.9753,301.5877 516.4934,295.2538 505.9198,291.5623 495.4769,287.5158 475.0146,278.4116 452.2614,266.628"/>
    <polyline points="539.034,499.1741 509.0679,494.0575 483.8948,489.4034 459.5896,484.4753 434.5892,478.9679 407.3275,472.5817 385.6188,467.0615 366.3616,461.6632 343.886,454.7736"/>
    <polyline points="538.8934,504.5451 479.0265,493.9419 453.922,488.9301 425.7672,482.8692 401.5894,477.3498 381.4037,472.3341 362.1156,467.0474 341.2321,460.791"/>
    <polyline points="538.4718,509.9014 473.0912,498.3161 417.4276,487.0182 395.5621,482.1548 376.1269,477.4371 358.35,472.6911 338.9464,467.0348"/>
    <polyline points="578.3152,521.6498 467.2518,501.9358 432.6949,495.2391 399.0134,488.2472 374.8472,482.679 352.3901,476.858 330.0959,470.4408 298.0192,460.5632"/>
    <polyline points="536.7914,520.5111 457.2181,506.4855 405.3424,496.6525 368.5845,488.7478 335.5306,480.3205"/>
    <polyline points="535.5372,525.7354 440.9662,509.2354 399.2544,501.6286 365.5511,494.7461 334.4642,487.3774"/>
    <polyline points="534.0112,530.887 500.1491,524.8295 392.0877,506.5339 359.883,500.3171 333.8883,494.5468"/>
    <polyline points="532.2177,535.9516 488.8912,528.2888 383.838,511.4166 356.2754,506.489 333.8239,502.0361"/>
    <polyline points="530.1616,540.9155 484.4587,532.9142 382.4053,517.576 334.3229,509.6782"/>
    <polyline points="527.8486,545.7649 501.0842,540.9201 473.428,536.5485 358.5262,520.6266 335.5562,517.3679 335.37,517.147"/>
    <polyline points="525.2849,550.4866 496.142,545.3106 464.4901,540.6099 406.5594,533.2222 337.0392,524.8167"/>
    <polyline points="522.4776,555.0677 490.9446,549.6307 456.8672,544.9391 391.6919,537.4914 339.3069,532.3868"/>
    <polyline points="519.4344,559.4956 487.8732,554.2272 452.9603,549.7524 394.0702,543.7096 366.9685,541.4032 342.2238,539.7542 342.0199,539.4557"/>
    <polyline points="516.1636,563.7581 483.7748,558.5976 448.0198,554.4215 390.6507,549.2807 345.3979,546.5964"/>
    <polyline points="512.6743,567.8437 481.0373,563.056 446.0388,559.3142 393.4022,555.1784 370.235,553.9554 349.4431,553.4005 349.0997,553.1091"/>
    <polyline points="508.9759,571.741 478.0888,567.3545 444.6472,564.1157 395.1621,560.7591 373.5802,559.8898 353.5824,559.6497 353.2518,559.3138"/>
    <polyline points="505.0786,575.4394 475.7366,571.561 443.0617,568.7217 396.7393,566.0601 376.7484,565.4781 358.3491,565.4691 357.8607,565.2201"/>
    <polyline points="500.993,578.9287 472.4034,575.4769 439.6981,573.0128 395.7463,570.9855 378.9491,570.7001 362.9569,570.8448"/>
    <polyline points="496.7305,582.1995 471.2877,579.386 442.557,577.4102 403.3901,575.8227 384.9925,575.5512 368.1946,575.7723 367.7266,575.4279"/>
    <polyline points="492.3026,585.2427 467.6225,582.8265 440.4694,581.2509 402.8885,580.0821 373.3667,580.153"/>
    <polyline points="487.7215,588.05 466.2042,586.1775 443.0362,584.9746 406.2489,584.0412 379.0518,584.259 378.5103,583.9069"/>
    <polyline points="482.9998,590.6137 462.2576,589.0776 439.8774,588.1553 408.683,587.5895 384.6943,587.8166"/>
    <polyline points="478.1504,592.9267 460.5861,591.8145 441.3986,591.1357 415.0018,590.7498 390.2695,590.8423"/>
    <polyline points="487.8976,633.3063 469.499,633.41 449.5189,634.2801 426.3883,636.063 401.734,638.6021"/>
    <polyline points="468.1219,596.7763 441.7369,595.9315 401.8044,595.7889"/>
    <polyline points="462.9702,598.3023 441.3774,597.7765 407.8136,597.7348"/>
    <line x1="457.7459" x2="413.7679" y1="599.5565" y2="599.2705"/>
    <line x1="452.463" x2="419.6728" y1="600.5356" y2="600.4253"/>
    <line x1="447.1362" x2="425.539" y1="601.2369" y2="601.2218"/>
    <line x1="441.7799" x2="430.5827" y1="601.6585" y2="601.6336"/>
    <line x1="478.1504" x2="465.3912" y1="405.4214" y2="400.7264"/>
    <line x1="482.9998" x2="460.4944" y1="407.7345" y2="399.4154"/>
    <polyline points="487.7215,410.2982 472.6044,405.059 454.696,398.1915"/>
    <polyline points="492.3026,413.1055 471.8437,406.1836 448.7464,397.2933"/>
    <polyline points="496.7305,416.1487 482.9976,411.8181 470.1502,407.3582 443.3817,396.7862"/>
    <polyline points="500.993,419.4194 484.9182,414.5392 469.7686,409.3948 455.5389,404.0525 437.0682,396.5511"/>
    <polyline points="505.0786,422.9088 486.6493,417.5272 469.1857,411.7352 450.4567,404.7224 431.2713,396.6907 430.559,396.7159"/>
    <polyline points="508.9759,426.6072 488.1808,420.7702 467.6357,414.1075 448.1285,406.8924 424.5311,397.2387"/>
    <polyline points="512.6743,430.5045 488.7359,424.0308 465.8627,416.7698 443.333,408.504 418.2424,398.1697"/>
    <polyline points="516.1636,434.59 489.8395,427.7516 464.6166,419.9644 439.783,411.0125 411.6973,399.5687"/>
    <polyline points="519.4344,438.8526 490.7175,431.686 463.1343,423.413 437.4779,414.3865 405.5699,401.5393 404.922,401.4987"/>
    <polyline points="522.4776,443.2804 491.3625,435.8183 475.9472,431.5343 461.4091,427.0986 431.9197,416.9183 398.4987,403.8079"/>
    <polyline points="525.2849,447.8615 508.0931,444.0943 491.7674,440.1324 475.5432,435.7735 460.1994,431.2392 429.0977,420.8306 391.8842,406.7108"/>
    <polyline points="527.8486,452.5833 509.0615,448.6247 491.9256,444.6111 474.8915,440.1859 458.7398,435.5651 441.9394,430.3217 423.7494,424.1776 385.6168,409.9998"/>
    <polyline points="567.6627,440.7361 537.8709,434.6887 513.7149,429.0783 490.5536,422.7957 469.1993,416.0367 449.6429,408.9562 429.6272,400.8393 410.6097,392.4163 372.8895,374.8742 367.9365,372.8648"/>
    <polyline points="532.2177,462.3965 511.8016,458.4205 493.0385,454.3498 475.1503,450.0419 456.5941,445.1132 438.1537,439.7672 418.2998,433.5665 397.0711,426.4197 373.7577,417.9638 373.391,418.1763"/>
    <polyline points="534.0112,467.4613 512.7823,463.4764 493.2073,459.3772 473.7305,454.8345 454.3632,449.845 434.338,444.2221 412.8952,437.7452 391.604,430.7869 368.2204,422.5271 367.9148,422.7512"/>
    <polyline points="535.5372,472.6128 513.4978,468.6115 493.1124,464.4811 472.8244,459.8965 452.6428,454.8633 430.2543,448.7825 407.984,442.2822 386.633,435.5094 363.1866,427.4299 362.8728,427.5896"/>
    <polyline points="536.7914,477.8372 513.1592,473.6537 491.9691,469.4675 470.876,464.8175 449.8864,459.72 424.3604,452.9847 402.0422,446.651 383.6936,440.9982 358.2749,432.6385"/>
    <polyline points="537.7706,483.12 513.3357,478.8814 491.3403,474.6456 469.4399,469.9431 446.8639,464.5997 419.7388,457.6562 397.3724,451.4948 377.4586,445.4898 354.1133,437.8607"/>
    <polyline points="538.4718,488.4469 512.4517,483.9859 489.6564,479.6735 467.7342,475.0736 445.1256,469.8693 417.1702,462.9468 394.7509,456.9807 375.5515,451.3806 350.2564,443.4099"/>
    <polyline points="538.8934,493.8032 510.5044,488.9559 486.9137,484.5442 464.1921,479.8587 439.9993,474.4055 412.0023,467.6531 389.5517,461.8062 369.5605,456.0643 346.9199,448.9385"/>
    <polyline points="333.7839,499.1741 282.9959,488.0141 261.8034,483.8435 240.4305,480.7456 221.2872,479.3278 210.8892,479.1749 199.6952,479.5122 189.3244,480.2806 178.1991,481.5652 166.3421,483.4075 152.9873,485.9753 135.8246,489.8703 128.8438,491.633 128.7929,491.8865"/>
    <polyline points="333.6433,504.5451 284.978,494.9621 262.9127,491.1102 241.4815,488.4432 231.1092,487.6936 221.5154,487.3652 211.1164,487.4287 199.9316,487.9938 189.5781,488.9689 178.4801,490.4709 167.4462,492.3898 154.9178,495.0099 128.5652,501.7129"/>
    <polyline points="333.2217,509.9014 286.7079,501.8836 262.9683,498.3663 241.4739,496.268 221.4867,495.6953 211.0921,496.0088 199.9233,496.8314 189.5937,498.0334 178.5294,499.7669 166.7536,502.0722 154.2839,504.9591 140.3589,508.6253 129.3287,511.9221"/>
    <polyline points="332.5205,515.2282 289.7791,508.952 264.3669,505.868 242.0261,504.2901 222.0305,504.233 211.6463,504.7935 200.4984,505.8635 190.1957,507.2782 179.1666,509.2236 167.4342,511.7405 155.7898,514.6383 142.6923,518.2996 131.0883,521.9287"/>
    <polyline points="331.5413,520.5111 292.6236,515.8195 266.3387,513.3727 243.9635,512.3894 223.9715,512.7967 213.6008,513.5683 202.4743,514.8422 192.1962,516.4259 181.1973,518.5355 158.6671,524.054 133.817,531.6773"/>
    <polyline points="330.2871,525.7354 296.0394,522.5086 268.8978,520.7515 246.5039,520.3721 225.7288,521.3076 205.0707,523.6945 183.849,527.6956 161.3862,533.4829 137.4758,541.0715"/>
    <polyline points="367.802,543.5721 347.0411,542.3023 327.0584,541.4781 308.6621,541.1317 291.0629,541.2381 275.0723,541.7705 259.9046,542.75 245.5767,544.182 231.3135,546.1551 217.1392,548.6892 202.2967,551.9618 187.5934,555.8123 173.04,560.1957 158.6461,565.0777 144.4274,570.4485 130.4023,576.3064 114.7684,583.4106"/>
    <polyline points="326.9676,535.9516 298.9917,534.8161 273.3938,534.6677 251.8129,535.5219 231.1084,537.481 211.3482,540.5496 191.0243,544.9604 170.9756,550.4913 147.2457,558.2544"/>
    <polyline points="324.9115,540.9155 299.3152,540.5645 275.3231,541.1197 254.5719,542.5154 234.7126,544.8631 215.0112,548.2915 195.5245,552.7835 176.2878,558.249 153.1999,565.9146"/>
    <polyline points="322.5985,545.7649 299.4016,546.0605 277.8299,547.1398 257.9157,548.973 238.1123,551.7549 219.259,555.3769 199.8307,560.1161 181.4093,565.5231 159.7192,572.8509"/>
    <polyline points="320.0348,550.4866 299.2514,551.2888 278.5139,552.8823 259.4495,555.148 241.2927,558.1206 223.2869,561.9016 204.6919,566.677 186.3167,572.2395 166.7279,579.0524"/>
    <polyline points="317.2275,555.0677 298.0684,556.3031 279.7643,558.1691 262.3376,560.6256 245.0246,563.7842 227.8552,567.648 210.851,572.1844 194.0264,577.3476 173.8009,584.2738"/>
    <polyline points="314.1843,559.4956 296.6555,561.0664 279.9885,563.1692 263.4101,565.8833 247.7283,569.0537 231.3958,572.9855 215.2144,577.4992 199.953,582.3022 181.1871,588.8107"/>
    <polyline points="310.9135,563.7581 295.8103,565.4642 280.7723,567.6725 265.8173,570.3874 250.9639,573.611 236.2255,577.3258 221.6107,581.5008 205.6081,586.6129 189.0244,592.5047 188.4175,592.4751"/>
    <polyline points="337.9303,595.3115 322.1749,598.091 306.5543,601.5496 291.0847,605.6312 274.2448,610.7446 257.5875,616.4252 240.3627,622.8937 220.3854,631.1051 201.4098,639.6216 200.7644,639.5974"/>
    <polyline points="303.7258,571.741 279.2932,575.9745 254.3601,581.7656 229.0078,589.1185 203.3006,597.9456"/>
    <polyline points="299.8285,575.4394 277.8382,579.691 256.0884,585.04 233.845,591.6264 210.4009,599.6779"/>
    <polyline points="295.7429,578.9287 276.9581,582.893 257.5889,587.8703 238.4372,593.6288 217.2552,600.8529"/>
    <polyline points="291.4804,582.1995 275.1026,585.938 258.8736,590.2774 242.8,595.1615 223.8729,601.5402"/>
    <polyline points="287.0525,585.2427 273.8381,588.4563 259.9558,592.2807 230.273,601.7953"/>
    <polyline points="282.4714,588.05 260.8502,593.8974 236.4787,601.6611"/>
    <polyline points="277.7496,590.6137 260.8061,595.3721 242.5143,601.1689"/>
    <line x1="272.9002" x2="248.4028" y1="592.9267" y2="600.34"/>
    <line x1="267.9363" x2="253.387" y1="594.9828" y2="599.363"/>
    <line x1="262.8717" x2="250.4765" y1="401.5719" y2="398.3836"/>
    <line x1="267.9363" x2="245.4777" y1="403.3653" y2="397.5529"/>
    <line x1="289.5968" x2="244.7288" y1="367.9204" y2="356.1413"/>
    <polyline points="277.7496,407.7345 255.389,401.555 234.3794,396.5996"/>
    <polyline points="282.4714,410.2982 255.5181,402.7221 229.038,396.5709"/>
    <polyline points="287.0525,413.1055 270.9581,408.2888 254.7426,403.8981 238.4103,399.9639 223.5527,396.8313"/>
    <polyline points="291.4804,416.1487 272.3508,410.3147 253.8234,405.2802 235.1398,400.8612 217.9118,397.4076"/>
    <polyline points="295.7429,419.4194 273.5862,412.5433 252.747,406.8662 230.9216,401.8315 212.1076,398.3329"/>
    <polyline points="299.8285,422.9088 275.4185,415.1976 253.0511,409.0446 230.4397,403.8599 206.8483,399.47"/>
    <polyline points="303.7258,426.6072 275.5331,417.5935 250.842,410.8418 224.2756,405.02 207.733,402.0934 200.6828,401.1786"/>
    <polyline points="307.4242,430.5045 276.2175,420.4115 249.2075,413.0447 235.9483,410.0212 221.8227,407.2262 206.0434,404.5811 195.0091,403.1267"/>
    <polyline points="310.9135,434.59 275.9249,423.1937 261.3117,419.0131 247.3558,415.4665 233.2954,412.3607 218.3556,409.5638 201.7509,407.0142 189.1155,405.5565"/>
    <polyline points="314.1843,438.8526 292.957,431.7006 275.4075,426.1722 260.0185,421.7953 245.2704,418.1194 229.6168,414.8127 213.8512,412.0891 194.8221,409.542 183.6826,408.3811 183.0123,408.544"/>
    <polyline points="317.2275,443.2804 293.7262,435.3607 275.417,429.5816 259.2544,425.0008 243.7148,421.1943 228.0382,417.9991 211.455,415.316 193.9832,413.2052 177.2741,411.8337"/>
    <polyline points="320.0348,447.8615 292.7273,438.7112 273.6403,432.7388 256.6829,428.0303 240.3294,424.1882 223.034,420.9366 204.8116,418.3994 183.3002,416.4689 171.3178,415.8247 170.7988,416.1767"/>
    <polyline points="322.5985,452.5833 292.2285,442.5008 273.1296,436.5669 255.3844,431.7066 238.2231,427.8085 220.8923,424.753 202.6347,422.484 183.4889,421.0668 165.1674,420.58"/>
    <polyline points="324.9115,457.4327 290.6958,446.24 270.8017,440.1708 252.2411,435.2631 235.0314,431.5861 216.0669,428.6058 196.9617,426.7259 174.5832,425.8181 159.3839,425.8666 158.9499,426.251"/>
    <polyline points="326.9676,462.3965 289.6412,450.4228 269.7162,444.4559 251.1251,439.6657 233.0968,435.9975 214.0919,433.2892 194.956,431.7582 174.1632,431.3332 153.5059,432.0778"/>
    <polyline points="328.7611,467.4613 288.293,454.8088 268.3259,448.9844 248.913,444.1829 230.8367,440.7609 210.9916,438.3084 191.0253,437.2133 169.4298,437.4258 155.0528,438.2289 148.0769,438.9306"/>
    <polyline points="330.2871,472.6128 285.8745,459.1789 266.62,453.772 247.1539,449.1923 228.2391,445.9143 208.3484,443.8695 187.5618,443.2633 165.184,444.1685 150.8396,445.4265 143.1218,446.4353"/>
    <polyline points="331.5413,477.8372 284.6779,464.2271 265.3651,459.0327 245.0581,454.5439 226.0893,451.5973 215.7417,450.5608 205.3612,449.9361 194.9641,449.7203 184.5662,449.8967 173.3825,450.4908 161.4285,451.5343 145.5435,453.4436 138.7183,454.6023"/>
    <polyline points="332.5205,483.12 283.1672,469.4944 263.7831,464.5725 243.4082,460.4044 224.3892,457.8035 214.0227,456.978 203.631,456.5812 193.2317,456.6088 182.0428,457.09 170.0842,458.077 157.3741,459.5863 139.9766,462.2429 135.2476,463.0657 134.972,463.3973"/>
    <polyline points="374.0469,484.156 340.013,475.1807 284.8535,458.5945 264.8176,453.012 253.1551,450.1883 241.4038,447.7612 230.3585,445.91 220.0444,444.5803 206.4946,443.4294 192.9047,442.9408 178.5069,443.1027 163.3309,443.9384 145.0128,445.6619 126.7612,447.9874 107.8131,451.0805 94.8251,453.835"/>
    <polyline points="333.6433,493.8032 282.3098,481.447 261.988,477.0171 240.6835,473.4791 221.5734,471.6685 211.1807,471.3009 200.7818,471.381 190.3955,471.9001 179.2428,472.9199 168.1373,474.3671 155.51,476.459 139.8166,479.5732 129.9963,481.9108"/>
    <polyline points="231.1588,321.4223 210.9016,313.9307 191.0159,305.5026 170.8343,295.7882 151.1086,285.1778 131.1626,273.3323 112.4243,261.0622 94.8922,248.4483 75.7073,233.4378"/>
    <polyline points="231.0182,326.7933 209.9051,319.3153 189.1514,310.8919 168.7982,301.5416 147.4306,290.6169 126.5121,278.8551 106.7691,266.6739 88.8559,254.6066 67.4094,238.9861"/>
    <polyline points="271.4218,336.4404 252.2071,330.8921 235.4126,325.6302 220.2876,320.4133 206.0801,315.0127 192.0541,309.1568 177.5006,302.5105 163.1663,295.4036 148.3462,287.4927 133.0747,278.7453 118.7627,269.9483 104.7335,260.7072 91.0065,251.0227 77.5991,240.9007 65.1432,230.8592 53.0132,220.4266 39.8531,208.3813"/>
    <polyline points="229.8954,337.4764 207.8443,330.2705 186.8448,322.4785 164.6871,313.2606 141.4081,302.612 118.4719,291.2438 95.9199,279.1316 74.4743,266.6785 52.249,252.7744"/>
    <polyline points="228.9162,342.7593 206.7838,335.8065 185.674,328.3177 164.0933,319.8051 139.8364,309.3878 115.8631,298.3335 92.203,286.6237 69.5831,274.6378 45.5403,261.0568"/>
    <polyline points="227.662,347.9836 206.2164,341.5177 185.7461,334.6266 164.0056,326.5303 139.5122,316.6812 114.4967,306.0023 89.7207,294.7789 65.1962,283.0162 39.6683,270.0917"/>
    <polyline points="226.136,353.1352 205.3879,347.1308 186.3303,341.0658 166.6858,334.2315 143.4532,325.5558 116.6417,315.0407 90.0059,304.0881 62.8126,292.3976 34.7174,279.8244"/>
    <polyline points="224.3425,358.1998 188.2057,347.8217 151.0159,335.4375 96.1628,315.3983 30.798,290.1235"/>
    <polyline points="222.2864,363.1637 189.095,354.13 156.9657,344.3024 119.7448,332.0051 27.9972,300.8241"/>
    <polyline points="219.9734,368.0131 190.5314,360.4429 164.3307,353.1397 67.0805,323.7321 26.3428,311.993"/>
    <polyline points="217.4097,372.7348 166.1727,359.9881 68.0829,333.5152 25.9231,323.1387"/>
    <polyline points="214.6024,377.3159 170.1642,367.0891 80.6897,345.6831 53.3291,339.7361 26.7602,334.6145"/>
    <polyline points="244.7694,405.8724 216.5827,399.9743 185.0015,394.8266 142.1516,389.3502 103.1472,385.4558 74.4094,383.5866 48.0188,382.9821 24.8306,383.6275 12.065,384.5575 0.1354,385.8493 0.0,385.6219"/>
    <polyline points="208.2884,386.0063 144.6493,373.7987 99.7615,365.7743 66.5509,360.6816 49.088,358.4919 32.3726,356.8129 32.1081,356.5504"/>
    <polyline points="204.7991,390.0918 155.1361,381.5113 105.3147,373.904 71.1712,369.7237 53.6446,368.1231 36.8795,367.0502 36.4908,366.8094"/>
    <polyline points="201.1007,393.9891 157.6129,387.306 109.9995,381.2384 75.752,378.024 58.1844,376.9654 42.193,376.4586 41.7599,376.2146"/>
    <polyline points="197.2034,397.6876 157.5614,392.3641 113.7971,387.8326 81.0753,385.5975 64.2858,385.0186 48.2866,384.9305 47.7592,384.726"/>
    <polyline points="193.1178,401.1769 157.3567,397.0566 116.6934,393.7426 83.927,392.3084 54.3898,392.377"/>
    <polyline points="188.8553,404.4477 157.0057,401.3704 120.278,399.092 89.8894,398.3341 61.1848,398.8562"/>
    <polyline points="184.4274,407.4909 155.7168,405.247 123.7497,403.8262 97.3525,403.5526 68.5715,404.5058 67.9768,404.2761"/>
    <polyline points="179.8463,410.2982 154.2944,408.754 125.5069,407.9451 100.7085,408.0739 75.2167,409.1103"/>
    <polyline points="175.1246,412.8619 151.9472,411.8628 126.3503,411.5353 103.9552,411.9538 82.4041,413.0954"/>
    <polyline points="170.2752,415.1749 151.0833,414.6376 130.284,414.5895 109.4916,415.122 89.5265,416.2873 88.8485,416.0636"/>
    <polyline points="165.3113,417.231 148.5132,417.0106 130.9143,417.1741 95.8147,418.6918"/>
    <polyline points="172.9319,458.0654 152.287,460.5816 125.489,465.0651"/>
    <polyline points="155.0951,420.5505 132.7,420.977 108.7583,422.124"/>
    <line x1="149.8708" x2="114.7218" y1="421.8047" y2="423.1136"/>
    <line x1="144.5879" x2="120.6196" y1="422.7838" y2="423.7417"/>
    <line x1="139.2611" x2="126.4753" y1="423.4851" y2="424.0267"/>
    <line x1="197.2034" x2="187.1772" y1="245.157" y2="237.2031"/>
    <polyline points="201.1007,248.8554 192.1943,242.0654 182.2738,233.9928"/>
    <polyline points="235.3052,225.2849 225.0689,216.3322 214.6388,206.4072"/>
    <polyline points="208.2884,256.8382 190.813,244.1499 171.7645,228.347"/>
    <polyline points="211.5592,261.1008 200.2932,253.4844 189.3587,245.3992 179.3824,237.3809 166.112,225.9247"/>
    <polyline points="214.6024,265.5286 200.5295,256.3564 186.9511,246.4667 174.5028,236.4174 160.1558,223.7906"/>
    <polyline points="217.4097,270.1097 201.1336,259.9302 184.8462,248.3287 170.5008,236.8097 153.865,221.9726"/>
    <polyline points="256.5492,256.1951 245.0886,248.8749 234.6063,241.5307 224.441,233.7536 214.0028,225.0372 204.5269,216.4334 194.8326,206.8963 186.6013,198.1653 175.5322,185.6516"/>
    <polyline points="259.7875,262.9843 246.7296,255.2068 234.0626,246.808 221.8284,237.7904 210.0535,228.1808 198.752,218.0184 187.3762,206.7693 177.0725,195.5962 166.2548,182.7873"/>
    <polyline points="224.3425,284.6448 211.5915,277.956 199.8178,271.1503 188.3248,263.8807 176.4772,255.6975 164.9746,247.0359 153.8356,237.9116 143.6724,228.8759 133.3115,218.9085"/>
    <polyline points="226.136,289.7094 212.5294,282.937 199.229,275.5815 186.2613,267.6541 173.6448,259.1789 161.3958,250.1806 149.536,240.6754 139.2792,231.746 125.969,219.0447 125.4167,218.8446"/>
    <polyline points="227.662,294.861 212.4791,287.6727 198.344,280.179 183.8765,271.6419 169.815,262.4513 156.1797,252.6395 143.6169,242.7331 132.0956,232.8202 117.6229,219.3789"/>
    <polyline points="228.9162,300.0854 212.8628,292.8747 197.1645,284.9208 181.8597,276.2336 166.3051,266.4074 151.8743,256.3348 137.9134,245.6204 125.6643,235.3285 109.8425,220.628 109.3745,220.6015"/>
    <polyline points="229.8954,305.3682 212.2435,297.8195 195.6932,289.7832 178.8497,280.5711 162.466,270.5636 146.5631,259.8084 131.1804,248.3218 117.5795,237.1538 101.5872,222.6386 101.1318,222.5232"/>
    <polyline points="230.5966,310.6951 212.0711,303.1632 193.9331,294.741 176.23,285.4393 158.3026,274.8955 140.8874,263.5258 124.6691,251.8255 109.0204,239.3739 92.8429,225.2035"/>
    <polyline points="231.0182,316.0513 211.6237,308.5402 192.6103,300.1113 173.3194,290.3992 154.5073,279.7884 136.186,268.351 118.4052,256.0905 101.8486,243.5031 84.2203,228.8576"/>
    <polyline points="333.7839,143.6705 279.7368,98.5592 259.3082,80.6034 248.899,70.6543 239.4563,60.8683 231.5142,51.8739 223.0371,41.3673"/>
    <polyline points="333.6433,149.0415 278.7894,102.4043 256.7557,82.6422 245.8969,72.0075 236.5826,62.0992 228.2483,52.3858 219.9299,41.6616"/>
    <polyline points="333.2217,154.3977 278.1794,106.7518 254.5655,85.1597 243.8125,74.4179 234.0572,63.8274 225.3281,53.4003 216.7104,42.0676"/>
    <polyline points="332.5205,159.7246 279.0766,112.6813 264.2924,99.2121 252.7173,88.1666 241.5098,76.749 231.8586,66.0635 223.7143,56.1901 213.7558,42.6635 213.4068,42.5924"/>
    <polyline points="331.5413,165.0074 311.7202,147.5701 279.6568,118.619 263.2395,103.3802 250.0601,90.5412 238.9852,78.995 228.9331,67.5952 220.4268,56.9853 210.6683,43.3136 210.3359,43.1801"/>
    <polyline points="330.2871,170.2318 311.1226,153.2599 282.2549,126.7405 263.0557,108.6204 248.2823,93.9796 236.7704,81.7451 226.3146,69.6361 217.4432,58.2951 207.4214,43.831 207.1645,43.8898"/>
    <polyline points="328.7611,175.3834 310.2282,158.9054 284.4829,134.9015 261.9909,113.2791 245.6855,96.7768 233.7821,83.814 222.9771,70.9519 213.8001,58.837 204.1376,44.6666"/>
    <polyline points="365.2911,195.159 353.7753,186.5143 341.8964,177.0319 315.8565,154.5574 268.6459,111.3484 254.2403,97.4754 241.9403,84.8882 233.8537,76.0228 226.0799,66.8821 219.157,58.0789 212.5972,49.002 206.4253,39.6569 200.6239,30.0773 187.9703,6.6403"/>
    <polyline points="362.4126,202.1084 350.2133,193.0421 338.3095,183.5911 326.0889,173.2645 312.3479,161.0281 290.6464,140.8989 267.4874,118.8162 252.1458,103.6118 239.4595,90.2856 230.951,80.7236 222.7828,70.8696 215.494,61.3379 209.0571,52.1733 203.0034,42.7512 196.9307,32.4021 190.8658,21.1309 184.2257,7.8772"/>
    <polyline points="322.5985,190.2613 305.2321,174.8808 285.0108,155.515 260.2594,130.4882 240.0432,108.8692 226.433,93.1421 214.5576,78.0577 204.4328,63.6644 194.5588,47.7938"/>
    <polyline points="355.5851,215.508 341.9884,205.6418 328.7604,195.2868 315.9334,184.439 302.8923,172.6209 285.586,155.994 265.8337,136.1489 248.695,118.2246 234.7342,102.8072 224.9084,91.2108 216.4824,80.5364 208.4783,69.5424 201.3894,58.8859 195.1745,48.6216 189.0169,37.4011 182.9393,25.2354 176.3271,10.8699"/>
    <polyline points="317.2275,199.5641 299.168,183.7618 280.1757,165.4273 256.8791,141.2173 235.9855,118.0484 221.1421,100.2206 208.6158,83.6183 197.4974,66.9972 187.9278,50.5953"/>
    <polyline points="314.1843,203.992 296.0495,188.2766 277.0541,169.9462 254.9793,146.7818 234.2575,123.4593 218.5461,104.2736 205.6957,86.915 194.2999,69.5184 184.4909,52.2702"/>
    <polyline points="310.9135,208.2545 292.6925,192.6397 274.2324,174.9072 253.3116,152.8539 232.7188,129.4176 216.62,109.5158 202.9432,90.7794 191.2523,72.6207 180.9904,54.1438"/>
    <polyline points="307.4242,212.34 289.1077,196.8378 270.5995,179.1563 250.8146,158.2312 230.3461,134.6868 213.8917,114.0447 199.897,94.5511 187.9319,75.6186 182.4139,65.8729 177.4147,56.2435"/>
    <polyline points="303.7258,216.2373 294.3918,208.6965 285.3066,200.8577 275.8869,192.1918 266.735,183.2435 247.5163,162.8847 227.6762,139.8547 210.8643,118.4756 196.5637,98.218 190.0877,88.1159 183.944,77.8086 178.1581,67.2963 173.8115,58.5635"/>
    <polyline points="299.8285,219.9357 290.438,212.4655 281.3022,204.6857 271.8386,196.0679 262.6564,187.1508 243.9781,167.3824 224.7309,144.8981 207.5537,122.7897 192.9548,101.7647 186.1458,90.9266 180.1005,80.5612 174.039,69.2882 170.1214,61.17"/>
    <polyline points="295.7429,223.4251 286.2957,216.0268 277.1083,208.308 268.1843,200.2862 258.9496,191.4236 240.7585,172.2961 222.0402,150.4126 204.9226,128.2581 197.0506,117.1686 189.9508,106.5187 183.1846,95.6538 177.1713,85.2697 171.1326,73.9844 166.3268,64.1173"/>
    <polyline points="291.4804,226.6959 281.9778,219.3688 272.7397,211.7109 263.7715,203.7385 254.4994,194.9151 245.5195,185.7943 236.2775,175.8178 218.1195,154.508 201.1035,132.2759 193.2966,121.1404 186.2613,110.4478 179.5583,99.5438 173.2138,88.4275 166.8891,76.3884 162.6007,67.305"/>
    <polyline points="287.0525,229.7391 277.4976,222.4802 268.211,214.8814 259.1997,206.9578 249.8899,198.1743 240.883,189.0803 232.1644,179.7093 214.512,159.0201 205.6277,147.6881 197.5408,136.7542 189.7719,125.5922 182.7757,114.8739 176.1107,103.9467 169.7991,92.8116 163.5,80.7591 158.8318,70.8645"/>
    <polyline points="282.4714,232.5464 272.8687,225.351 263.5371,217.8074 254.4854,209.9302 245.7142,201.7416 236.6608,192.694 227.9086,183.3545 218.9219,173.1474 210.2414,162.6786 201.8628,151.9666 193.7944,141.0191 186.0544,129.837 178.6664,118.4194 171.6546,106.7671 165.0402,94.8847 157.7887,80.6234 155.0525,74.8379 155.2553,74.6013"/>
    <polyline points="277.7496,235.11 268.1046,227.9716 258.7332,220.4776 249.6452,212.6423 240.8426,204.4875 232.3213,196.0392 223.5333,186.7335 215.0451,177.1534 206.3411,166.7042 197.9563,155.9971 189.8968,145.0431 182.1771,133.8471 175.2392,123.091 168.2344,111.4344 162.0014,100.2552 155.7721,88.1663 151.5056,78.9615"/>
    <polyline points="272.9002,237.4231 263.2195,230.3332 254.4326,223.3893 245.2945,215.6125 236.4458,207.5078 227.8839,199.1007 219.0605,189.8285 210.5483,180.2699 202.3375,170.451 193.939,159.7547 186.3448,149.4516 178.6166,138.2614 171.6774,127.5062 164.674,115.8488 158.4408,104.6696 151.4985,91.1485 148.0465,83.9317 148.055,83.4571"/>
    <polyline points="267.9363,239.4792 258.2275,232.4279 249.4158,225.5155 240.8551,218.2946 231.9654,210.235 223.3668,201.8654 215.0548,193.2111 206.499,183.6915 198.257,173.8988 190.3251,163.8533 182.2403,152.9181 174.9621,142.3893 168.0155,131.6389 161.4097,120.6758 154.7714,108.8067 147.4666,94.5726 144.6984,88.8022 144.739,88.3215"/>
    <polyline points="262.8717,241.2727 253.7829,234.7289 244.9363,227.8614 236.3416,220.681 227.4173,212.6597 218.7872,204.3226 210.4483,195.6942 202.3972,186.7966 194.1233,177.031 186.6584,167.6361 179.0097,157.3734 171.6913,146.8725 164.7113,136.1437 158.0762,125.1984 151.789,114.0495 144.7736,100.5662 141.6226,94.0924 141.6045,93.5516"/>
    <polyline points="257.7201,242.7986 248.6208,236.2696 239.7649,229.414 231.1619,222.2436 222.8164,214.775 214.729,207.0275 206.3489,198.4391 198.2618,189.5743 190.4666,180.4517 175.7523,161.4963 168.84,151.6877 161.8013,140.9974 155.5198,130.7733 149.1585,119.6666 142.78,107.6558 138.697,99.1429"/>
    <polyline points="252.4958,244.0529 244.0365,238.0039 235.1618,231.1727 226.5402,224.0246 218.1767,216.5762 202.2275,200.8536 186.8004,183.5313 179.2585,174.1982 172.0179,164.6294 158.4579,144.8319 151.7346,133.9405 144.9772,122.1388 136.8178,106.546 136.109,105.1115 136.2617,104.6011"/>
    <polyline points="247.2129,245.032 230.5174,232.6331 214.1012,218.6015 198.6509,203.5121 183.656,186.8764 169.723,169.3414 156.4373,150.3268 143.9344,129.8452 137.4012,117.9178 133.9195,110.862"/>
    <polyline points="241.8861,245.7333 225.2193,233.2958 209.4239,219.7684 194.5256,205.2584 180.017,189.2612 166.5113,172.4084 153.5921,154.1137 141.3875,134.3874 134.4018,121.7962 132.1729,117.5451 132.0845,116.9092"/>
    <polyline points="238.6782,287.1487 226.4571,281.1836 215.1776,275.1342 204.1379,268.6578 193.3553,261.7618 182.8428,254.4605 172.6112,246.7705 162.0611,238.1896 152.4499,229.7371 143.1677,220.9246 134.2301,211.7627 125.6454,202.2694 116.9157,191.8421 108.5922,181.0876 100.6776,170.0288 91.8994,156.6533 87.7335,149.8238 87.5873,149.1258"/>
    <polyline points="231.1588,246.2955 216.4628,235.2282 201.8527,222.7754 188.0055,209.4791 174.4123,194.8124 162.1876,180.0103 150.3414,163.8995 138.9909,146.4727 129.4653,129.8749"/>
    <polyline points="225.7879,246.1549 211.7791,235.5044 197.7977,223.5467 184.5161,210.8161 171.4244,196.7751 159.6418,182.6453 148.1738,167.2496 136.7087,149.898 129.7361,138.2222 128.8093,136.1561"/>
    <polyline points="220.4316,245.7333 207.1169,235.4918 193.7742,224.0177 181.0708,211.8394 169.0274,199.008 157.6711,185.5645 147.0298,171.5484 136.2419,155.6684 129.5128,144.7806 128.5383,142.7167"/>
    <polyline points="215.1047,245.032 202.4886,235.1945 190.384,224.7338 178.8066,213.6923 167.237,201.5135 156.8006,189.3877 146.9568,176.7762 137.266,163.0548 128.7041,149.5796"/>
    <polyline points="209.8219,244.0529 198.5226,235.1282 187.0444,225.1659 176.041,214.6814 165.5294,203.7038 155.5311,192.2568 146.0687,180.363 136.6946,167.3984 129.2828,156.0467"/>
    <polyline points="204.5975,242.7986 193.9967,234.2808 183.1744,224.7832 173.3448,215.3857 163.3667,205.0046 153.8503,194.1989 145.3051,183.62 135.8086,170.7447 130.3944,162.8176 130.2031,162.1048"/>
    <polyline points="199.446,241.2727 190.1517,233.6832 180.5542,225.2152 171.2931,216.3805 162.3808,207.1941 153.8319,197.6686 145.6622,187.8159 136.9322,176.3653 131.579,168.4848"/>
    <polyline points="179.6703,277.8027 163.3964,267.618 147.6272,256.668 132.4052,244.9693 119.0547,233.5324"/>
    <polyline points="189.4175,237.4231 174.3806,224.2409 160.1696,210.1724 146.8425,195.2639 135.4936,180.8195"/>
    <polyline points="184.5681,235.11 172.02,223.942 160.0554,212.1509 148.7105,199.7627 138.036,186.7985"/>
    <polyline points="179.8463,232.5464 168.6009,222.3219 158.3913,212.1685 148.1102,200.9749 140.4893,191.7425"/>
    <polyline points="175.2653,229.7391 166.4588,221.5886 158.5111,213.6979 149.7649,204.3533 143.5253,197.0769"/>
    <polyline points="170.8374,226.6959 158.1978,214.4513 146.8036,202.1178"/>
    <polyline points="166.5748,223.4251 158.0106,215.0204 150.3153,206.8861"/>
    <line x1="162.4893" x2="153.5316" y1="219.9357" y2="210.7966"/>
    <line x1="295.7429" x2="285.315" y1="63.9158" y2="56.4981"/>
    <line x1="299.8285" x2="280.9538" y1="67.4052" y2="53.9355"/>
    <polyline points="303.7258,71.1036 289.306,61.0133 277.1342,51.9199"/>
    <polyline points="307.4242,75.0009 289.0638,62.1702 272.4607,49.7233"/>
    <polyline points="310.9135,79.0864 286.6931,62.0731 269.043,48.2939"/>
    <polyline points="314.1843,83.3489 285.4303,63.048 275.9012,55.7551 264.7681,46.7049"/>
    <polyline points="317.2275,87.7768 283.3421,63.6491 272.0031,54.7742 261.0425,45.4927"/>
    <polyline points="355.5851,71.8329 339.5734,61.2385 306.4708,40.2425 291.8933,30.3828 283.5133,24.2245 275.367,17.7603 266.8951,10.4359 258.7668,2.7321 258.127,2.5491"/>
    <polyline points="322.5985,97.0797 293.9908,76.5702 280.527,66.5232 268.0609,56.4951 253.7965,43.6491 253.1484,43.4289"/>
    <polyline points="324.9115,101.9292 291.9083,77.9414 277.892,67.2981 264.3166,56.0995 250.2663,43.02 249.6519,42.7254"/>
    <polyline points="326.9676,106.893 290.9118,80.3036 275.7045,68.5842 261.628,56.7378 253.9825,49.6884 246.6169,42.3471 246.0109,42.1258"/>
    <polyline points="328.7611,111.9576 289.0674,82.2166 273.3315,69.8739 257.5964,56.2755 242.8429,41.7127"/>
    <polyline points="330.2871,117.1092 287.0178,84.1385 270.773,71.15 254.017,56.2901 246.6184,48.9821 239.519,41.3865"/>
    <polyline points="331.5413,122.3336 285.3903,86.5486 268.6385,72.9146 259.6111,65.0093 251.4408,57.3495 244.125,49.9585 236.0572,41.1624"/>
    <polyline points="332.5205,127.6164 284.1703,89.4491 266.3079,74.6468 257.359,66.6527 249.2625,58.9149 240.9262,50.2846 232.9994,41.2769 232.4814,41.0539"/>
    <polyline points="333.2217,132.9433 282.1015,91.8335 263.7806,76.333 254.3364,67.694 245.7814,59.28 238.6543,51.707 229.3062,41.0621"/>
    <polyline points="374.637,136.1511 334.6726,105.4445 284.1392,68.8396 274.0394,60.9768 264.8237,53.2921 252.4685,41.9123 240.8838,29.7498 230.6314,17.4696 218.405,0.6475 218.0138,0.598"/>
    <polyline points="539.034,143.6705 522.6173,140.1277 506.578,135.1482 498.3657,131.9881 490.2972,128.4771 473.8997,120.1391 458.7722,111.148 442.1108,100.0874 426.4808,88.9372 393.0152,64.227 382.0935,56.5973"/>
    <polyline points="538.8934,149.0415 530.2339,147.4797 521.6559,145.5187 505.579,140.6625 497.3463,137.5561 489.2581,134.0908 480.6045,129.936 472.1263,125.434 457.0026,116.4365 441.015,105.8074 424.7549,94.1632 388.7889,67.4526 377.7095,59.5658 377.4489,59.6727"/>
    <polyline points="538.4718,154.3977 529.7958,152.9305 521.1976,151.0603 512.6984,148.7827 504.3173,146.1025 496.0702,143.0346 487.239,139.2727 478.5866,135.1155 470.1112,130.6082 454.9971,121.5947 437.714,110.0249 422.1442,98.7911 388.186,73.4024 373.2748,62.7632"/>
    <polyline points="537.7706,159.7246 528.2962,158.1827 519.6912,156.3445 511.1844,154.095 502.7955,151.4396 494.5406,148.3929 485.7011,144.6503 477.0413,140.5087 468.5596,136.0131 452.7626,126.5837 435.4981,114.9862 419.3017,103.2536 385.393,77.7989 369.1468,66.1611"/>
    <polyline points="536.7914,165.0074 527.3087,163.5179 518.6941,161.7253 510.176,159.5192 501.7743,156.9045 493.5055,153.8955 484.6503,150.1905 475.9747,146.082 466.7776,141.2284 450.9799,131.8002 433.7147,120.2037 416.8756,107.9947 381.0722,81.0665 365.165,69.8044"/>
    <polyline points="535.5372,170.2318 526.0506,168.7671 517.4315,166.9961 508.9081,164.8104 499.7423,161.9597 491.4793,158.9349 482.6305,155.2145 473.9611,151.0931 464.7698,146.2285 448.3046,136.3582 430.4067,124.2692 413.5877,112.0324 378.4534,85.5455 361.577,73.4417"/>
    <polyline points="534.0112,175.3834 524.5251,173.9157 515.9067,172.1416 507.3839,169.9534 498.2186,167.1012 489.2113,163.783 480.3763,160.0299 471.7197,155.8815 462.5405,150.9939 446.0902,141.0987 427.5409,128.545 410.7269,116.3014 374.9693,89.3123 358.1727,77.2552"/>
    <polyline points="532.2177,180.448 522.7364,178.9498 514.1236,177.1484 505.6073,174.9351 496.4494,172.059 487.4493,168.7214 478.6205,164.9536 469.9687,160.7954 460.7922,155.9026 444.3396,146.011 425.1197,133.021 407.6567,120.3097 371.2732,92.822 355.0201,81.1584"/>
    <polyline points="530.1616,185.4118 520.6895,183.8563 511.3099,181.816 502.8158,179.5194 493.6846,176.5593 484.7125,173.147 475.9113,169.3152 467.2851,165.104 458.1325,160.1666 441.0363,149.7934 421.1867,136.3061 403.7417,123.5702 368.017,96.5376 352.1627,85.0662"/>
    <polyline points="527.8486,190.2613 518.3904,188.6233 509.804,186.6999 501.3178,184.3739 492.1949,181.3883 483.2298,177.9575 474.4337,174.1141 465.0988,169.5311 455.9602,164.5679 438.2035,153.7412 417.7049,139.7857 402.8318,128.9535 367.7705,102.37 349.5481,89.0161"/>
    <polyline points="525.2849,194.983 515.8455,193.2396 507.2801,191.225 498.8173,188.815 489.7214,185.748 480.7834,182.2474 472.0125,178.3463 462.7015,173.7149 453.5815,168.7174 435.171,157.4266 414.0248,143.0008 398.5215,131.6751 364.7677,106.0153 347.1645,93.0018"/>
    <polyline points="522.4776,199.5641 513.0625,197.6943 504.5233,195.5705 496.0897,193.0606 487.0268,189.8971 478.1214,186.3142 469.381,182.3452 460.0987,177.6564 451.0012,172.618 432.6121,161.2917 410.8023,146.419 394.6637,134.607 344.9817,97.0556"/>
    <polyline points="519.4344,203.992 510.8274,202.1625 501.5421,199.7286 492.3855,196.8477 483.3744,193.5395 474.5202,189.8315 465.8283,185.7574 447.5336,175.8698 427.8507,163.5938 406.0891,148.6506 389.3459,136.3104 343.0429,101.0715"/>
    <polyline points="516.1636,208.2545 507.5895,206.2767 498.345,203.6919 489.9864,200.9419 481.0075,197.5472 472.183,193.7688 463.5164,189.6411 454.3022,184.8194 444.5682,179.2808 423.5712,166.0884 401.8459,151.0926 382.586,136.774 341.3548,104.9846"/>
    <polyline points="512.6743,212.34 504.1388,210.2015 494.9412,207.4539 486.6282,204.5689 477.6993,201.0447 460.2982,192.9409 441.4177,182.4567 419.7751,168.7876 398.7246,154.2224 380.1172,140.3672 339.7539,109.1785"/>
    <polyline points="508.9759,216.2373 500.4849,213.9282 491.3404,211.009 474.2034,204.3227 456.1903,195.6421 437.4023,184.9916 415.8001,171.2581 395.4314,157.1134 376.8479,143.2261 338.379,113.3056"/>
    <polyline points="505.0786,219.9357 496.6379,217.4488 487.552,214.3518 470.5282,207.3813 452.6195,198.4859 433.2154,187.3004 411.6523,173.5053 391.3251,159.3009 370.8898,143.8832 337.2267,117.3121"/>
    <polyline points="500.993,223.4251 483.586,217.4777 465.9585,209.8787 448.1792,200.726 428.1793,188.9728 407.3381,175.5339 387.0615,161.2575 366.6862,145.7606 336.2103,121.4867"/>
    <polyline points="520.8591,259.906 508.5137,256.5298 495.591,252.2961 482.8954,247.4232 469.715,241.6266 456.7985,235.2627 442.7222,227.658 426.1199,218.0152 409.0516,207.5913 395.5884,198.9465 383.007,190.4182 371.3136,182.0151 359.2212,172.8065 333.245,151.498 294.9632,118.716 294.9899,118.3097"/>
    <polyline points="492.3026,229.7391 475.1611,223.0622 457.0823,214.5176 438.1444,204.1344 416.2723,190.8343 396.9197,178.0417 378.09,164.4913 355.9872,147.3043 334.8327,130.2067 334.7291,129.7745"/>
    <polyline points="487.7215,232.5464 470.7225,225.5135 452.7804,216.6839 433.9429,206.1186 411.4456,192.3072 392.8094,179.8817 375.3123,167.2185 356.3734,152.4784 334.2115,134.3121"/>
    <polyline points="482.9998,235.11 466.1467,227.7331 449.0418,219.0165 428.9059,207.4968 406.4745,193.5785 389.2135,181.9746 372.3945,169.7388 354.1213,155.446 333.9039,138.7094"/>
    <polyline points="478.1504,237.4231 462.1611,230.0729 444.4638,220.7605 422.3603,207.8484 401.3679,194.6461 384.1744,182.9426 367.4349,170.5984 346.1608,153.6521 333.853,143.4288 333.7867,142.9193"/>
    <polyline points="473.1865,239.4792 457.3366,231.8323 440.4573,222.685 418.4202,209.6592 398.1388,196.8289 382.2736,186.017 367.4388,175.1332 351.7128,162.7776 333.8741,147.9716"/>
    <polyline points="468.1219,241.2727 452.407,233.3512 434.9441,223.6044 412.9903,210.438 393.4499,197.9334 377.6422,187.0376 362.8722,176.0661 344.1364,161.0692 334.3279,152.8453 334.1467,152.2918"/>
    <polyline points="462.9702,242.7986 448.085,235.012 430.7085,225.1113 409.4878,212.2779 391.3131,200.6073 376.807,190.6419 363.2776,180.6835 349.4442,169.8036 334.7229,157.5214"/>
    <polyline points="457.7459,244.0529 442.2776,235.6588 423.6229,224.7715 403.8472,212.6414 387.0747,201.7484 372.6147,191.7164 359.1363,181.6891 341.0483,167.1634 335.5392,162.5277 335.4198,161.9211"/>
    <polyline points="452.463,245.032 437.1012,236.4441 418.5181,225.4344 400.8263,214.4971 385.404,204.4625 372.2372,195.373 359.3538,185.8865 345.5349,174.9883 336.5333,167.2658"/>
    <polyline points="447.1362,245.7333 431.8666,236.982 413.3436,225.8714 397.0524,215.7113 382.9907,206.5192 370.4833,197.8826 358.2303,188.889 344.3947,178.0121 338.2247,172.9199 337.8675,172.3317"/>
    <polyline points="441.7799,246.1549 409.4783,226.9129 381.8442,209.2475 358.9698,193.1049 347.5636,184.3161 339.5992,177.7258"/>
    <polyline points="436.4089,246.2955 405.5724,227.7202 379.9888,211.3024 358.3956,196.1183 346.9599,187.368 341.5312,182.787"/>
    <polyline points="431.038,246.1549 402.3241,228.7069 379.4385,214.0088 359.7383,200.3043 343.9209,188.1435"/>
    <polyline points="425.6817,245.7333 399.0725,229.4434 378.2181,216.0234 359.7978,203.2802 346.4906,193.1334"/>
    <polyline points="420.3548,245.032 397.1918,230.7738 379.0134,219.1082 363.1406,208.3071 349.5908,198.3925"/>
    <polyline points="415.072,244.0529 379.1762,221.4896 365.2392,212.1096 352.8694,203.2778"/>
    <polyline points="409.8476,242.7986 378.7194,223.1725 356.2926,207.8053"/>
    <polyline points="404.6961,241.2727 378.3271,224.5972 359.8371,211.998"/>
    <polyline points="399.6314,239.4792 380.0279,227.0725 364.0441,216.4387"/>
    <line x1="394.6676" x2="367.8301" y1="237.4231" y2="220.0173"/>
    <line x1="371.1819" x2="357.3535" y1="271.6859" y2="263.6403"/>
    <line x1="385.0964" x2="376.366" y1="232.5464" y2="226.8976"/>
    <line x1="487.7215" x2="481.3643" y1="54.7945" y2="51.4158"/>
    <line x1="492.3026" x2="476.7765" y1="57.6018" y2="49.3181"/>
    <line x1="496.7305" x2="472.0477" y1="60.645" y2="47.4323"/>
    <polyline points="500.993,63.9158 485.3491,55.8538 467.1633,45.762"/>
    <polyline points="532.5464,36.8991 513.8799,29.7212 494.7144,21.6407 473.5885,12.0538 449.8066,0.6214"/>
    <polyline points="508.9759,71.1036 486.116,59.5883 456.8867,43.1092"/>
    <polyline points="543.1804,47.5331 521.4509,39.4114 497.1704,29.0521 471.8293,17.1454 437.5586,0.0"/>
    <polyline points="516.1636,79.0864 501.644,72.3684 486.7207,64.6549 468.6046,54.4369 447.3453,41.6673 446.6328,41.5559"/>
    <polyline points="519.4344,83.3489 503.3865,76.128 487.0208,67.7219 466.8568,56.2507 442.2791,41.2393 441.5825,41.1759"/>
    <polyline points="522.4776,87.7768 504.8831,80.0998 485.6655,70.245 465.5595,58.6727 437.0164,41.0472"/>
    <polyline points="525.2849,92.3579 515.6271,88.5013 506.1249,84.2758 486.158,74.1311 466.0661,62.5349 432.2251,41.2121 431.5714,41.1595"/>
    <polyline points="527.8486,97.0797 517.3838,93.0914 507.1044,88.6467 496.2945,83.4383 485.6809,77.8401 463.574,64.9361 427.2199,41.6022 426.5858,41.5166"/>
    <polyline points="530.1616,101.9292 518.8802,97.8429 507.8154,93.2015 496.255,87.7087 484.9303,81.7444 461.5048,67.9275 444.6599,57.1463 421.9968,42.1058 421.404,42.1483"/>
    <polyline points="532.2177,106.893 520.1111,102.7427 508.2533,97.9268 496.6543,92.5161 483.9021,85.8298 471.4258,78.6409 457.82,70.2226 416.6,42.9753"/>
    <polyline points="534.0112,111.9576 521.0725,107.7758 508.4149,102.8066 496.0583,97.1296 482.5944,90.0784 469.4536,82.441 455.2259,73.5081 411.582,44.0937"/>
    <polyline points="535.5372,117.1092 522.5188,113.1826 509.0378,108.1283 495.901,102.2355 481.7067,94.8561 468.5729,87.2068 453.7042,77.7909 436.4521,66.1726 406.9195,45.5858 406.3852,45.5355"/>
    <polyline points="536.7914,122.3336 522.9368,118.4192 508.646,113.2507 494.7456,107.1076 480.5412,99.7479 466.7329,91.6678 451.2424,81.7395 401.4889,47.1692"/>
    <polyline points="537.7706,127.6164 523.0785,123.7339 508.7217,118.7525 494.0355,112.4117 479.102,104.7217 464.6231,96.2043 449.1807,86.2014 432.7327,74.824 398.9004,50.6183 396.4341,49.1511"/>
    <polyline points="538.4718,132.9433 522.9436,129.1051 507.7787,124.0171 493.0546,117.7654 477.3944,109.7406 462.25,100.7775 446.1955,90.249 391.6361,51.3271"/>
    <polyline points="538.8934,138.2995 522.5318,134.5096 507.3118,129.5895 491.8069,123.1331 475.425,114.7642 460.9755,106.1973 444.9377,95.6437 428.6046,84.1022 395.0343,59.5344 386.7382,53.8667"/>
  </g>
</svg>
