<?xml version="1.0" encoding="utf-8" ?>
<svg xmlns="http://www.w3.org/2000/svg" xmlns:cc="http://creativecommons.org/ns" xmlns:dc="http://purl.org/dc/elements/1.1/" xmlns:ev="http://www.w3.org/2001/xml-events" xmlns:inkscape="http://www.inkscape.org/namespaces/inkscape" xmlns:rdf="http://www.w3.org/1999/02/22-rdf-syntax-ns" xmlns:sodipodi="http://sodipodi.sourceforge.net/DTD/sodipodi-0.dtd" xmlns:xlink="http://www.w3.org/1999/xlink" baseProfile="tiny" height="17.78003486cm" version="1.2" viewBox="0 0 899.2807709656848 672.0013175891769" width="23.7934704cm">
  <metadata>
    <rdf:RDF>
      <cc:Work>
        <dc:format>image/svg+xml</dc:format>
        <dc:source>vpype read fibbing-lines-for-site.svg write fibbing-lines-for-site.svg
</dc:source>
        <dc:date>2023-10-07T15:38:42.910118</dc:date>
      </cc:Work>
    </rdf:RDF>
  </metadata>
  <defs/>
  <g fill="none" id="layer1" inkscape:groupmode="layer" inkscape:label="1" stroke="#fcfaee" stroke-width="1.0" style="display:inline">
    <line x1="13.0714" x2="17.0308" y1="0.0" y2="37.9233"/>
    <line x1="18.3969" x2="14.3039" y1="37.9233" y2="0.0"/>
    <line x1="19.5184" x2="24.2323" y1="0.0" y2="37.9233"/>
    <line x1="29.9993" x2="24.7328" y1="37.9233" y2="0.0"/>
    <line x1="33.1707" x2="38.8341" y1="0.0" y2="37.9233"/>
    <line x1="30.1369" x2="31.2912" y1="30.3386" y2="68.2619"/>
    <line x1="18.9495" x2="17.5848" y1="50.0587" y2="87.9819"/>
    <line x1="11.3649" x2="5.6638" y1="91.0159" y2="128.9393"/>
    <line x1="11.3649" x2="6.2923" y1="128.9393" y2="166.8625"/>
    <line x1="8.1516" x2="11.3649" y1="150.1763" y2="112.253"/>
    <line x1="41.7035" x2="39.9671" y1="121.3546" y2="159.2779"/>
    <line x1="41.7035" x2="36.6617" y1="147.1424" y2="185.0659"/>
    <line x1="53.1879" x2="56.8728" y1="184.3074" y2="146.3839"/>
    <line x1="72.0421" x2="68.9111" y1="151.6932" y2="189.6167"/>
    <line x1="68.8203" x2="72.0421" y1="193.409" y2="155.4855"/>
    <line x1="71.9103" x2="72.0421" y1="157.0025" y2="119.0792"/>
    <line x1="56.8728" x2="55.0854" y1="126.6639" y2="164.5871"/>
    <line x1="26.5342" x2="18.6008" y1="163.0702" y2="200.9936"/>
    <line x1="18.2954" x2="26.5342" y1="204.0275" y2="166.104"/>
    <line x1="41.7035" x2="34.307" y1="214.646" y2="252.5692"/>
    <line x1="50.4923" x2="56.8728" y1="251.8108" y2="213.8875"/>
    <line x1="26.5342" x2="19.4702" y1="236.6415" y2="274.5648"/>
    <line x1="1.4203" x2="11.3649" y1="255.6031" y2="217.6799"/>
    <line x1="72.0421" x2="66.8733" y1="254.0862" y2="292.0096"/>
    <line x1="87.2114" x2="87.5988" y1="286.7004" y2="324.6236"/>
    <line x1="87.2114" x2="81.1762" y1="351.9284" y2="389.8518"/>
    <line x1="56.8728" x2="46.7903" y1="387.5764" y2="425.4997"/>
    <line x1="41.7035" x2="32.2121" y1="430.809" y2="468.7323"/>
    <line x1="16.9796" x2="26.5342" y1="462.6646" y2="424.7413"/>
    <line x1="32.4454" x2="41.7035" y1="444.4614" y2="406.538"/>
    <line x1="56.8728" x2="46.2915" y1="403.5042" y2="441.4274"/>
    <line x1="26.5342" x2="17.1779" y1="452.8044" y2="490.7278"/>
    <line x1="11.3649" x2="0.0" y1="498.3124" y2="536.2358"/>
    <line x1="11.3649" x2="3.6018" y1="540.7866" y2="578.71"/>
    <line x1="26.5342" x2="18.954" y1="580.9854" y2="618.9086"/>
    <line x1="26.5342" x2="27.2357" y1="623.4594" y2="661.3829"/>
    <line x1="28.1087" x2="26.5342" y1="667.4506" y2="629.5272"/>
    <line x1="19.8657" x2="26.5342" y1="628.0103" y2="590.087"/>
    <line x1="18.154" x2="26.5342" y1="599.1886" y2="561.2653"/>
    <line x1="30.0235" x2="41.7035" y1="553.6807" y2="515.7572"/>
    <line x1="45.3779" x2="56.8728" y1="502.1047" y2="464.1816"/>
    <line x1="62.4089" x2="72.0421" y1="461.1475" y2="423.2244"/>
    <line x1="72.0421" x2="62.1915" y1="433.0843" y2="471.0077"/>
    <line x1="72.0421" x2="61.4904" y1="477.834" y2="515.7572"/>
    <line x1="77.5294" x2="87.2114" y1="516.5157" y2="478.5923"/>
    <line x1="87.2114" x2="77.4982" y1="481.6263" y2="519.5495"/>
    <line x1="77.6434" x2="87.2114" y1="507.4141" y2="469.4908"/>
    <line x1="102.3809" x2="92.222" y1="471.0077" y2="508.931"/>
    <line x1="117.5502" x2="110.2051" y1="517.2741" y2="555.1976"/>
    <line x1="117.5502" x2="111.6589" y1="557.473" y2="595.3962"/>
    <line x1="117.5502" x2="114.508" y1="598.4301" y2="636.3534"/>
    <line x1="126.6655" x2="132.7195" y1="613.5994" y2="575.6761"/>
    <line x1="132.7195" x2="126.5952" y1="574.1592" y2="612.0825"/>
    <line x1="147.8888" x2="145.8881" y1="612.841" y2="650.7643"/>
    <line x1="145.5167" x2="147.8888" y1="647.7304" y2="609.8071"/>
    <line x1="171.2349" x2="178.2276" y1="608.2901" y2="570.3669"/>
    <line x1="193.3969" x2="185.3825" y1="554.4391" y2="592.3624"/>
    <line x1="199.7721" x2="208.5662" y1="587.8116" y2="549.8881"/>
    <line x1="229.2501" x2="238.9048" y1="562.0238" y2="524.1003"/>
    <line x1="231.3564" x2="238.9048" y1="511.2064" y2="473.2831"/>
    <line x1="230.0436" x2="238.9048" y1="478.5923" y2="440.6691"/>
    <line x1="238.9048" x2="230.2899" y1="450.5291" y2="488.4525"/>
    <line x1="198.9692" x2="208.5662" y1="496.7956" y2="458.8721"/>
    <line x1="200.6766" x2="208.5662" y1="442.186" y2="404.2627"/>
    <line x1="200.0913" x2="208.5662" y1="408.055" y2="370.1317"/>
    <line x1="193.3969" x2="185.8809" y1="374.6825" y2="412.6058"/>
    <line x1="178.2276" x2="170.1717" y1="414.1227" y2="452.046"/>
    <line x1="178.2276" x2="168.2431" y1="449.7706" y2="487.694"/>
    <line x1="163.0583" x2="154.1097" y1="496.037" y2="533.9604"/>
    <line x1="147.8888" x2="141.669" y1="536.2358" y2="574.1592"/>
    <line x1="155.5708" x2="163.0583" y1="552.9222" y2="514.9987"/>
    <line x1="147.8888" x2="139.1165" y1="502.1047" y2="540.0281"/>
    <line x1="123.8891" x2="132.7195" y1="529.4096" y2="491.4863"/>
    <line x1="137.0908" x2="147.8888" y1="448.2537" y2="410.3304"/>
    <line x1="155.8579" x2="163.0583" y1="424.7413" y2="386.818"/>
    <line x1="156.5851" x2="163.0583" y1="386.818" y2="348.8945"/>
    <line x1="161.3033" x2="163.0583" y1="350.4114" y2="312.4882"/>
    <line x1="163.0583" x2="161.5626" y1="304.9035" y2="342.8268"/>
    <line x1="163.0583" x2="157.5351" y1="342.0683" y2="379.9918"/>
    <line x1="171.7944" x2="178.2276" y1="384.5426" y2="346.6191"/>
    <line x1="175.5699" x2="178.2276" y1="348.8945" y2="310.9713"/>
    <line x1="163.0583" x2="161.7124" y1="294.285" y2="332.2083"/>
    <line x1="146.2274" x2="147.8888" y1="321.5898" y2="283.6664"/>
    <line x1="145.1825" x2="147.8888" y1="277.5987" y2="239.6753"/>
    <line x1="146.4241" x2="147.8888" y1="245.7431" y2="207.8198"/>
    <line x1="132.7195" x2="129.9849" y1="205.5444" y2="243.4677"/>
    <line x1="129.6403" x2="132.7195" y1="250.2939" y2="212.3706"/>
    <line x1="132.7195" x2="130.9864" y1="194.9259" y2="232.8492"/>
    <line x1="147.8888" x2="145.0673" y1="232.0907" y2="270.0139"/>
    <line x1="147.8888" x2="145.9218" y1="268.4971" y2="306.4205"/>
    <line x1="147.8888" x2="147.5809" y1="313.2466" y2="351.1699"/>
    <line x1="117.0432" x2="117.5502" y1="360.2715" y2="322.3482"/>
    <line x1="117.5502" x2="114.7445" y1="336.7591" y2="374.6825"/>
    <line x1="55.8367" x2="56.8728" y1="354.9622" y2="317.039"/>
    <line x1="41.7035" x2="39.2395" y1="303.3866" y2="341.3099"/>
    <line x1="26.5342" x2="21.0749" y1="357.9961" y2="395.9195"/>
    <line x1="20.3383" x2="26.5342" y1="400.4703" y2="362.5469"/>
    <line x1="11.3649" x2="2.8231" y1="371.6487" y2="409.5719"/>
    <line x1="5.9073" x2="11.3649" y1="389.0934" y2="351.1699"/>
    <line x1="7.0665" x2="11.3649" y1="367.0978" y2="329.1744"/>
    <line x1="113.4616" x2="117.5502" y1="303.3866" y2="265.4632"/>
    <line x1="117.5502" x2="112.6295" y1="255.6031" y2="293.5266"/>
    <line x1="112.4477" x2="117.5502" y1="289.7342" y2="251.8108"/>
    <line x1="117.5502" x2="112.3592" y1="249.5354" y2="287.4587"/>
    <line x1="132.7195" x2="129.5103" y1="273.8063" y2="311.7297"/>
    <line x1="160.9967" x2="163.0583" y1="276.8401" y2="238.9169"/>
    <line x1="161.3793" x2="163.0583" y1="230.5738" y2="192.6505"/>
    <line x1="179.4926" x2="178.2276" y1="171.4133" y2="133.49"/>
    <line x1="180.0155" x2="178.2276" y1="135.7654" y2="97.8421"/>
    <line x1="178.2276" x2="179.236" y1="104.6684" y2="142.5916"/>
    <line x1="197.134" x2="193.3969" y1="138.0408" y2="100.1176"/>
    <line x1="215.958" x2="208.5662" y1="106.9438" y2="69.0203"/>
    <line x1="199.5903" x2="193.3021" y1="69.7788" y2="31.8555"/>
    <line x1="191.3118" x2="198.1357" y1="35.6479" y2="73.5711"/>
    <line x1="191.2702" x2="184.0124" y1="76.605" y2="38.6817"/>
    <line x1="170.0738" x2="162.4894" y1="37.9233" y2="0.0"/>
    <line x1="162.9635" x2="170.203" y1="27.3047" y2="65.228"/>
    <line x1="163.0583" x2="167.347" y1="75.088" y2="113.0115"/>
    <line x1="163.9844" x2="163.0583" y1="130.4562" y2="92.5328"/>
    <line x1="159.6538" x2="152.6296" y1="72.8127" y2="34.8894"/>
    <line x1="141.2727" x2="133.2883" y1="50.8172" y2="12.8939"/>
    <line x1="104.6563" x2="112.4072" y1="0.0" y2="37.9233"/>
    <line x1="77.4407" x2="68.9134" y1="37.9233" y2="0.0"/>
    <line x1="56.8728" x2="56.5349" y1="69.7788" y2="107.7022"/>
    <line x1="87.2114" x2="86.4918" y1="98.6006" y2="136.5239"/>
    <line x1="87.2114" x2="84.6768" y1="147.9009" y2="185.8243"/>
    <line x1="100.7462" x2="102.3809" y1="186.5828" y2="148.6593"/>
    <line x1="116.1837" x2="117.5502" y1="137.2824" y2="99.3591"/>
    <line x1="102.3809" x2="99.8151" y1="170.6548" y2="208.5783"/>
    <line x1="99.7771" x2="102.3809" y1="222.9891" y2="185.0659"/>
    <line x1="193.3969" x2="189.6329" y1="244.9846" y2="282.908"/>
    <line x1="217.1345" x2="223.7355" y1="298.0773" y2="260.1539"/>
    <line x1="234.0277" x2="238.9048" y1="263.9462" y2="226.023"/>
    <line x1="238.9048" x2="234.6909" y1="216.1629" y2="254.0862"/>
    <line x1="238.9048" x2="232.0812" y1="264.7048" y2="302.6281"/>
    <line x1="238.9048" x2="234.5333" y1="309.4543" y2="347.3776"/>
    <line x1="238.9048" x2="231.2799" y1="340.5514" y2="378.4748"/>
    <line x1="238.9048" x2="230.7416" y1="389.8518" y2="427.7751"/>
    <line x1="230.5408" x2="238.9048" y1="434.6013" y2="396.678"/>
    <line x1="230.6559" x2="238.9048" y1="398.9534" y2="361.0299"/>
    <line x1="238.9048" x2="230.9381" y1="365.5807" y2="403.5042"/>
    <line x1="214.573" x2="223.7355" y1="390.6103" y2="352.6868"/>
    <line x1="246.6215" x2="254.0741" y1="364.0638" y2="326.1406"/>
    <line x1="260.3786" x2="269.2434" y1="329.9329" y2="292.0096"/>
    <line x1="280.4366" x2="284.4128" y1="295.0435" y2="257.12"/>
    <line x1="281.133" x2="284.4128" y1="262.4293" y2="224.506"/>
    <line x1="273.3395" x2="269.2434" y1="207.8198" y2="169.8964"/>
    <line x1="254.0741" x2="258.22" y1="164.5871" y2="202.5106"/>
    <line x1="269.2434" x2="266.6582" y1="200.2352" y2="238.1584"/>
    <line x1="254.0741" x2="249.2677" y1="228.2984" y2="266.2216"/>
    <line x1="254.0741" x2="249.484" y1="253.3277" y2="291.2512"/>
    <line x1="254.0741" x2="247.1695" y1="297.3189" y2="335.2421"/>
    <line x1="254.0741" x2="246.5458" y1="336.0006" y2="373.9241"/>
    <line x1="269.2434" x2="260.083" y1="375.441" y2="413.3642"/>
    <line x1="260.0939" x2="269.2434" y1="417.915" y2="379.9918"/>
    <line x1="269.2434" x2="260.4483" y1="385.301" y2="423.2244"/>
    <line x1="269.2434" x2="260.3696" y1="412.6058" y2="450.5291"/>
    <line x1="269.2434" x2="261.4042" y1="439.152" y2="477.0754"/>
    <line x1="276.9541" x2="284.4128" y1="440.6691" y2="402.7457"/>
    <line x1="284.4128" x2="276.9978" y1="392.8857" y2="430.809"/>
    <line x1="292.5742" x2="299.5822" y1="417.1566" y2="379.2333"/>
    <line x1="291.046" x2="299.5822" y1="386.0595" y2="348.136"/>
    <line x1="288.6634" x2="299.5822" y1="351.9284" y2="314.0051"/>
    <line x1="307.2361" x2="314.7515" y1="301.1112" y2="263.1879"/>
    <line x1="327.2362" x2="329.9208" y1="267.7385" y2="229.8153"/>
    <line x1="329.9208" x2="326.1111" y1="235.883" y2="273.8063"/>
    <line x1="340.6317" x2="345.0903" y1="275.3233" y2="237.3999"/>
    <line x1="345.0903" x2="335.8521" y1="266.2216" y2="304.1451"/>
    <line x1="329.9208" x2="319.9252" y1="301.1112" y2="339.0345"/>
    <line x1="351.48" x2="360.2596" y1="332.9667" y2="295.0435"/>
    <line x1="369.6051" x2="375.4289" y1="300.3527" y2="262.4293"/>
    <line x1="375.4289" x2="367.5084" y1="276.8401" y2="314.7636"/>
    <line x1="375.4289" x2="367.3808" y1="308.6959" y2="346.6191"/>
    <line x1="360.2596" x2="352.9492" y1="339.7929" y2="377.7164"/>
    <line x1="352.9992" x2="360.2596" y1="375.441" y2="337.5175"/>
    <line x1="382.3666" x2="390.5982" y1="334.4837" y2="296.5604"/>
    <line x1="416.4184" x2="420.9368" y1="317.039" y2="279.1157"/>
    <line x1="436.1061" x2="435.9916" y1="260.9125" y2="298.8358"/>
    <line x1="436.1061" x2="433.0264" y1="302.6281" y2="340.5514"/>
    <line x1="436.1061" x2="432.6999" y1="353.4453" y2="391.3687"/>
    <line x1="448.5737" x2="451.2754" y1="392.8857" y2="354.9622"/>
    <line x1="448.96" x2="451.2754" y1="357.9961" y2="320.0728"/>
    <line x1="466.4449" x2="465.1767" y1="320.8313" y2="358.7546"/>
    <line x1="466.4449" x2="464.9388" y1="360.2715" y2="398.1949"/>
    <line x1="448.2195" x2="451.2754" y1="385.301" y2="347.3776"/>
    <line x1="452.821" x2="451.2754" y1="304.9035" y2="266.9801"/>
    <line x1="451.2754" x2="456.335" y1="248.0185" y2="285.9419"/>
    <line x1="481.6142" x2="482.7862" y1="275.3233" y2="313.2466"/>
    <line x1="496.7834" x2="496.1302" y1="333.7252" y2="371.6487"/>
    <line x1="496.125" x2="496.7834" y1="380.7502" y2="342.8268"/>
    <line x1="527.1223" x2="527.0255" y1="367.0978" y2="405.0211"/>
    <line x1="526.4472" x2="527.1223" y1="414.1227" y2="376.1994"/>
    <line x1="527.1223" x2="526.3353" y1="383.0256" y2="420.949"/>
    <line x1="511.9528" x2="508.3191" y1="432.3259" y2="470.2493"/>
    <line x1="496.7834" x2="492.7433" y1="461.9061" y2="499.8294"/>
    <line x1="492.754" x2="496.7834" y1="496.037" y2="458.1138"/>
    <line x1="478.7757" x2="481.6142" y1="459.6306" y2="421.7073"/>
    <line x1="481.6142" x2="478.2068" y1="427.7751" y2="465.6985"/>
    <line x1="477.7366" x2="481.6142" y1="469.4908" y2="431.5674"/>
    <line x1="481.6142" x2="476.9737" y1="437.6351" y2="475.5586"/>
    <line x1="466.4449" x2="460.9487" y1="467.9739" y2="505.8972"/>
    <line x1="451.2754" x2="447.7681" y1="504.3802" y2="542.3035"/>
    <line x1="447.6785" x2="451.2754" y1="538.5112" y2="500.5879"/>
    <line x1="430.444" x2="436.1061" y1="505.1387" y2="467.2154"/>
    <line x1="436.1061" x2="430.7175" y1="470.2493" y2="508.1726"/>
    <line x1="415.5188" x2="420.9368" y1="502.8633" y2="464.9401"/>
    <line x1="420.9368" x2="414.6883" y1="449.0121" y2="486.9355"/>
    <line x1="405.7675" x2="401.0919" y1="474.8" y2="512.7233"/>
    <line x1="405.7675" x2="402.4623" y1="505.8972" y2="543.8204"/>
    <line x1="402.5533" x2="405.7675" y1="558.2314" y2="520.308"/>
    <line x1="390.5982" x2="386.8618" y1="524.8588" y2="562.7822"/>
    <line x1="386.8442" x2="390.5982" y1="563.5407" y2="525.6173"/>
    <line x1="387.2051" x2="390.5982" y1="521.0665" y2="483.1432"/>
    <line x1="383.3422" x2="390.5982" y1="485.4186" y2="447.4952"/>
    <line x1="386.3142" x2="390.5982" y1="428.5336" y2="390.6103"/>
    <line x1="405.7675" x2="402.4769" y1="388.3349" y2="426.2581"/>
    <line x1="401.985" x2="405.7675" y1="404.2627" y2="366.3392"/>
    <line x1="375.4289" x2="369.0775" y1="354.2038" y2="392.1272"/>
    <line x1="375.4289" x2="369.6058" y1="405.0211" y2="442.9445"/>
    <line x1="360.2596" x2="352.4358" y1="441.4274" y2="479.3509"/>
    <line x1="360.2596" x2="354.6597" y1="480.1094" y2="518.0326"/>
    <line x1="360.2596" x2="356.021" y1="533.2019" y2="571.1254"/>
    <line x1="360.2596" x2="356.0286" y1="562.7822" y2="600.7055"/>
    <line x1="360.2596" x2="358.0973" y1="585.5362" y2="623.4594"/>
    <line x1="374.9458" x2="375.4289" y1="619.6671" y2="581.7439"/>
    <line x1="371.4473" x2="375.4289" y1="576.4346" y2="538.5112"/>
    <line x1="375.4289" x2="371.3507" y1="531.685" y2="569.6084"/>
    <line x1="371.6699" x2="375.4289" y1="551.4051" y2="513.4818"/>
    <line x1="390.5982" x2="386.9836" y1="514.2403" y2="552.1636"/>
    <line x1="387.7134" x2="390.5982" y1="534.7188" y2="496.7956"/>
    <line x1="420.9368" x2="418.0225" y1="533.9604" y2="571.8838"/>
    <line x1="405.7675" x2="403.992" y1="571.1254" y2="609.0487"/>
    <line x1="404.1988" x2="405.7675" y1="614.3579" y2="576.4346"/>
    <line x1="405.7675" x2="405.2836" y1="594.6378" y2="632.5611"/>
    <line x1="405.7675" x2="407.0237" y1="617.3917" y2="655.3151"/>
    <line x1="421.6427" x2="420.9368" y1="651.5228" y2="613.5994"/>
    <line x1="434.3099" x2="436.1061" y1="620.4256" y2="582.5023"/>
    <line x1="448.0602" x2="451.2754" y1="591.6039" y2="553.6807"/>
    <line x1="451.2754" x2="447.9918" y1="560.5068" y2="598.4301"/>
    <line x1="461.2339" x2="466.4449" y1="599.947" y2="562.0238"/>
    <line x1="475.6399" x2="481.6142" y1="565.0576" y2="527.1342"/>
    <line x1="481.6142" x2="475.1048" y1="551.4051" y2="589.3285"/>
    <line x1="474.2572" x2="481.6142" y1="597.6716" y2="559.7484"/>
    <line x1="504.8192" x2="511.9528" y1="555.9561" y2="518.0326"/>
    <line x1="522.345" x2="527.1223" y1="498.3124" y2="460.3892"/>
    <line x1="542.0524" x2="542.2916" y1="447.4952" y2="409.5719"/>
    <line x1="543.862" x2="542.2916" y1="406.538" y2="368.6148"/>
    <line x1="541.8357" x2="542.2916" y1="370.1317" y2="332.2083"/>
    <line x1="542.9298" x2="542.2916" y1="322.3482" y2="284.425"/>
    <line x1="547.2452" x2="542.2916" y1="285.1834" y2="247.26"/>
    <line x1="542.2916" x2="547.4837" y1="241.1923" y2="279.1157"/>
    <line x1="533.9067" x2="527.1223" y1="260.1539" y2="222.2306"/>
    <line x1="518.5956" x2="511.9528" y1="231.3322" y2="193.409"/>
    <line x1="517.5806" x2="511.9528" y1="191.892" y2="153.9686"/>
    <line x1="499.5264" x2="496.7834" y1="165.3456" y2="127.4223"/>
    <line x1="500.0221" x2="496.7834" y1="141.8332" y2="103.9099"/>
    <line x1="500.8463" x2="496.7834" y1="103.1514" y2="65.228"/>
    <line x1="496.7051" x2="495.2725" y1="79.6389" y2="41.7156"/>
    <line x1="506.3828" x2="508.4264" y1="43.2325" y2="81.1559"/>
    <line x1="511.9528" x2="516.1118" y1="83.4312" y2="121.3546"/>
    <line x1="527.1223" x2="531.7542" y1="116.0453" y2="153.9686"/>
    <line x1="557.4609" x2="563.2997" y1="152.4517" y2="190.3751"/>
    <line x1="557.4609" x2="562.5662" y1="196.4428" y2="234.3661"/>
    <line x1="562.0961" x2="557.4609" y1="239.6753" y2="201.7521"/>
    <line x1="576.6335" x2="572.6302" y1="199.4767" y2="161.5532"/>
    <line x1="587.2423" x2="587.7995" y1="141.0747" y2="103.1514"/>
    <line x1="587.2469" x2="587.7995" y1="117.5623" y2="79.6389"/>
    <line x1="587.7995" x2="587.7097" y1="86.465" y2="124.3885"/>
    <line x1="602.9688" x2="600.0839" y1="113.77" y2="151.6932"/>
    <line x1="600.0863" x2="602.9688" y1="150.9347" y2="113.0115"/>
    <line x1="615.5291" x2="618.1381" y1="115.2869" y2="77.3634"/>
    <line x1="619.8261" x2="625.4384" y1="67.5034" y2="29.5801"/>
    <line x1="623.8267" x2="619.0501" y1="18.9616" y2="56.8849"/>
    <line x1="618.1381" x2="614.4119" y1="61.4357" y2="99.3591"/>
    <line x1="597.4865" x2="602.9688" y1="90.2574" y2="52.3341"/>
    <line x1="603.2801" x2="608.8469" y1="59.9187" y2="21.9955"/>
    <line x1="624.3955" x2="619.9174" y1="8.3431" y2="46.2664"/>
    <line x1="635.101" x2="639.8491" y1="62.9526" y2="25.0293"/>
    <line x1="678.8154" x2="674.7086" y1="81.1559" y2="119.0792"/>
    <line x1="663.6462" x2="659.4966" y1="115.2869" y2="153.2101"/>
    <line x1="663.6462" x2="658.8284" y1="138.7993" y2="176.7225"/>
    <line x1="663.6462" x2="658.2576" y1="172.9302" y2="210.8537"/>
    <line x1="678.8154" x2="676.3077" y1="216.9214" y2="254.8446"/>
    <line x1="676.604" x2="678.8154" y1="256.3616" y2="218.4383"/>
    <line x1="678.8154" x2="676.914" y1="219.9553" y2="257.8786"/>
    <line x1="678.8154" x2="679.7684" y1="273.0478" y2="310.9713"/>
    <line x1="678.8154" x2="678.6841" y1="298.0773" y2="336.0006"/>
    <line x1="663.6462" x2="664.1415" y1="331.4498" y2="369.3733"/>
    <line x1="663.2697" x2="663.6462" y1="361.0299" y2="323.1067"/>
    <line x1="646.5573" x2="648.4769" y1="326.1406" y2="288.2173"/>
    <line x1="633.3074" x2="631.9105" y1="290.4926" y2="328.4159"/>
    <line x1="645.7326" x2="648.4769" y1="345.8606" y2="307.9374"/>
    <line x1="619.079" x2="618.1381" y1="297.3189" y2="259.3954"/>
    <line x1="618.1381" x2="619.4299" y1="243.4677" y2="281.3911"/>
    <line x1="634.2698" x2="633.3074" y1="278.3572" y2="240.4338"/>
    <line x1="632.7171" x2="633.3074" y1="235.1246" y2="197.2013"/>
    <line x1="633.3074" x2="631.9948" y1="190.3751" y2="228.2984"/>
    <line x1="633.3074" x2="634.3375" y1="231.3322" y2="269.2555"/>
    <line x1="604.0991" x2="602.9688" y1="236.6415" y2="198.7182"/>
    <line x1="605.0878" x2="602.9688" y1="206.3029" y2="168.3794"/>
    <line x1="601.9942" x2="602.9688" y1="178.9979" y2="141.0747"/>
    <line x1="618.1381" x2="617.1735" y1="150.9347" y2="188.8582"/>
    <line x1="617.631" x2="618.1381" y1="205.5444" y2="167.621"/>
    <line x1="587.7995" x2="590.3759" y1="207.0613" y2="244.9846"/>
    <line x1="590.8319" x2="587.7995" y1="259.3954" y2="221.4722"/>
    <line x1="572.6302" x2="576.6189" y1="248.7769" y2="286.7004"/>
    <line x1="587.7995" x2="588.014" y1="341.3099" y2="379.2333"/>
    <line x1="603.1312" x2="602.9688" y1="388.3349" y2="350.4114"/>
    <line x1="602.9688" x2="604.4489" y1="361.7884" y2="399.7119"/>
    <line x1="621.2174" x2="618.1381" y1="401.2288" y2="363.3053"/>
    <line x1="633.3074" x2="636.6206" y1="364.0638" y2="401.9873"/>
    <line x1="633.3074" x2="637.6273" y1="408.055" y2="445.9783"/>
    <line x1="633.3074" x2="635.9005" y1="444.4614" y2="482.3846"/>
    <line x1="633.3074" x2="631.5916" y1="480.8677" y2="518.7911"/>
    <line x1="633.3074" x2="632.3042" y1="530.168" y2="568.0915"/>
    <line x1="633.3074" x2="634.6376" y1="555.1976" y2="593.1208"/>
    <line x1="648.4769" x2="649.2084" y1="602.2224" y2="640.1458"/>
    <line x1="678.8154" x2="672.6253" y1="628.7688" y2="666.6921"/>
    <line x1="688.3422" x2="693.9848" y1="668.2091" y2="630.2857"/>
    <line x1="720.343" x2="724.3236" y1="633.3195" y2="595.3962"/>
    <line x1="710.5583" x2="709.1543" y1="590.087" y2="552.1636"/>
    <line x1="714.7732" x2="709.1543" y1="546.8543" y2="508.931"/>
    <line x1="700.6491" x2="693.9848" y1="514.2403" y2="476.3169"/>
    <line x1="700.32" x2="693.9848" y1="476.3169" y2="438.3936"/>
    <line x1="693.9848" x2="699.7837" y1="446.7368" y2="484.6601"/>
    <line x1="709.1543" x2="715.8445" y1="490.7278" y2="528.6511"/>
    <line x1="715.8651" x2="709.1543" y1="531.685" y2="493.7617"/>
    <line x1="702.1066" x2="693.9848" y1="463.4231" y2="425.4997"/>
    <line x1="693.9848" x2="702.193" y1="417.915" y2="455.8383"/>
    <line x1="669.5554" x2="663.6462" y1="446.7368" y2="408.8134"/>
    <line x1="663.6462" x2="669.2665" y1="434.6013" y2="472.5246"/>
    <line x1="648.4769" x2="648.6749" y1="499.8294" y2="537.7527"/>
    <line x1="648.4692" x2="648.4769" y1="540.7866" y2="502.8633"/>
    <line x1="648.4769" x2="647.8925" y1="519.5495" y2="557.473"/>
    <line x1="587.7995" x2="590.0142" y1="587.8116" y2="625.7348"/>
    <line x1="602.9688" x2="602.4586" y1="624.9764" y2="662.8997"/>
    <line x1="616.2184" x2="618.1381" y1="662.1414" y2="624.218"/>
    <line x1="572.6302" x2="572.0048" y1="619.6671" y2="657.5906"/>
    <line x1="555.6002" x2="557.4609" y1="646.2135" y2="608.2901"/>
    <line x1="553.7834" x2="557.4609" y1="606.7733" y2="568.85"/>
    <line x1="542.2916" x2="537.0655" y1="578.71" y2="616.6333"/>
    <line x1="520.4582" x2="527.1223" y1="610.5656" y2="572.6423"/>
    <line x1="511.9528" x2="504.7844" y1="573.4007" y2="611.324"/>
    <line x1="504.6434" x2="511.9528" y1="609.8071" y2="571.8838"/>
    <line x1="511.9528" x2="504.1768" y1="565.8161" y2="603.7393"/>
    <line x1="496.7834" x2="491.5497" y1="597.6716" y2="635.5949"/>
    <line x1="491.7952" x2="496.7834" y1="650.0059" y2="612.0825"/>
    <line x1="527.1223" x2="521.1344" y1="599.1886" y2="637.1118"/>
    <line x1="536.8243" x2="542.2916" y1="596.1547" y2="558.2314"/>
    <line x1="535.8856" x2="542.2916" y1="548.3712" y2="510.4479"/>
    <line x1="557.4609" x2="550.8449" y1="505.1387" y2="543.0619"/>
    <line x1="564.6287" x2="572.6302" y1="527.1342" y2="489.2109"/>
    <line x1="566.8814" x2="572.6302" y1="500.5879" y2="462.6646"/>
    <line x1="587.4871" x2="587.7995" y1="464.9401" y2="427.0167"/>
    <line x1="560.237" x2="557.4609" y1="432.3259" y2="394.4026"/>
    <line x1="511.9528" x2="509.3189" y1="401.2288" y2="439.152"/>
    <line x1="466.4449" x2="460.5734" y1="436.8766" y2="474.8"/>
    <line x1="445.3776" x2="451.2754" y1="467.9739" y2="430.0505"/>
    <line x1="345.0903" x2="338.7415" y1="453.5629" y2="491.4863"/>
    <line x1="329.9208" x2="322.2978" y1="489.9694" y2="527.8926"/>
    <line x1="314.7515" x2="305.8013" y1="522.5834" y2="560.5068"/>
    <line x1="284.4128" x2="275.6486" y1="567.333" y2="605.2563"/>
    <line x1="284.4128" x2="278.8252" y1="601.464" y2="639.3872"/>
    <line x1="254.0741" x2="255.1596" y1="628.0103" y2="665.9337"/>
    <line x1="216.5849" x2="223.7355" y1="615.8748" y2="577.9515"/>
    <line x1="228.3566" x2="238.9048" y1="580.2269" y2="542.3035"/>
    <line x1="238.9048" x2="228.6497" y1="550.6466" y2="588.57"/>
    <line x1="208.5662" x2="202.5067" y1="586.2947" y2="624.218"/>
    <line x1="261.2185" x2="269.2434" y1="602.2224" y2="564.2992"/>
    <line x1="258.5633" x2="269.2434" y1="567.333" y2="529.4096"/>
    <line x1="309.0748" x2="314.7515" y1="499.071" y2="461.1475"/>
    <line x1="325.4432" x2="329.9208" y1="473.2831" y2="435.3597"/>
    <line x1="329.9208" x2="325.8027" y1="442.9445" y2="480.8677"/>
    <line x1="311.8473" x2="314.7515" y1="481.6263" y2="443.7028"/>
    <line x1="337.5469" x2="345.0903" y1="437.6351" y2="399.7119"/>
    <line x1="345.0903" x2="337.5618" y1="397.4365" y2="435.3597"/>
    <line x1="322.5022" x2="329.9208" y1="411.8473" y2="373.9241"/>
    <line x1="345.0903" x2="338.1746" y1="364.8223" y2="402.7457"/>
    <line x1="276.001" x2="284.4128" y1="383.7841" y2="345.8606"/>
    <line x1="351.3594" x2="360.2596" y1="312.4882" y2="274.5648"/>
    <line x1="364.4489" x2="360.2596" y1="209.3367" y2="171.4133"/>
    <line x1="350.9418" x2="345.0903" y1="178.2395" y2="140.3162"/>
    <line x1="360.2596" x2="366.2056" y1="150.1763" y2="188.0997"/>
    <line x1="365.6618" x2="360.2596" y1="195.6844" y2="157.7609"/>
    <line x1="390.5982" x2="397.5686" y1="154.7271" y2="192.6505"/>
    <line x1="405.7675" x2="411.6008" y1="185.8243" y2="223.7476"/>
    <line x1="427.6604" x2="420.9368" y1="218.4383" y2="180.5149"/>
    <line x1="436.1061" x2="443.879" y1="178.9979" y2="216.9214"/>
    <line x1="451.2754" x2="459.8231" y1="210.0952" y2="248.0185"/>
    <line x1="474.9471" x2="466.4449" y1="244.2261" y2="206.3029"/>
    <line x1="466.4449" x2="475.3824" y1="199.4767" y2="237.3999"/>
    <line x1="466.4449" x2="474.4122" y1="226.7814" y2="264.7048"/>
    <line x1="511.9528" x2="515.7375" y1="244.2261" y2="282.1496"/>
    <line x1="516.8588" x2="511.9528" y1="273.0478" y2="235.1246"/>
    <line x1="518.2618" x2="511.9528" y1="238.9169" y2="200.9936"/>
    <line x1="503.5767" x2="496.7834" y1="200.2352" y2="162.3117"/>
    <line x1="484.6649" x2="481.6142" y1="161.5532" y2="123.63"/>
    <line x1="481.6142" x2="484.8116" y1="110.7361" y2="148.6593"/>
    <line x1="481.6142" x2="488.4355" y1="165.3456" y2="203.269"/>
    <line x1="475.4527" x2="466.4449" y1="216.1629" y2="178.2395"/>
    <line x1="457.3505" x2="451.2754" y1="177.481" y2="139.5578"/>
    <line x1="441.696" x2="436.1061" y1="125.9054" y2="87.9819"/>
    <line x1="441.0326" x2="439.8984" y1="85.7065" y2="47.7833"/>
    <line x1="436.1061" x2="439.4366" y1="58.4018" y2="96.3253"/>
    <line x1="441.4548" x2="436.1061" y1="110.7361" y2="72.8127"/>
    <line x1="429.1503" x2="432.1241" y1="66.7449" y2="28.8217"/>
    <line x1="447.2935" x2="446.033" y1="31.0971" y2="69.0203"/>
    <line x1="420.9368" x2="427.4048" y1="78.8804" y2="116.8038"/>
    <line x1="412.8361" x2="405.7675" y1="126.6639" y2="88.7404"/>
    <line x1="414.9584" x2="416.2001" y1="77.3634" y2="39.4402"/>
    <line x1="404.4681" x2="410.8871" y1="50.0587" y2="12.1354"/>
    <line x1="379.7915" x2="378.5298" y1="37.9233" y2="75.8465"/>
    <line x1="376.1097" x2="376.7621" y1="78.1219" y2="40.1986"/>
    <line x1="348.273" x2="354.097" y1="47.0248" y2="9.1016"/>
    <line x1="345.0903" x2="344.8447" y1="50.8172" y2="88.7404"/>
    <line x1="345.0903" x2="348.223" y1="72.0542" y2="109.9776"/>
    <line x1="320.8035" x2="314.7515" y1="131.2146" y2="93.2914"/>
    <line x1="301.4689" x2="299.5822" y1="100.876" y2="62.9526"/>
    <line x1="305.4634" x2="308.6838" y1="61.4357" y2="23.5124"/>
    <line x1="293.4196" x2="289.5121" y1="4.5508" y2="42.474"/>
    <line x1="291.0493" x2="290.3329" y1="46.2664" y2="84.1896"/>
    <line x1="279.7713" x2="280.6205" y1="70.5372" y2="32.614"/>
    <line x1="269.5989" x2="272.5325" y1="44.7494" y2="82.6727"/>
    <line x1="269.2434" x2="274.9548" y1="81.9142" y2="119.8377"/>
    <line x1="284.4128" x2="288.8403" y1="116.8038" y2="154.7271"/>
    <line x1="284.4128" x2="290.1702" y1="142.5916" y2="180.5149"/>
    <line x1="304.48" x2="299.5822" y1="157.7609" y2="119.8377"/>
    <line x1="299.5822" x2="304.2968" y1="114.5284" y2="152.4517"/>
    <line x1="314.7515" x2="321.6827" y1="159.2779" y2="197.2013"/>
    <line x1="321.6334" x2="314.7515" y1="198.7182" y2="160.7948"/>
    <line x1="299.5822" x2="299.7422" y1="209.3367" y2="247.26"/>
    <line x1="239.9449" x2="238.9048" y1="213.1291" y2="175.2056"/>
    <line x1="243.4928" x2="238.9048" y1="158.5194" y2="120.5961"/>
    <line x1="238.9048" x2="243.5379" y1="118.3207" y2="156.244"/>
    <line x1="212.1346" x2="208.5662" y1="162.3117" y2="124.3885"/>
    <line x1="208.5662" x2="211.6344" y1="149.4178" y2="187.3413"/>
    <line x1="208.5662" x2="205.3982" y1="215.4045" y2="253.3277"/>
    <line x1="193.3969" x2="187.6058" y1="349.653" y2="387.5764"/>
    <line x1="193.3969" x2="186.4221" y1="384.5426" y2="422.4658"/>
    <line x1="193.3969" x2="185.9198" y1="416.3981" y2="454.3214"/>
    <line x1="186.4088" x2="193.3969" y1="445.2198" y2="407.2965"/>
    <line x1="178.2276" x2="171.6259" y1="400.4703" y2="438.3936"/>
    <line x1="193.3969" x2="184.671" y1="483.9017" y2="521.8249"/>
    <line x1="87.2114" x2="78.3505" y1="548.3712" y2="586.2947"/>
    <line x1="78.4727" x2="87.2114" y1="587.0531" y2="549.1297"/>
    <line x1="41.7035" x2="35.1462" y1="584.7777" y2="622.7011"/>
    <line x1="41.7035" x2="43.9574" y1="631.0441" y2="668.9675"/>
    <line x1="75.6442" x2="72.0421" y1="664.4166" y2="626.4934"/>
    <line x1="72.7959" x2="72.0421" y1="644.6966" y2="606.7733"/>
    <line x1="87.2114" x2="89.2685" y1="614.3579" y2="652.2813"/>
    <line x1="22.4937" x2="26.5342" y1="640.9041" y2="602.981"/>
    <line x1="15.0289" x2="26.5342" y1="550.6466" y2="512.7233"/>
    <line x1="11.3649" x2="1.5004" y1="511.9649" y2="549.8881"/>
    <line x1="1.9954" x2="11.3649" y1="493.0033" y2="455.0798"/>
    <line x1="77.298" x2="87.2114" y1="483.9017" y2="445.9783"/>
    <line x1="329.9208" x2="322.5243" y1="584.0193" y2="621.9425"/>
    <line x1="329.9208" x2="326.0759" y1="621.184" y2="659.1074"/>
    <line x1="375.9964" x2="375.4289" y1="656.0736" y2="618.1502"/>
    <line x1="420.9368" x2="424.1199" y1="634.078" y2="672.0013"/>
    <line x1="438.0381" x2="436.1061" y1="665.1752" y2="627.2518"/>
    <line x1="436.1061" x2="436.6214" y1="615.8748" y2="653.7982"/>
    <line x1="451.1843" x2="451.2754" y1="653.0397" y2="615.1163"/>
    <line x1="503.6884" x2="511.9528" y1="579.4685" y2="541.545"/>
    <line x1="580.0449" x2="587.7995" y1="536.9942" y2="499.071"/>
    <line x1="597.5736" x2="602.9688" y1="509.6895" y2="471.7662"/>
    <line x1="601.826" x2="602.9688" y1="489.2109" y2="451.2875"/>
    <line x1="618.1381" x2="619.3066" y1="445.2198" y2="483.1432"/>
    <line x1="649.3118" x2="648.4769" y1="381.5087" y2="343.5853"/>
    <line x1="711.0013" x2="709.1543" y1="325.3821" y2="287.4587"/>
    <line x1="708.9969" x2="709.1543" y1="279.8741" y2="241.9507"/>
    <line x1="704.8929" x2="709.1543" y1="249.5354" y2="211.6121"/>
    <line x1="718.287" x2="724.3236" y1="214.646" y2="176.7225"/>
    <line x1="739.4929" x2="734.5133" y1="187.3413" y2="225.2645"/>
    <line x1="724.3236" x2="721.1724" y1="223.7476" y2="261.6709"/>
    <line x1="722.7316" x2="724.3236" y1="272.2894" y2="234.3661"/>
    <line x1="724.3236" x2="723.2516" y1="238.1584" y2="276.0818"/>
    <line x1="724.3236" x2="726.8379" y1="278.3572" y2="316.2805"/>
    <line x1="724.3236" x2="726.8435" y1="315.522" y2="353.4453"/>
    <line x1="727.1936" x2="724.3236" y1="348.136" y2="310.2128"/>
    <line x1="711.2663" x2="709.1543" y1="307.9374" y2="270.0139"/>
    <line x1="693.0947" x2="693.9848" y1="265.4632" y2="227.5399"/>
    <line x1="673.8718" x2="678.8154" y1="173.6887" y2="135.7654"/>
    <line x1="706.0681" x2="709.1543" y1="113.77" y2="75.8465"/>
    <line x1="720.2189" x2="724.3236" y1="92.5328" y2="54.6095"/>
    <line x1="745.7893" x2="751.5335" y1="56.1264" y2="18.2032"/>
    <line x1="770.9703" x2="763.5456" y1="37.1648" y2="75.088"/>
    <line x1="754.6622" x2="750.6618" y1="68.2619" y2="106.1853"/>
    <line x1="750.6789" x2="754.6622" y1="104.6684" y2="66.7449"/>
    <line x1="785.0008" x2="780.0326" y1="65.9865" y2="103.9099"/>
    <line x1="785.0008" x2="777.8637" y1="96.3253" y2="134.2485"/>
    <line x1="778.7873" x2="785.0008" y1="122.1131" y2="84.1896"/>
    <line x1="786.3224" x2="792.5854" y1="89.499" y2="51.5756"/>
    <line x1="790.1605" x2="795.3349" y1="49.3002" y2="11.377"/>
    <line x1="803.3936" x2="798.0044" y1="16.6862" y2="54.6095"/>
    <line x1="800.1701" x2="794.9605" y1="59.9187" y2="97.8421"/>
    <line x1="810.2364" x2="815.3394" y1="102.393" y2="64.4695"/>
    <line x1="823.3206" x2="827.6645" y1="62.1941" y2="24.2709"/>
    <line x1="818.8473" x2="815.4989" y1="6.8262" y2="44.7494"/>
    <line x1="785.0008" x2="778.8324" y1="53.0926" y2="91.0159"/>
    <line x1="769.8315" x2="762.5738" y1="94.0499" y2="131.9731"/>
    <line x1="754.6622" x2="748.6549" y1="141.8332" y2="179.7564"/>
    <line x1="748.5716" x2="754.6622" y1="194.1674" y2="156.244"/>
    <line x1="777.3141" x2="785.0008" y1="160.7948" y2="122.8715"/>
    <line x1="800.1701" x2="793.0673" y1="117.5623" y2="155.4855"/>
    <line x1="793.1784" x2="800.1701" y1="166.104" y2="128.1808"/>
    <line x1="800.1701" x2="793.2491" y1="129.6977" y2="167.621"/>
    <line x1="800.1701" x2="799.7331" y1="184.3074" y2="222.2306"/>
    <line x1="784.4647" x2="785.0008" y1="227.5399" y2="189.6167"/>
    <line x1="754.6622" x2="751.624" y1="203.269" y2="241.1923"/>
    <line x1="785.0008" x2="786.6892" y1="263.9462" y2="301.8697"/>
    <line x1="786.8116" x2="785.0008" y1="305.662" y2="267.7385"/>
    <line x1="785.0008" x2="787.931" y1="282.1496" y2="320.0728"/>
    <line x1="785.0008" x2="789.521" y1="329.9329" y2="367.8563"/>
    <line x1="785.0008" x2="788.864" y1="358.7546" y2="396.678"/>
    <line x1="800.1701" x2="803.8726" y1="386.0595" y2="423.9827"/>
    <line x1="800.1701" x2="802.0875" y1="426.2581" y2="464.1816"/>
    <line x1="818.4215" x2="815.3394" y1="461.9061" y2="423.9827"/>
    <line x1="815.3394" x2="819.2765" y1="413.3642" y2="451.2875"/>
    <line x1="819.4773" x2="815.3394" y1="449.7706" y2="411.8473"/>
    <line x1="830.5088" x2="835.6403" y1="429.292" y2="467.2154"/>
    <line x1="876.0168" x2="883.9791" y1="475.5586" y2="513.4818"/>
    <line x1="899.2808" x2="891.1861" y1="524.8587" y2="486.9355"/>
    <line x1="897.4581" x2="891.1861" y1="480.1094" y2="442.186"/>
    <line x1="876.0168" x2="882.2725" y1="439.9105" y2="477.834"/>
    <line x1="850.8913" x2="845.6782" y1="427.0167" y2="389.0934"/>
    <line x1="845.6782" x2="850.8924" y1="383.7841" y2="421.7073"/>
    <line x1="850.8717" x2="845.6782" y1="420.1904" y2="382.2672"/>
    <line x1="845.6782" x2="850.8552" y1="381.5087" y2="419.432"/>
    <line x1="804.2248" x2="800.1701" y1="383.0256" y2="345.1022"/>
    <line x1="817.469" x2="815.3394" y1="349.653" y2="311.7297"/>
    <line x1="818.5511" x2="815.3394" y1="310.2128" y2="272.2894"/>
    <line x1="817.5351" x2="815.3394" y1="280.6327" y2="242.7092"/>
    <line x1="815.3394" x2="817.594" y1="246.5015" y2="284.425"/>
    <line x1="815.3394" x2="818.1664" y1="289.7342" y2="327.6575"/>
    <line x1="833.2719" x2="830.5088" y1="314.0051" y2="276.0818"/>
    <line x1="834.6464" x2="830.5088" y1="288.2173" y2="250.2939"/>
    <line x1="800.1701" x2="801.6552" y1="256.3616" y2="294.285"/>
    <line x1="845.6782" x2="845.4726" y1="316.2805" y2="354.2038"/>
    <line x1="890.5242" x2="891.1861" y1="355.7207" y2="317.7974"/>
    <line x1="891.1861" x2="889.9444" y1="306.4205" y2="344.3437"/>
    <line x1="864.5653" x2="860.8474" y1="263.1879" y2="225.2645"/>
    <line x1="875.5618" x2="876.0168" y1="229.8153" y2="191.892"/>
    <line x1="885.6701" x2="891.1861" y1="183.5489" y2="145.6255"/>
    <line x1="876.0168" x2="869.7599" y1="137.2824" y2="175.2056"/>
    <line x1="876.0168" x2="873.8866" y1="173.6887" y2="211.6121"/>
    <line x1="860.8474" x2="862.0584" y1="204.0275" y2="241.9507"/>
    <line x1="844.1289" x2="845.6782" y1="219.9553" y2="182.032"/>
    <line x1="853.1787" x2="860.8474" y1="172.1718" y2="134.2485"/>
    <line x1="867.4586" x2="876.0168" y1="125.1469" y2="87.2235"/>
    <line x1="869.4625" x2="876.0168" y1="100.1176" y2="62.1941"/>
    <line x1="887.3768" x2="886.8249" y1="64.4695" y2="26.5463"/>
    <line x1="873.338" x2="871.0868" y1="38.6817" y2="0.7585"/>
    <line x1="851.8407" x2="848.4378" y1="45.5079" y2="83.4312"/>
    <line x1="830.5088" x2="822.6994" y1="89.499" y2="127.4223"/>
    <line x1="830.5088" x2="823.0462" y1="125.1469" y2="163.0702"/>
    <line x1="824.9176" x2="830.5088" y1="181.2733" y2="143.3501"/>
    <line x1="836.7274" x2="845.6782" y1="144.867" y2="106.9438"/>
    <line x1="840.9061" x2="845.6782" y1="101.6345" y2="63.7111"/>
    <line x1="815.3394" x2="809.4547" y1="76.605" y2="114.5284"/>
    <line x1="815.3394" x2="808.2738" y1="102.393" y2="140.3162"/>
    <line x1="808.0352" x2="815.3394" y1="135.007" y2="97.0836"/>
    <line x1="860.8474" x2="851.3128" y1="109.9776" y2="147.9009"/>
    <line x1="860.8474" x2="855.9411" y1="153.2101" y2="191.1336"/>
    <line x1="856.8636" x2="860.8474" y1="196.4428" y2="158.5194"/>
    <line x1="891.1861" x2="888.5843" y1="166.8625" y2="204.786"/>
    <line x1="890.0448" x2="891.1861" y1="217.6799" y2="179.7564"/>
    <line x1="724.3236" x2="727.3369" y1="295.802" y2="333.7252"/>
    <line x1="709.1543" x2="713.1433" y1="370.8902" y2="408.8134"/>
    <line x1="713.2903" x2="709.1543" y1="410.3304" y2="372.4071"/>
    <line x1="739.4929" x2="744.439" y1="398.9534" y2="436.8766"/>
    <line x1="754.6622" x2="757.1048" y1="422.4658" y2="460.3892"/>
    <line x1="769.8315" x2="774.4808" y1="474.0416" y2="511.9649"/>
    <line x1="769.8315" x2="770.732" y1="526.3757" y2="564.2992"/>
    <line x1="769.9263" x2="769.8315" y1="572.6423" y2="534.7188"/>
    <line x1="759.5037" x2="754.6622" y1="526.3757" y2="488.4525"/>
    <line x1="786.9173" x2="785.0008" y1="493.7617" y2="455.8383"/>
    <line x1="785.0008" x2="787.0193" y1="456.5967" y2="494.5201"/>
    <line x1="800.1701" x2="802.0713" y1="527.8926" y2="565.8161"/>
    <line x1="815.3394" x2="816.0257" y1="563.5407" y2="601.464"/>
    <line x1="815.5404" x2="815.3394" y1="607.5317" y2="569.6084"/>
    <line x1="815.3394" x2="816.6477" y1="555.9561" y2="593.8793"/>
    <line x1="815.3394" x2="813.1181" y1="589.3285" y2="627.2518"/>
    <line x1="797.0598" x2="800.1701" y1="626.4934" y2="588.57"/>
    <line x1="800.1701" x2="797.6887" y1="583.2608" y2="621.184"/>
    <line x1="769.8315" x2="764.3651" y1="618.9086" y2="656.832"/>
    <line x1="748.8758" x2="754.6622" y1="659.866" y2="621.9425"/>
    <line x1="754.6622" x2="749.1273" y1="632.5611" y2="670.4845"/>
    <line x1="718.6779" x2="724.3236" y1="669.726" y2="631.8026"/>
    <line x1="734.5213" x2="739.4929" y1="631.0441" y2="593.1208"/>
    <line x1="739.4929" x2="733.7595" y1="604.4978" y2="642.4212"/>
    <line x1="722.2078" x2="724.3236" y1="615.1163" y2="577.1931"/>
    <line x1="738.8921" x2="739.4929" y1="580.9854" y2="543.0619"/>
    <line x1="754.6622" x2="752.2368" y1="566.5746" y2="604.4978"/>
    <line x1="769.8315" x2="765.9875" y1="592.3624" y2="630.2857"/>
    <line x1="829.498" x2="830.5088" y1="628.7688" y2="590.8454"/>
    <line x1="834.4237" x2="830.5088" y1="584.0193" y2="546.0958"/>
    <line x1="835.8718" x2="830.5088" y1="561.2653" y2="523.3419"/>
    <line x1="860.8474" x2="862.7788" y1="545.3373" y2="583.2608"/>
    <line x1="876.0168" x2="872.3119" y1="596.1547" y2="634.078"/>
    <line x1="860.8474" x2="853.5274" y1="633.3195" y2="671.2429"/>
    <line x1="845.0318" x2="845.6782" y1="629.5272" y2="591.6039"/>
    <line x1="876.4061" x2="876.0168" y1="596.9132" y2="558.9899"/>
    <line x1="876.0168" x2="875.6333" y1="568.0915" y2="606.0147"/>
    <line x1="772.9753" x2="769.8315" y1="411.0888" y2="373.1656"/>
    <line x1="572.6302" x2="572.1249" y1="593.8793" y2="631.8026"/>
    <line x1="503.4368" x2="496.7834" y1="224.506" y2="186.5828"/>
    <line x1="496.7834" x2="503.5724" y1="175.9641" y2="213.8875"/>
    <line x1="529.5132" x2="527.1223" y1="97.0836" y2="59.1603"/>
    <line x1="513.8763" x2="514.797" y1="57.6433" y2="19.7201"/>
    <line x1="486.639" x2="485.5613" y1="15.9278" y2="53.851"/>
    <line x1="513.8489" x2="516.2438" y1="48.5418" y2="86.465"/>
    <line x1="572.442" x2="572.6302" y1="98.6006" y2="60.6772"/>
    <line x1="390.5982" x2="397.6344" y1="84.9481" y2="122.8715"/>
    <line x1="272.9811" x2="269.2434" y1="94.8083" y2="56.8849"/>
    <line x1="264.5978" x2="267.5368" y1="40.9571" y2="3.0339"/>
    <line x1="264.503" x2="262.1372" y1="3.7923" y2="41.7156"/>
    <line x1="254.8726" x2="256.065" y1="37.9233" y2="0.0"/>
    <line x1="243.4556" x2="245.2688" y1="5.3093" y2="43.2325"/>
    <line x1="236.5346" x2="242.8504" y1="47.0248" y2="84.9481"/>
    <line x1="238.9048" x2="245.5305" y1="85.7065" y2="123.63"/>
    <line x1="259.3804" x2="254.0741" y1="108.4607" y2="70.5372"/>
    <line x1="253.04" x2="249.9025" y1="65.9865" y2="28.0632"/>
    <line x1="232.2458" x2="229.7084" y1="38.6817" y2="0.7585"/>
    <line x1="208.9454" x2="212.8307" y1="9.86" y2="47.7833"/>
    <line x1="206.6906" x2="202.214" y1="58.4018" y2="20.4786"/>
    <line x1="199.5154" x2="194.7242" y1="39.4402" y2="1.5169"/>
  </g>
  <g fill="none" id="layer2" inkscape:groupmode="layer" inkscape:label="2" stroke="#bc9eca" stroke-width="1.0" style="display:inline">
    <line x1="11.5545" x2="15.3637" y1="0.0" y2="37.9233"/>
    <line x1="20.6193" x2="16.2949" y1="37.9233" y2="0.0"/>
    <line x1="41.7035" x2="39.6694" y1="95.5668" y2="133.49"/>
    <line x1="41.7035" x2="38.4934" y1="131.9731" y2="169.8964"/>
    <line x1="86.3556" x2="87.2114" y1="128.1808" y2="90.2574"/>
    <line x1="132.7195" x2="130.8433" y1="125.9054" y2="163.8286"/>
    <line x1="163.0583" x2="161.6222" y1="208.5783" y2="246.5015"/>
    <line x1="193.3969" x2="191.046" y1="291.2512" y2="329.1744"/>
    <line x1="178.2276" x2="174.7406" y1="324.6236" y2="362.5469"/>
    <line x1="115.828" x2="117.5502" y1="320.8313" y2="282.908"/>
    <line x1="26.5342" x2="23.5226" y1="298.8358" y2="336.7591"/>
    <line x1="102.3809" x2="91.7043" y1="392.1272" y2="430.0505"/>
    <line x1="87.2114" x2="77.0404" y1="414.8812" y2="452.8044"/>
    <line x1="56.8728" x2="44.4398" y1="493.0033" y2="530.9265"/>
    <line x1="11.3649" x2="3.8151" y1="547.6127" y2="585.5362"/>
    <line x1="11.3649" x2="3.9764" y1="574.9177" y2="612.841"/>
    <line x1="87.2114" x2="87.5407" y1="603.7393" y2="641.6626"/>
    <line x1="170.4416" x2="178.2276" y1="582.5023" y2="544.5789"/>
    <line x1="154.8604" x2="163.0583" y1="545.3373" y2="507.4141"/>
    <line x1="216.2864" x2="223.7355" y1="533.2019" y2="495.2787"/>
    <line x1="244.2646" x2="254.0741" y1="453.5629" y2="415.6396"/>
    <line x1="277.0035" x2="284.4128" y1="431.5674" y2="393.6441"/>
    <line x1="322.4441" x2="329.9208" y1="415.6396" y2="377.7164"/>
    <line x1="351.2494" x2="360.2596" y1="315.522" y2="277.5987"/>
    <line x1="392.2029" x2="390.5982" y1="266.9801" y2="229.0568"/>
    <line x1="405.7675" x2="400.1482" y1="280.6327" y2="318.5559"/>
    <line x1="436.1061" x2="432.5676" y1="314.7636" y2="352.6868"/>
    <line x1="542.2916" x2="542.0142" y1="335.2421" y2="373.1656"/>
    <line x1="572.6302" x2="575.5946" y1="405.7796" y2="443.7028"/>
    <line x1="556.2312" x2="557.4609" y1="457.3552" y2="419.432"/>
    <line x1="527.1223" x2="523.8516" y1="428.5336" y2="466.457"/>
    <line x1="542.2916" x2="536.9875" y1="472.5246" y2="510.4479"/>
    <line x1="527.1223" x2="521.8251" y1="497.554" y2="535.4773"/>
    <line x1="572.6302" x2="568.1249" y1="536.9942" y2="574.9177"/>
    <line x1="557.4609" x2="555.1838" y1="587.0531" y2="624.9764"/>
    <line x1="618.1381" x2="616.6041" y1="622.7011" y2="660.6243"/>
    <line x1="633.3911" x2="633.3074" y1="648.489" y2="610.5656"/>
    <line x1="665.0029" x2="663.6462" y1="602.981" y2="565.0576"/>
    <line x1="715.4332" x2="709.1543" y1="520.308" y2="482.3846"/>
    <line x1="700.4412" x2="693.9848" y1="497.554" y2="459.6306"/>
    <line x1="685.7701" x2="678.8154" y1="449.0121" y2="411.0888"/>
    <line x1="678.8154" x2="685.6047" y1="401.9873" y2="439.9105"/>
    <line x1="663.6462" x2="668.8469" y1="448.2537" y2="486.1771"/>
    <line x1="617.6419" x2="618.1381" y1="495.2787" y2="457.3552"/>
    <line x1="603.6562" x2="602.9688" y1="471.7662" y2="433.8428"/>
    <line x1="621.9799" x2="618.1381" y1="429.292" y2="391.3687"/>
    <line x1="544.22" x2="542.2916" y1="309.4543" y2="271.531"/>
    <line x1="561.2818" x2="557.4609" y1="270.7724" y2="232.8492"/>
    <line x1="618.2705" x2="618.1381" y1="221.4722" y2="183.5489"/>
    <line x1="663.6462" x2="659.8745" y1="194.1674" y2="232.0907"/>
    <line x1="693.9848" x2="694.0615" y1="233.6076" y2="271.531"/>
    <line x1="724.3236" x2="727.3668" y1="305.662" y2="343.5853"/>
    <line x1="769.8315" x2="772.5926" y1="357.2376" y2="395.1611"/>
    <line x1="769.8315" x2="771.6022" y1="418.6735" y2="456.5967"/>
    <line x1="769.8315" x2="774.1355" y1="468.7323" y2="506.6556"/>
    <line x1="835.8372" x2="830.5088" y1="501.3464" y2="463.4231"/>
    <line x1="860.8474" x2="866.6018" y1="494.5201" y2="532.4434"/>
    <line x1="860.8474" x2="866.7641" y1="521.0665" y2="558.9899"/>
    <line x1="882.5571" x2="876.0168" y1="547.6127" y2="509.6895"/>
    <line x1="876.0168" x2="871.6231" y1="616.6333" y2="654.5566"/>
    <line x1="831.1349" x2="830.5088" y1="364.8223" y2="326.899"/>
    <line x1="845.658" x2="845.6782" y1="339.7929" y2="301.8697"/>
    <line x1="891.1861" x2="889.976" y1="300.3527" y2="338.276"/>
    <line x1="892.3064" x2="891.1861" y1="317.7974" y2="279.8741"/>
    <line x1="884.7903" x2="891.1861" y1="174.4472" y2="136.5239"/>
    <line x1="836.8502" x2="845.6782" y1="138.7993" y2="100.876"/>
    <line x1="874.7831" x2="873.931" y1="53.0926" y2="15.1693"/>
    <line x1="895.1682" x2="895.542" y1="25.7878" y2="63.7111"/>
    <line x1="785.0008" x2="781.929" y1="163.8286" y2="201.7521"/>
    <line x1="785.0008" x2="784.1954" y1="195.6844" y2="233.6076"/>
    <line x1="705.7974" x2="709.1543" y1="120.5961" y2="82.6727"/>
    <line x1="697.4657" x2="702.0437" y1="72.0542" y2="34.1309"/>
    <line x1="657.0096" x2="653.0632" y1="17.4447" y2="55.3679"/>
    <line x1="602.9688" x2="597.8424" y1="55.3679" y2="93.2914"/>
    <line x1="584.7168" x2="587.7995" y1="95.5668" y2="57.6433"/>
    <line x1="593.8211" x2="599.7454" y1="59.1603" y2="21.237"/>
    <line x1="557.4609" x2="561.5346" y1="105.4268" y2="143.3501"/>
    <line x1="515.3716" x2="511.9528" y1="146.3839" y2="108.4607"/>
    <line x1="500.8987" x2="499.7231" y1="74.3296" y2="36.4063"/>
    <line x1="441.6761" x2="442.185" y1="43.991" y2="81.9142"/>
    <line x1="436.1061" x2="440.4385" y1="111.4946" y2="149.4178"/>
    <line x1="436.1061" x2="443.8346" y1="181.2733" y2="219.1968"/>
    <line x1="475.9488" x2="466.4449" y1="226.7814" y2="188.8582"/>
    <line x1="314.7515" x2="312.3936" y1="230.5738" y2="268.4971"/>
    <line x1="282.0647" x2="284.4128" y1="248.7769" y2="210.8537"/>
    <line x1="272.4979" x2="269.2434" y1="212.3706" y2="174.4472"/>
    <line x1="289.6905" x2="284.4128" y1="168.3794" y2="130.4562"/>
    <line x1="180.46" x2="178.2276" y1="132.7316" y2="94.8083"/>
    <line x1="254.0741" x2="247.0458" y1="292.7681" y2="330.6913"/>
    <line x1="284.4128" x2="276.8059" y1="479.3509" y2="517.2741"/>
    <line x1="284.4128" x2="273.5524" y1="535.4773" y2="573.4007"/>
    <line x1="208.5662" x2="199.6946" y1="556.7145" y2="594.6378"/>
    <line x1="371.3827" x2="375.4289" y1="566.5746" y2="528.6511"/>
    <line x1="659.4323" x2="663.6462" y1="145.6255" y2="107.7022"/>
    <line x1="678.8154" x2="673.7463" y1="101.6345" y2="139.5578"/>
  </g>
  <g fill="none" id="layer3" inkscape:groupmode="layer" inkscape:label="3" stroke="#89c9ab" stroke-width="1.0" style="display:inline">
    <line x1="12.313" x2="16.1951" y1="0.0" y2="37.9233"/>
    <line x1="44.6425" x2="47.0421" y1="22.754" y2="60.6772"/>
    <line x1="53.5726" x2="46.8231" y1="37.9233" y2="0.0"/>
    <line x1="94.0378" x2="101.2723" y1="14.4108" y2="52.3341"/>
    <line x1="102.3809" x2="103.4073" y1="71.2957" y2="109.2192"/>
    <line x1="147.8888" x2="145.9545" y1="252.5692" y2="290.4926"/>
    <line x1="203.236" x2="208.5662" y1="307.1789" y2="269.2555"/>
    <line x1="234.3722" x2="238.9048" y1="258.637" y2="220.7137"/>
    <line x1="274.5994" x2="269.2434" y1="197.9598" y2="160.0363"/>
    <line x1="314.7515" x2="321.094" y1="169.1379" y2="207.0613"/>
    <line x1="329.9208" x2="333.3573" y1="188.0997" y2="226.023"/>
    <line x1="336.0179" x2="329.9208" y1="172.9302" y2="135.007"/>
    <line x1="375.4289" x2="381.8702" y1="144.1086" y2="182.032"/>
    <line x1="436.1061" x2="443.8114" y1="182.7905" y2="220.7137"/>
    <line x1="466.4449" x2="474.5815" y1="222.9891" y2="260.9125"/>
    <line x1="481.6142" x2="481.0469" y1="338.276" y2="376.1994"/>
    <line x1="436.1061" x2="433.2054" y1="417.1566" y2="455.0798"/>
    <line x1="417.5744" x2="420.9368" y1="458.1138" y2="420.1904"/>
    <line x1="466.4449" x2="462.4733" y1="484.6601" y2="522.5834"/>
    <line x1="481.6142" x2="476.0334" y1="532.4434" y2="570.3669"/>
    <line x1="466.4449" x2="461.7333" y1="552.9222" y2="590.8454"/>
    <line x1="503.7649" x2="511.9528" y1="577.9515" y2="540.0281"/>
    <line x1="527.1223" x2="520.9327" y1="596.9132" y2="634.8364"/>
    <line x1="571.7252" x2="572.6302" y1="618.1502" y2="580.2269"/>
    <line x1="614.6298" x2="618.1381" y1="556.7145" y2="518.7911"/>
    <line x1="666.8467" x2="663.6462" y1="530.168" y2="492.2447"/>
    <line x1="709.1543" x2="715.3354" y1="503.6218" y2="541.545"/>
    <line x1="730.2765" x2="724.3236" y1="525.6173" y2="487.694"/>
    <line x1="744.4155" x2="739.4929" y1="436.1182" y2="398.1949"/>
    <line x1="693.7078" x2="693.9848" y1="345.1022" y2="307.1789"/>
    <line x1="632.3568" x2="633.3074" y1="323.8652" y2="285.9419"/>
    <line x1="587.7995" x2="588.3469" y1="325.3821" y2="363.3053"/>
    <line x1="587.7995" x2="589.0594" y1="359.513" y2="397.4365"/>
    <line x1="560.2526" x2="557.4609" y1="407.2965" y2="369.3733"/>
    <line x1="557.4811" x2="557.4609" y1="359.513" y2="321.5898"/>
    <line x1="542.2916" x2="541.9203" y1="319.3144" y2="357.2376"/>
    <line x1="618.1381" x2="620.6245" y1="355.7207" y2="393.6441"/>
    <line x1="785.0008" x2="790.0997" y1="486.1771" y2="524.1003"/>
    <line x1="815.3394" x2="820.1974" y1="508.1726" y2="546.0958"/>
    <line x1="819.9185" x2="815.3394" y1="504.3802" y2="466.457"/>
    <line x1="834.9701" x2="830.5088" y1="433.0843" y2="395.1611"/>
    <line x1="846.6201" x2="845.6782" y1="376.9579" y2="339.0345"/>
    <line x1="875.1719" x2="876.0168" y1="337.5175" y2="299.5943"/>
    <line x1="769.7125" x2="769.8315" y1="251.0523" y2="213.1291"/>
    <line x1="747.5614" x2="754.6622" y1="160.0363" y2="122.1131"/>
    <line x1="724.3236" x2="718.2675" y1="106.1853" y2="144.1086"/>
    <line x1="693.9848" x2="689.4372" y1="132.7316" y2="170.6548"/>
    <line x1="705.9952" x2="709.1543" y1="116.0453" y2="78.1219"/>
    <line x1="675.7142" x2="678.8154" y1="91.7744" y2="53.851"/>
    <line x1="648.3129" x2="652.4587" y1="37.9233" y2="0.0"/>
    <line x1="511.9528" x2="518.069" y1="157.0025" y2="194.9259"/>
    <line x1="399.7441" x2="407.474" y1="37.9233" y2="0.0"/>
    <line x1="299.5822" x2="289.0206" y1="318.5559" y2="356.4792"/>
    <line x1="290.08" x2="299.5822" y1="370.8902" y2="332.9667"/>
    <line x1="329.9208" x2="325.3715" y1="452.046" y2="489.9694"/>
    <line x1="345.0903" x2="339.6512" y1="506.6556" y2="544.5789"/>
    <line x1="345.0903" x2="338.4246" y1="543.8204" y2="581.7439"/>
    <line x1="360.2596" x2="357.5802" y1="579.4685" y2="617.3917"/>
    <line x1="184.3714" x2="193.3969" y1="554.4391" y2="516.5157"/>
    <line x1="147.8888" x2="141.8079" y1="539.2696" y2="577.1931"/>
    <line x1="87.2114" x2="78.1217" y1="546.8543" y2="584.7777"/>
    <line x1="13.8913" x2="26.5342" y1="514.9987" y2="477.0754"/>
    <line x1="62.3131" x2="72.0421" y1="458.8721" y2="420.949"/>
    <line x1="147.8888" x2="136.1932" y1="436.1182" y2="474.0416"/>
    <line x1="51.1382" x2="56.8728" y1="292.7681" y2="254.8446"/>
    <line x1="41.7035" x2="35.2963" y1="251.0523" y2="288.9757"/>
    <line x1="693.9848" x2="693.1015" y1="600.7055" y2="638.6287"/>
    <line x1="780.4001" x2="785.0008" y1="643.9381" y2="606.0147"/>
  </g>
  <g fill="none" id="layer4" inkscape:groupmode="layer" inkscape:label="4" stroke="#5b7d6d" stroke-width="1.0" style="display:inline">
    <line x1="11.8389" x2="15.6749" y1="0.0" y2="37.9233"/>
    <line x1="38.1009" x2="39.7575" y1="33.3725" y2="71.2957"/>
    <line x1="11.3649" x2="5.7122" y1="91.7744" y2="129.6977"/>
    <line x1="41.7035" x2="38.6096" y1="131.2146" y2="169.1379"/>
    <line x1="87.3886" x2="87.2114" y1="111.4946" y2="73.5711"/>
    <line x1="154.6731" x2="146.5615" y1="43.991" y2="6.0677"/>
    <line x1="159.74" x2="167.4985" y1="2.2754" y2="40.1986"/>
    <line x1="178.2276" x2="178.933" y1="109.2192" y2="147.1424"/>
    <line x1="208.5662" x2="206.2939" y1="202.5106" y2="240.4338"/>
    <line x1="178.2276" x2="176.7595" y1="270.7724" y2="308.6959"/>
    <line x1="132.7195" x2="133.8381" y1="304.1451" y2="342.0683"/>
    <line x1="163.0583" x2="155.9907" y1="356.4792" y2="394.4026"/>
    <line x1="230.8667" x2="238.9048" y1="382.2672" y2="344.3437"/>
    <line x1="269.2434" x2="260.1264" y1="380.7502" y2="418.6735"/>
    <line x1="304.0165" x2="314.7515" y1="331.4498" y2="293.5266"/>
    <line x1="308.375" x2="314.7515" y1="295.802" y2="257.8786"/>
    <line x1="314.7515" x2="308.2255" y1="258.637" y2="296.5604"/>
    <line x1="383.2675" x2="390.5982" y1="319.3144" y2="281.3911"/>
    <line x1="420.9368" x2="415.8186" y1="323.8652" y2="361.7884"/>
    <line x1="449.7463" x2="451.2754" y1="326.899" y2="288.9757"/>
    <line x1="427.733" x2="420.9368" y1="215.4045" y2="177.481"/>
    <line x1="405.7675" x2="411.8556" y1="172.1718" y2="210.0952"/>
    <line x1="305.8087" x2="299.5822" y1="182.7905" y2="144.867"/>
    <line x1="274.8558" x2="269.2434" y1="118.3207" y2="80.3974"/>
    <line x1="287.335" x2="290.3857" y1="51.5756" y2="13.6524"/>
    <line x1="405.7675" x2="408.5454" y1="56.1264" y2="94.0499"/>
    <line x1="416.6296" x2="423.4018" y1="45.5079" y2="7.5847"/>
    <line x1="493.6578" x2="494.8622" y1="40.9571" y2="78.8804"/>
    <line x1="511.9528" x2="515.9217" y1="74.3296" y2="112.253"/>
    <line x1="538.8696" x2="537.9363" y1="80.3974" y2="42.474"/>
    <line x1="607.5233" x2="612.6392" y1="48.5418" y2="10.6185"/>
    <line x1="633.3074" x2="630.9046" y1="67.5034" y2="105.4268"/>
    <line x1="648.4769" x2="644.5086" y1="138.0408" y2="175.9641"/>
    <line x1="633.3074" x2="633.994" y1="245.7431" y2="283.6664"/>
    <line x1="678.8154" x2="679.0217" y1="285.1834" y2="323.1067"/>
    <line x1="709.1543" x2="713.7382" y1="376.9579" y2="414.8812"/>
    <line x1="785.0008" x2="786.7228" y1="454.3214" y2="492.2447"/>
    <line x1="850.9459" x2="845.6782" y1="433.8428" y2="395.9195"/>
    <line x1="876.0168" x2="879.6326" y1="378.4748" y2="416.3981"/>
    <line x1="789.5247" x2="785.0008" y1="368.6148" y2="330.6913"/>
    <line x1="785.0008" x2="789.5144" y1="328.4159" y2="366.3392"/>
    <line x1="849.4802" x2="845.6782" y1="299.5943" y2="261.6709"/>
    <line x1="829.594" x2="830.5088" y1="229.0568" y2="191.1336"/>
    <line x1="876.0168" x2="876.1655" y1="197.9598" y2="235.883"/>
    <line x1="754.6622" x2="753.4549" y1="219.1968" y2="257.12"/>
    <line x1="704.4011" x2="709.1543" y1="242.7092" y2="204.786"/>
    <line x1="710.1937" x2="714.8428" y1="87.2235" y2="49.3002"/>
    <line x1="602.9688" x2="602.4294" y1="327.6575" y2="365.5807"/>
    <line x1="542.2916" x2="537.0773" y1="485.4186" y2="523.3419"/>
    <line x1="496.7834" x2="491.6659" y1="609.0487" y2="646.972"/>
    <line x1="437.2035" x2="436.1061" y1="658.3489" y2="620.4256"/>
    <line x1="375.4289" x2="376.0557" y1="625.7348" y2="663.6583"/>
    <line x1="356.1224" x2="360.2596" y1="559.7484" y2="521.8249"/>
    <line x1="375.4289" x2="371.6905" y1="511.2064" y2="549.1297"/>
    <line x1="432.8014" x2="436.1061" y1="539.2696" y2="501.3464"/>
    <line x1="430.2927" x2="436.1061" y1="503.6218" y2="465.6985"/>
    <line x1="709.1543" x2="711.7634" y1="537.7527" y2="575.6761"/>
    <line x1="769.8315" x2="764.769" y1="611.324" y2="649.2474"/>
    <line x1="842.6381" x2="845.6782" y1="645.455" y2="607.5317"/>
    <line x1="894.008" x2="891.1861" y1="568.85" y2="530.9265"/>
    <line x1="178.2276" x2="174.8112" y1="599.947" y2="637.8703"/>
    <line x1="55.4737" x2="56.8728" y1="643.1795" y2="605.2563"/>
    <line x1="19.5686" x2="26.5342" y1="405.7796" y2="367.8563"/>
    <line x1="54.1675" x2="56.8728" y1="372.4071" y2="334.4837"/>
  </g>
</svg>
