<?xml version="1.0" encoding="UTF-8" standalone="no"?>
<svg
   height="19.2000093cm"
   version="1.2"
   viewBox="0 0 958.9016688428442 725.6696428976181"
   width="25.37093999cm"
   id="svg156"
   sodipodi:docname="lightning-for-site.svg"
   inkscape:version="1.2.2 (b0a84865, 2022-12-01)"
   xmlns:inkscape="http://www.inkscape.org/namespaces/inkscape"
   xmlns:sodipodi="http://sodipodi.sourceforge.net/DTD/sodipodi-0.dtd"
   xmlns="http://www.w3.org/2000/svg"
   xmlns:svg="http://www.w3.org/2000/svg"
   xmlns:dc="http://purl.org/dc/elements/1.1/"
   xmlns:ns="http://www.w3.org/1999/02/22-rdf-syntax-ns"
   xmlns:ns0="http://creativecommons.org/ns">
  <sodipodi:namedview
     id="namedview158"
     pagecolor="#ffffff"
     bordercolor="#999999"
     borderopacity="1"
     inkscape:showpageshadow="0"
     inkscape:pageopacity="0"
     inkscape:pagecheckerboard="0"
     inkscape:deskcolor="#d1d1d1"
     inkscape:document-units="cm"
     showgrid="false"
     inkscape:zoom="0.98907844"
     inkscape:cx="479.7395"
     inkscape:cy="362.45861"
     inkscape:window-width="1728"
     inkscape:window-height="931"
     inkscape:window-x="0"
     inkscape:window-y="38"
     inkscape:window-maximized="1"
     inkscape:current-layer="layer1" />
  <metadata
     id="metadata132">
    <ns:RDF>
      <ns0:Work>
        <dc:format>image/svg+xml</dc:format>
        <dc:source>vpype read black-lightning.svg rotate 90 layout -m 0.1cm tight linesimplify write lightning-for-site.svg
</dc:source>
        <dc:date>2023-10-07T15:20:22.678764</dc:date>
      </ns0:Work>
    </ns:RDF>
  </metadata>
  <defs
     id="defs134" />
  <g
     fill="none"
     id="layer1"
     inkscape:groupmode="layer"
     inkscape:label="1"
     stroke="#00e4e5"
     stroke-width="0.7244"
     style="display:inline;stroke:#fcfaee;stroke-opacity:1">
    <polyline
       points="955.1221,697.6087 949.6546,693.7499 938.7196,682.8308 933.2522,678.0817 927.7847,675.1224 922.3172,673.1998 916.8497,671.8597 911.3822,671.4709 900.4473,672.0784 894.9798,668.9321 884.0448,658.2637 878.5773,654.6416 873.1098,652.841 867.6424,652.3931 862.1749,653.2791 856.7074,655.3428 851.2399,657.8775 845.7724,661.2735 840.3049,666.0032 834.8375,670.1107 829.37,672.9845 823.9025,677.0092 818.435,682.8356 812.9675,690.6576 807.5,700.132 802.0326,708.6836 796.5651,713.5887 791.0976,712.8629 780.1625,704.1209 774.6951,698.9688 769.2276,692.834 763.7601,688.4627 758.2926,685.455 752.8251,681.7273 747.3576,678.8432 741.8901,678.7141 730.9552,686.3805 720.0202,688.169 714.5527,690.44 709.0853,694.0462 703.6178,700.1416 698.1503,707.1171 692.6828,712.1387 687.2153,714.3529 681.7478,715.1352 670.8129,718.4543 665.3454,718.5222 654.4104,717.1421 648.9429,715.7941 643.4755,713.0588 638.008,708.1739 632.5405,700.0625 627.073,692.7912 621.6055,690.7722 616.138,692.9291 610.6706,697.6907 605.2031,703.6439 594.268,718.4705 588.8005,721.8901 583.333,720.5156 577.8656,716.1676 566.9306,703.7622 555.9956,695.5907 550.5281,689.4118 545.0607,682.3116 539.5932,673.8086 534.1257,663.3189 528.6582,651.2177 523.1907,640.1341 517.7232,633.1309 506.7883,621.4767 501.3208,617.3216 495.8533,615.1125 490.3858,613.6621 484.9183,612.8463 479.4509,612.7557 473.9834,614.2838 468.5159,618.4559 463.0484,625.6663 457.5809,634.7925 452.1134,641.8409 446.646,643.2909 441.1785,641.543 430.2435,635.5376 424.776,634.4937 419.3085,635.9776 413.841,639.4036 408.3735,645.4411 402.906,654.845 397.4385,665.8824 391.971,675.3753 386.5035,680.0493 381.0361,683.3695 370.1011,693.2633 364.6336,695.3675 359.1661,693.0162 353.6987,688.6329 348.2312,684.7588 331.8287,680.192 326.3612,679.8718 320.8937,681.9188 315.4263,685.353 309.9588,687.5642 304.4913,687.2515 293.5563,684.5346 288.0888,685.0946 277.1539,693.1639 271.6864,691.9635 266.2189,686.2273 244.349,654.2163 238.8815,649.76 233.414,649.2226 227.9464,651.1309 222.4789,654.2469 217.0115,657.825 211.544,662.1816 206.0765,667.4634 200.609,673.7237 178.7391,703.1268 173.2716,708.2019 167.8041,709.6502 162.3366,707.0755 140.4667,684.6794 134.9992,677.681 124.0643,660.0655 118.5968,652.8412 107.6618,641.8743 102.1943,636.8727 96.7268,633.9755 91.2594,634.7803 85.7919,637.2953 80.3244,638.305 74.8569,637.8949 47.5195,633.623 42.0519,633.6986 31.1169,636.9527 25.6495,636.3257 20.182,631.7142 14.7145,625.7284 9.247,621.7383 3.7795,621.2242"
       id="polyline136"
       style="stroke:#fcfaee;stroke-opacity:1" />
    <polyline
       points="3.7795,532.0209 9.247,533.1861 14.7145,532.0264 25.6495,521.0541 31.1169,520.2337 36.5844,522.2467 42.0519,526.7386 47.5195,533.8027 58.4545,551.1583 63.9219,558.816 69.3894,567.9882 74.8569,579.028 80.3244,587.1925 85.7919,590.5574 96.7268,592.7453 107.6618,598.3415 113.1293,600.047 118.5968,600.7035 124.0643,603.7624 134.9992,613.5367 140.4667,617.5486 151.4017,624.7331 156.8691,627.042 162.3366,627.2888 173.2716,627.0215 178.7391,626.183 184.2066,622.2873 189.6741,613.8322 200.609,590.1951 217.0115,567.8703 222.4789,562.4911 227.9464,561.9573 233.414,564.4777 238.8815,565.7268 244.349,565.3527 249.8165,566.0306 255.2839,570.2669 266.2189,586.1201 271.6864,592.6205 282.6214,601.0147 288.0888,604.1731 293.5563,605.9778 304.4913,612.5934 309.9588,613.4807 320.8937,612.0604 326.3612,612.5194 331.8287,610.4567 342.7637,599.2012 348.2312,597.0659 353.6987,597.5872 359.1661,597.505 370.1011,592.1868 375.5686,588.8725 381.0361,584.7706 386.5035,579.0836 397.4385,565.9845 402.906,561.8985 408.3735,559.4445 413.841,556.2985 424.776,547.7057 430.2435,543.7669 435.711,539.1726 441.1785,532.9806 446.646,528.9577 452.1134,529.0151 457.5809,530.1661 463.0484,530.1347 473.9834,525.1289 479.4509,524.4118 484.9183,526.649 490.3858,529.4678 495.8533,532.9464 501.3208,538.6 512.2558,552.639 523.1907,564.5879 528.6582,571.5315 534.1257,579.401 539.5932,589.0211 550.5281,614.7112 555.9956,622.4331 566.9306,630.6575 572.3981,638.4496 577.8656,647.6936 583.333,654.9679 588.8005,657.4249 594.268,655.0939 605.2031,644.8093 610.6706,641.7818 616.138,641.1583 621.6055,639.4971 627.073,635.0333 632.5405,630.0259 638.008,625.6222 643.4755,621.8626 654.4104,608.2779 659.8779,606.9888 670.8129,610.9371 676.2803,609.9862 681.7478,607.5463 687.2153,605.6136 692.6828,604.4263 698.1503,602.2468 703.6178,597.7709 709.0853,594.2546 714.5527,594.8226 725.4877,605.378 730.9552,605.5656 741.8901,597.6579 747.3576,597.0483 752.8251,598.8577 763.7601,604.7761 769.2276,609.0834 774.6951,614.2238 780.1625,617.447 785.63,617.0997 791.0976,613.671 796.5651,608.8809 802.0326,605.207 812.9675,605.1096 818.435,602.8002 829.37,595.9792 834.8375,592.0076 840.3049,584.3665 845.7724,575.3969 851.2399,570.0594 856.7074,568.1347 862.1749,567.6784 867.6424,567.7111 873.1098,566.2748 884.0448,559.0671 900.4473,552.5084 905.9147,550.9356 911.3822,553.4226 922.3172,563.4104 933.2522,572.2716 938.7196,577.8438 944.1871,587.3186 949.6546,598.9347 955.1221,607.1253"
       id="polyline138"
       style="stroke:#fcfaee;stroke-opacity:1" />
    <polyline
       points="955.1221,511.9353 949.6546,504.6416 927.7847,478.3368 911.3822,461.2535 905.9147,458.0735 900.4473,459.831 889.5123,472.1375 873.1098,480.9917 867.6424,482.0763 856.7074,479.5393 851.2399,480.6602 834.8375,491.3344 829.37,494.262 823.9025,494.1512 818.435,492.7859 812.9675,492.7008 807.5,496.3278 796.5651,508.1059 791.0976,509.5704 785.63,508.4065 780.1625,508.8631 769.2276,512.6459 763.7601,512.6723 758.2926,513.3314 747.3576,521.6644 741.8901,522.7123 730.9552,519.5082 725.4877,519.4987 714.5527,523.2772 703.6178,523.9528 692.6828,525.2633 681.7478,525.4313 676.2803,527.7327 670.8129,531.0758 665.3454,532.8417 659.8779,533.4303 654.4104,534.6284 648.9429,539.5432 643.4755,545.8943 638.008,550.7698 632.5405,551.7108 627.073,551.8849 616.138,558.4787 610.6706,560.4912 599.7355,562.3225 594.268,563.63 583.333,565.2425 577.8656,566.5276 572.3981,563.9579 566.9306,555.7582 555.9956,535.1502 550.5281,527.4184 539.5932,514.6033 534.1257,507.489 523.1907,490.8155 512.2558,477.1723 495.8533,453.4901 490.3858,446.9526 484.9183,441.9156 479.4509,439.6384 473.9834,441.8841 468.5159,445.3754 463.0484,446.7228 457.5809,444.9815 452.1134,442.4395 446.646,441.6806 435.711,439.2341 430.2435,440.2531 424.776,446.9647 419.3085,457.1093 413.841,463.7646 408.3735,464.9092 402.906,464.1487 397.4385,465.0564 391.971,467.8094 381.0361,467.7113 375.5686,469.849 370.1011,473.6753 359.1661,483.1241 353.6987,492.1107 348.2312,502.3371 342.7637,508.1133 337.2962,508.8228 331.8287,506.2399 326.3612,502.0978 320.8937,495.0128 315.4263,484.9465 309.9588,478.7334 304.4913,480.2998 293.5563,493.4568 288.0888,495.8357 282.6214,497.6576 277.1539,498.3302 271.6864,496.7149 266.2189,492.4536 260.7514,487.5154 255.2839,484.6162 244.349,477.8622 238.8815,477.8019 227.9464,483.2669 222.4789,486.8441 217.0115,493.1142 206.0765,514.743 200.609,521.908 189.6741,530.3431 184.2066,537.5332 178.7391,548.0993 173.2716,557.6371 167.8041,560.6803 162.3366,559.0596 156.8691,555.5236 151.4017,551.121 145.9342,544.0516 140.4667,533.8112 134.9992,525.4793 129.5317,523.044 124.0643,526.6454 118.5968,531.2997 113.1293,532.7994 107.6618,532.2271 102.1943,530.0287 96.7268,526.7462 91.2594,522.2568 85.7919,516.2953 80.3244,508.7454 69.3894,490.4257 58.4545,473.0543 52.987,462.159 47.5195,452.2652 42.0519,444.9114 36.5844,439.3838 31.1169,436.4754 25.6495,436.2619 20.182,436.8332 14.7145,437.9972 9.247,439.9763 3.7795,444.9107"
       id="polyline140"
       style="stroke:#fcfaee;stroke-opacity:1" />
    <polyline
       points="3.7795,366.9994 9.247,368.6569 14.7145,371.5065 20.182,375.8331 25.6495,379.2766 36.5844,380.3472 58.4545,383.7532 63.9219,385.8344 69.3894,390.2544 74.8569,397.1799 80.3244,405.4765 91.2594,423.9867 96.7268,431.1402 102.1943,433.9853 107.6618,432.4504 113.1293,430.2426 118.5968,430.8446 124.0643,432.1446 129.5317,435.1239 134.9992,441.4143 140.4667,451.25 145.9342,462.3985 151.4017,471.4829 156.8691,477.7059 162.3366,481.5917 167.8041,483.1027 178.7391,484.0228 184.2066,482.3627 189.6741,477.1333 200.609,462.5359 206.0765,457.9152 211.544,454.3086 217.0115,451.6425 222.4789,450.143 233.414,450.4447 238.8815,447.4511 244.349,439.5394 249.8165,428.7414 255.2839,420.0646 260.7514,416.2067 266.2189,415.436 271.6864,414.1589 277.1539,409.3535 282.6214,400.4806 288.0888,390.4142 293.5563,382.2125 299.0238,376.1785 304.4913,372.7315 309.9588,372.0045 315.4263,372.8472 326.3612,376.1884 337.2962,380.0695 342.7637,379.4264 353.6987,374.2945 364.6336,370.4848 381.0361,367.5286 386.5035,364.0601 397.4385,354.3321 408.3735,341.2379 413.841,338.2284 419.3085,341.0113 430.2435,355.1119 441.1785,367.6019 446.646,371.3887 452.1134,370.4183 457.5809,365.0739 463.0484,358.9365 468.5159,355.6756 473.9834,356.1742 484.9183,360.9344 490.3858,359.747 495.8533,357.822 501.3208,360.2546 506.7883,367.4209 512.2558,376.4508 517.7232,384.4338 523.1907,391.1074 528.6582,398.5664 534.1257,406.7755 539.5932,416.2561 545.0607,427.9823 550.5281,438.2593 555.9956,443.8112 561.4631,445.1581 566.9306,444.7067 572.3981,444.9428 577.8656,443.3818 583.333,440.722 588.8005,439.6421 594.268,443.0989 605.2031,457.6034 610.6706,463.9693 616.138,470.9529 621.6055,476.2869 627.073,478.4636 638.008,477.7553 643.4755,479.067 648.9429,479.7787 659.8779,479.5089 665.3454,478.7762 670.8129,476.3175 676.2803,470.8128 681.7478,463.9274 687.2153,458.1273 692.6828,454.8473 703.6178,451.5726 709.0853,450.8603 714.5527,451.8285 720.0202,454.1795 725.4877,456.124 730.9552,455.9872 736.4227,452.8919 741.8901,447.7789 752.8251,436.3741 763.7601,425.8861 769.2276,419.1663 774.6951,410.9967 780.1625,403.8336 796.5651,385.9751 802.0326,380.7073 807.5,379.6085 812.9675,380.0757 818.435,379.7935 829.37,380.9218 834.8375,380.8119 840.3049,380.3621 845.7724,379.5069 851.2399,377.9527 856.7074,372.7892 862.1749,365.4237 867.6424,361.6098 873.1098,363.8734 878.5773,370.257 884.0448,377.4561 889.5123,383.3037 894.9798,388.2935 900.4473,390.8804 916.8497,389.185 922.3172,389.9309 927.7847,391.0599 933.2522,393.6661 938.7196,399.5518 944.1871,409.1823 955.1221,432.4369"
       id="polyline142"
       style="stroke:#fcfaee;stroke-opacity:1" />
    <polyline
       points="955.1221,335.8969 949.6546,329.2422 938.7196,314.2989 933.2522,307.4417 927.7847,302.2479 922.3172,298.3041 911.3822,291.7636 905.9147,289.7039 900.4473,289.0837 894.9798,285.7994 889.5123,281.0437 884.0448,277.3845 878.5773,274.7579 873.1098,273.114 867.6424,272.6229 862.1749,273.5311 856.7074,276.0478 851.2399,280.0272 845.7724,285.9665 840.3049,293.1205 834.8375,296.8166 829.37,294.6917 823.9025,289.9878 818.435,287.1419 812.9675,289.9932 807.5,298.7247 802.0326,309.2798 796.5651,316.9462 791.0976,318.8745 785.63,318.0189 780.1625,319.7165 774.6951,326.7987 763.7601,347.7249 758.2926,355.9549 747.3576,371.752 741.8901,378.9651 736.4227,384.2651 730.9552,387.0614 725.4877,386.8685 720.0202,383.0748 714.5527,378.4465 709.0853,376.256 703.6178,374.9397 698.1503,374.3448 692.6828,375.3958 687.2153,379.3013 681.7478,385.9331 676.2803,393.705 670.8129,402.7258 665.3454,412.6335 659.8779,418.6128 654.4104,417.8282 648.9429,411.5974 638.008,392.2209 632.5405,383.1402 627.073,375.2592 610.6706,354.3971 605.2031,348.887 599.7355,344.432 594.268,341.0985 588.8005,339.7105 583.333,339.0828 577.8656,337.2682 561.4631,330.0583 555.9956,326.9365 550.5281,322.5962 539.5932,309.8261 534.1257,306.0631 523.1907,306.3395 517.7232,302.3186 512.2558,297.1549 506.7883,293.6206 501.3208,290.7589 495.8533,286.3879 490.3858,279.9399 484.9183,275.2858 479.4509,275.3277 473.9834,279.1137 468.5159,281.3753 463.0484,277.7128 452.1134,260.4023 446.646,258.8724 441.1785,264.9029 435.711,274.0873 430.2435,280.4581 424.776,281.4431 419.3085,279.07 413.841,277.4425 408.3735,278.6092 402.906,281.401 397.4385,283.6285 391.971,285.2606 386.5035,289.087 381.0361,292.3707 375.5686,292.6895 370.1011,290.5187 364.6336,287.6796 359.1661,285.9945 353.6987,283.7407 348.2312,282.1236 342.7637,283.5491 337.2962,288.4549 331.8287,294.8012 326.3612,299.475 320.8937,302.2081 315.4263,304.4303 309.9588,305.5429 304.4913,304.4937 299.0238,301.0074 293.5563,299.4801 288.0888,303.3115 282.6214,310.5984 277.1539,318.9385 271.6864,325.8646 266.2189,328.5547 260.7514,329.0676 255.2839,331.3198 249.8165,334.8329 244.349,338.832 238.8815,343.812 233.414,354.098 227.9464,371.0965 222.4789,386.3975 217.0115,395.6775 211.544,402.3598 206.0765,406.5987 200.609,409.3184 189.6741,417.9308 184.2066,420.7806 178.7391,417.7011 173.2716,412.0394 167.8041,409.8932 162.3366,408.9251 156.8691,405.557 151.4017,398.4238 145.9342,389.7561 134.9992,374.4726 129.5317,365.2453 118.5968,344.1026 113.1293,334.3622 107.6618,322.8794 102.1943,312.9432 96.7268,308.1889 91.2594,307.7247 85.7919,308.346 80.3244,306.6217 74.8569,306.2557 69.3894,308.1817 63.9219,309.2167 58.4545,309.0501 52.987,309.719 47.5195,312.3314 42.0519,316.3097 36.5844,319.1063 31.1169,320.4247 25.6495,319.2291 20.182,311.6066 14.7145,301.18 9.247,292.9714 3.7795,290.4493"
       id="polyline144"
       style="stroke:#fcfaee;stroke-opacity:1" />
    <polyline
       points="3.7795,213.6717 9.247,214.7637 20.182,218.0627 25.6495,219.2057 31.1169,219.6196 36.5844,221.6711 52.987,231.9012 63.9219,236.8666 69.3894,236.1589 74.8569,232.4077 80.3244,230.4901 91.2594,232.7527 96.7268,234.7804 102.1943,238.9054 107.6618,246.8631 113.1293,255.9529 124.0643,271.2048 129.5317,278.3157 134.9992,283.6296 140.4667,287.8781 145.9342,290.1385 151.4017,288.5779 156.8691,281.4527 162.3366,271.6044 167.8041,266.1258 173.2716,268.4236 178.7391,275.0889 184.2066,279.7488 189.6741,278.6592 195.1415,275.4536 200.609,272.7142 206.0765,272.2544 217.0115,272.8565 222.4789,271.8048 227.9464,268.6154 238.8815,259.5523 244.349,258.5092 255.2839,263.786 260.7514,264.1461 266.2189,262.6065 271.6864,259.1216 277.1539,253.9109 288.0888,240.2916 293.5563,234.2369 299.0238,229.5624 304.4913,226.7805 309.9588,226.0431 315.4263,223.9461 320.8937,220.6081 326.3612,218.2773 337.2962,217.0987 342.7637,214.7493 348.2312,211.1838 353.6987,209.2172 359.1661,208.3916 370.1011,207.5588 381.0361,206.2313 391.971,200.5829 397.4385,199.1137 402.906,196.461 408.3735,193.1854 413.841,192.0781 419.3085,195.6375 424.776,201.6336 430.2435,203.9488 435.711,200.4944 441.1785,194.8733 446.646,191.0742 452.1134,191.4499 457.5809,194.3845 468.5159,201.7119 473.9834,206.4488 479.4509,210.6218 484.9183,211.7401 490.3858,206.7291 495.8533,198.7726 501.3208,194.1199 506.7883,192.3917 512.2558,192.2458 517.7232,195.1744 523.1907,200.16 528.6582,204.4731 534.1257,207.9935 539.5932,212.5368 550.5281,230.9152 555.9956,234.6054 561.4631,234.2022 566.9306,234.5171 572.3981,240.2213 583.333,259.077 588.8005,262.358 605.2031,262.2881 610.6706,263.1422 616.138,266.5454 627.073,276.406 638.008,282.546 643.4755,287.0998 648.9429,288.0526 654.4104,287.0028 659.8779,287.1421 665.3454,290.6017 670.8129,295.2526 676.2803,297.3833 687.2153,299.1299 692.6828,298.8918 703.6178,295.8895 709.0853,296.3769 714.5527,298.4657 720.0202,298.5421 725.4877,297.8175 730.9552,298.4814 736.4227,303.5035 741.8901,307.9482 747.3576,306.0551 752.8251,300.4008 758.2926,294.1798 769.2276,285.2508 774.6951,278.8197 780.1625,269.6182 785.63,255.4356 791.0976,236.9918 796.5651,222.633 802.0326,215.9911 807.5,211.8341 812.9675,209.6951 818.435,209.5802 829.37,215.5064 834.8375,214.7909 845.7724,209.003 851.2399,207.7606 856.7074,210.4088 862.1749,215.3745 867.6424,218.0862 873.1098,217.8411 889.5123,215.7422 894.9798,213.2585 900.4473,211.8631 905.9147,214.1006 911.3822,220.4429 922.3172,237.0356 933.2522,256.9522 938.7196,265.2009 944.1871,270.0126 949.6546,272.9534 955.1221,277.4894"
       id="polyline146"
       style="stroke:#fcfaee;stroke-opacity:1" />
    <polyline
       points="955.1221,207.6133 949.6546,204.3869 944.1871,199.4273 927.7847,181.836 922.3172,174.865 916.8497,166.6433 911.3822,160.2437 900.4473,150.3149 889.5123,137.6177 884.0448,133.303 878.5773,131.0331 873.1098,130.1626 862.1749,130.0764 856.7074,131.2212 851.2399,135.062 845.7724,142.7296 840.3049,153.1208 834.8375,162.2617 829.37,167.1385 823.9025,167.6986 818.435,166.9045 807.5,167.612 802.0326,169.3238 796.5651,174.5393 791.0976,180.3604 785.63,184.8688 780.1625,187.1831 769.2276,190.7354 763.7601,190.1454 758.2926,187.6744 752.8251,185.672 747.3576,184.2198 741.8901,182.2152 736.4227,177.6088 730.9552,173.6978 725.4877,174.1207 720.0202,181.2271 714.5527,190.7491 709.0853,197.055 703.6178,197.9888 698.1503,195.8874 692.6828,194.7353 687.2153,194.512 681.7478,193.5922 676.2803,191.2815 665.3454,184.2269 659.8779,181.1537 643.4755,174.2727 638.008,171.504 627.073,168.0098 621.6055,163.8893 610.6706,152.3408 605.2031,147.237 599.7355,143.8272 594.268,142.1495 583.333,141.309 577.8656,140.2607 566.9306,137.335 550.5281,133.7564 539.5932,133.2443 534.1257,131.4702 528.6582,126.0387 523.1907,119.2319 517.7232,115.0904 512.2558,114.2288 506.7883,115.7139 501.3208,118.8451 495.8533,123.9206 490.3858,130.5031 484.9183,135.1072 479.4509,136.4319 473.9834,136.7187 468.5159,135.4914 463.0484,131.7737 452.1134,115.0591 446.646,113.3168 435.711,117.9136 430.2435,116.7603 419.3085,109.3182 413.841,107.2064 408.3735,107.8182 402.906,111.3913 397.4385,117.4517 391.971,124.7632 386.5035,131.3779 381.0361,135.564 375.5686,136.2445 370.1011,133.7636 364.6336,130.7845 359.1661,130.4002 353.6987,133.4437 348.2312,138.9002 342.7637,145.036 337.2962,150.3086 331.8287,153.897 326.3612,155.442 320.8937,155.3716 309.9588,154.2298 304.4913,154.7087 299.0238,156.6437 288.0888,161.374 277.1539,169.2369 271.6864,171.1943 266.2189,172.5591 260.7514,175.3163 255.2839,181.0173 249.8165,186.09 244.349,188.5414 233.414,190.167 227.9464,190.3637 222.4789,188.8944 217.0115,185.9735 206.0765,180.8871 200.609,177.1708 195.1415,172.2524 189.6741,165.5475 178.7391,147.6159 173.2716,140.5828 167.8041,138.508 162.3366,140.8772 156.8691,146.1838 145.9342,160.1904 140.4667,166.647 134.9992,170.3009 129.5317,170.3604 118.5968,166.817 107.6618,167.9216 102.1943,167.8521 96.7268,165.969 91.2594,161.2042 80.3244,147.9832 74.8569,142.5295 63.9219,134.0356 58.4545,128.6262 47.5195,113.7946 42.0519,107.0507 36.5844,100.7526 31.1169,96.9799 25.6495,97.3214 14.7145,104.8858 9.247,104.7255 3.7795,102.8876"
       id="polyline148"
       style="stroke:#fcfaee;stroke-opacity:1" />
    <polyline
       points="3.7795,3.8005 9.247,10.664 14.7145,13.5385 20.182,11.6967 25.6495,8.727 31.1169,8.4393 42.0519,14.1896 52.987,15.5283 58.4545,17.4425 63.9219,19.7837 69.3894,20.8073 74.8569,21.1934 80.3244,24.561 91.2594,39.1833 96.7268,44.0136 102.1943,44.7215 107.6618,43.5172 113.1293,40.6373 118.5968,36.8279 124.0643,35.5944 129.5317,35.7821 134.9992,34.5987 140.4667,27.0974 145.9342,16.3688 151.4017,9.9545 156.8691,8.6773 167.8041,10.1775 173.2716,12.8089 178.7391,20.8903 184.2066,29.7491 189.6741,35.7419 200.609,43.3926 206.0765,49.0326 211.544,56.394 222.4789,72.3419 227.9464,78.3324 233.414,82.5918 238.8815,86.1482 244.349,91.5761 249.8165,98.5603 255.2839,103.1807 260.7514,103.0054 266.2189,99.5519 271.6864,97.8143 277.1539,101.3144 282.6214,108.5896 288.0888,114.9693 293.5563,115.9983 299.0238,110.6665 304.4913,104.0907 309.9588,102.3059 315.4263,104.6509 320.8937,107.6591 326.3612,107.6148 337.2962,105.096 342.7637,101.1155 348.2312,92.5558 353.6987,80.503 359.1661,69.3597 364.6336,60.9956 370.1011,51.7844 375.5686,44.8885 381.0361,43.1783 386.5035,45.0312 391.971,47.9977 397.4385,49.9083 402.906,55.3144 408.3735,62.5048 413.841,65.8854 419.3085,65.7768 424.776,65.2197 430.2435,66.0009 435.711,68.6146 441.1785,71.6826 446.646,73.5702 452.1134,72.8904 457.5809,69.1239 468.5159,57.8828 479.4509,39.4459 484.9183,34.6917 490.3858,35.3976 495.8533,38.5321 501.3208,39.6562 506.7883,36.5012 512.2558,31.0304 517.7232,27.5717 523.1907,25.8677 528.6582,22.2018 534.1257,17.8478 539.5932,15.6499 545.0607,19.2659 550.5281,23.8181 555.9956,24.5921 566.9306,20.9452 572.3981,20.9345 577.8656,19.4391 583.333,16.7845 588.8005,15.676 594.268,17.1109 599.7355,20.8922 605.2031,26.6803 616.138,40.0721 627.073,51.8734 632.5405,59.0705 643.4755,74.7302 654.4104,98.1733 659.8779,104.3233 665.3454,105.4261 670.8129,104.676 676.2803,105.6853 687.2153,109.6788 692.6828,110.8022 698.1503,110.0055 703.6178,106.079 709.0853,100.1982 720.0202,86.3798 725.4877,81.8008 730.9552,82.2387 736.4227,89.621 741.8901,99.8504 747.3576,107.8241 752.8251,114.8596 758.2926,120.8852 763.7601,124.6585 769.2276,123.2817 774.6951,118.2651 780.1625,115.4101 785.63,115.5382 791.0976,114.7973 796.5651,111.6115 802.0326,106.8079 807.5,104.1387 812.9675,99.9227 818.435,91.4542 823.9025,82.0717 829.37,73.72 834.8375,67.4769 845.7724,54.09 851.2399,48.5873 856.7074,44.7888 862.1749,42.5533 867.6424,41.7682 873.1098,43.0696 878.5773,46.9072 889.5123,56.6556 894.9798,60.7963 900.4473,64.3755 905.9147,67.2931 911.3822,68.488 916.8497,71.139 922.3172,78.4249 927.7847,86.7714 933.2522,94.1546 938.7196,100.1174 944.1871,105.2117 949.6546,108.6625 955.1221,108.589"
       id="polyline150"
       style="stroke:#fcfaee;stroke-opacity:1" />
  </g>
  <g
     fill="none"
     id="layer2"
     inkscape:groupmode="layer"
     inkscape:label="2"
     stroke="#000000"
     stroke-width="0.7244"
     style="display:inline;stroke:#bc9eca;stroke-opacity:1">
    <polyline
       points="955.1221,697.5877 881.9419,656.625 808.7618,697.8923 735.5815,683.2529 662.4014,718.1724 589.2211,721.8089 516.0409,631.4695 442.8608,642.2544 369.6805,693.5343 296.5004,685.0771 223.3201,653.7159 150.14,694.2882 76.9598,638.1078 3.7795,621.2032 3.7795,616.7468 76.9598,636.1395 150.14,692.7183 223.3201,649.1381 296.5004,683.2161 369.6805,689.8835 442.8608,638.8529 516.0409,627.4923 589.2211,718.9773 662.4014,714.3757 735.5815,679.1458 808.7618,695.8541 881.9419,652.6426 955.1221,692.452 955.1221,687.3378 881.9419,648.6526 808.7618,693.7874 735.5815,675.084 662.4014,710.4776 589.2211,716.1759 516.0409,623.586 442.8608,635.4428 369.6805,686.2114 296.5004,681.2877 223.3201,644.6602 150.14,691.1468 76.9598,634.1289 3.7795,612.3419 3.7795,607.9967 76.9598,632.0846 150.14,689.5186 223.3201,640.316 296.5004,679.275 369.6805,682.5087 442.8608,632.0083 516.0409,619.7763 589.2211,713.4095 662.4014,706.4934 735.5815,671.0929 808.7618,691.6531 881.9419,644.6765 955.1221,682.295 955.1221,677.3705 881.9419,640.7349 808.7618,689.4144 735.5815,667.1963 662.4014,702.4383 589.2211,710.682 516.0409,616.087 442.8608,628.5346 369.6805,678.7664 296.5004,677.1626 223.3201,636.1372 150.14,687.7819 76.9598,630.0155 3.7795,603.7188 3.7795,599.5148 76.9598,627.9293 150.14,685.8896 223.3201,632.1515 296.5004,674.9364 369.6805,674.9769 442.8608,625.0086 516.0409,612.5394 589.2211,707.9973 662.4014,698.3268 735.5815,663.4157 808.7618,687.0383 881.9419,636.8463 955.1221,672.6071 955.1221,668.0405 881.9419,633.0263 808.7618,684.4964 735.5815,659.769 662.4014,694.1716 589.2211,705.3578 516.0409,609.151 442.8608,621.419 369.6805,671.1336 296.5004,672.5842 223.3201,628.3825 150.14,683.8019 76.9598,625.8326 3.7795,595.391 3.7795,591.3519 76.9598,623.7298 150.14,681.4874 223.3201,624.8482 296.5004,670.0959 369.6805,667.2317 442.8608,617.7575 516.0409,605.9355 589.2211,702.7655 662.4014,689.9834 735.5815,656.2704 808.7618,681.7665 881.9419,629.2873 955.1221,663.6996 955.1221,659.6041 881.9419,625.6377 808.7618,678.8333 735.5815,652.9293 662.4014,685.7706 589.2211,700.2212 516.0409,602.902 442.8608,614.0189 369.6805,663.2681 296.5004,667.4638 223.3201,621.5608 150.14,678.9246 76.9598,621.6234 3.7795,587.4017 3.7795,583.552 76.9598,619.519 150.14,676.1365 223.3201,618.4772 296.5004,664.7093 369.6805,659.261 442.8608,610.1878 516.0409,600.0307 589.2211,697.729 662.4014,681.5308 735.5815,649.7505 808.7618,675.6965 881.9419,622.0659 955.1221,655.7722 955.1221,652.242 881.9419,618.494 808.7618,672.3922 735.5815,646.7331 662.4014,677.2283 589.2211,695.309 516.0409,597.2069 442.8608,606.2007 369.6805,655.3042 296.5004,661.9584 223.3201,615.36 150.14,673.2871 76.9598,617.4418 3.7795,579.848 3.7795,576.2937 76.9598,615.3919 150.14,670.3995 223.3201,612.1793 296.5004,659.2215 369.6805,651.408 442.8608,602.0543 516.0409,594.4149 589.2211,692.9594 662.4014,672.8633 735.5815,643.8703 808.7618,668.9285 881.9419,614.9121 955.1221,649.0076 955.1221,646.0474 881.9419,611.3212 808.7618,665.3115 735.5815,641.1487 662.4014,668.4442 589.2211,690.6727 516.0409,591.6557 442.8608,597.7582 369.6805,647.5676 296.5004,656.4876 223.3201,608.9396 150.14,667.4755 76.9598,613.3646 3.7795,572.8838 3.7795,569.6099 76.9598,611.3545 150.14,664.5181 223.3201,605.6477 296.5004,653.7424 369.6805,643.7754 442.8608,593.326 516.0409,588.931 589.2211,688.4386 662.4014,663.9813 735.5815,638.5497 808.7618,661.5505 881.9419,607.7225 955.1221,643.3295 955.1221,640.8136 881.9419,604.1177 808.7618,657.6576 735.5815,636.0496 662.4014,659.4873 589.2211,686.2444 516.0409,586.2429 442.8608,588.774 369.6805,640.0214 296.5004,650.9684 223.3201,602.3121 150.14,661.5309 76.9598,609.3553 3.7795,566.4608 3.7795,563.4229 76.9598,607.3599 150.14,658.5186 223.3201,598.943 296.5004,648.146 369.6805,636.294 442.8608,584.1215 516.0409,583.5939 589.2211,684.0757 662.4014,654.9765 735.5815,633.6205 808.7618,653.647 881.9419,600.5084 955.1221,638.4519 955.1221,636.1916 881.9419,596.897 808.7618,649.5352 735.5815,631.2318 662.4014,650.4642 589.2211,681.9166 516.0409,580.9867 442.8608,579.39 369.6805,632.5801 296.5004,645.254 223.3201,595.5519 150.14,655.4864 76.9598,605.3609 3.7795,560.4804 3.7795,557.6167 76.9598,603.3506 150.14,652.4397 223.3201,592.1508 296.5004,642.2706 369.6805,628.8659 442.8608,574.6024 516.0409,578.4237 589.2211,679.7507 662.4014,645.9666 735.5815,628.8511 808.7618,645.3399 881.9419,593.2853 955.1221,633.9766 955.1221,631.7499 881.9419,589.6754 808.7618,641.0796 735.5815,626.4458 662.4014,641.5001 589.2211,677.5612 516.0409,575.9071 442.8608,569.7825 369.6805,625.1374 296.5004,639.1746 223.3201,588.7517 150.14,649.3846 76.9598,601.3214 3.7795,554.8139 3.7795,552.0542 150.14,646.3268 223.3201,585.3667 296.5004,635.9458 369.6805,621.381 442.8608,564.9539 516.0409,573.4382 589.2211,675.3321 662.4014,637.0805 735.5815,623.9841 808.7618,636.7734 881.9419,586.0691 955.1221,629.456 955.1221,627.0426 881.9419,582.468 808.7618,632.4398 735.5815,621.4365 662.4014,632.7229 589.2211,673.0485 516.0409,571.0178 442.8608,560.1398 369.6805,617.5841 296.5004,632.5665 223.3201,582.0067 150.14,643.272 76.9598,597.1764 3.7795,549.3202 3.7795,546.5953 76.9598,595.0474 150.14,640.2258 223.3201,578.6817 296.5004,629.0218 369.6805,613.7356 442.8608,555.3621 516.0409,568.6452 589.2211,670.6969 662.4014,628.4407 735.5815,618.7768 808.7618,628.0967 881.9419,578.8735 955.1221,624.4631 955.1221,621.6782 881.9419,575.2863 808.7618,623.7609 735.5815,615.9834 662.4014,624.2459 589.2211,668.2665 516.0409,566.3185 442.8608,550.6407 369.6805,609.8264 296.5004,625.3007 223.3201,575.3998 150.14,637.193 76.9598,592.8728 3.7795,543.8646 3.7795,541.1149 76.9598,590.6481 150.14,634.178 223.3201,572.1671 296.5004,621.3966 369.6805,605.85 442.8608,545.993 516.0409,564.0345 589.2211,665.7486 662.4014,620.1479 735.5815,613.0398 808.7618,619.4474 881.9419,571.707 955.1221,618.6575 955.1221,615.3806 881.9419,568.1353 808.7618,615.1692 735.5815,609.9357 662.4014,616.1538 589.2211,663.1379 516.0409,561.7884 442.8608,541.4337 369.6805,601.8023 296.5004,617.3077 223.3201,568.9875 150.14,631.1841 76.9598,588.3697 3.7795,538.3353 3.7795,535.544 76.9598,586.0002 150.14,628.1225 223.3201,565.8799 296.5004,613.0778 369.6805,597.7002 442.8608,536.9605 516.0409,559.6081 589.2211,660.5172 662.4014,612.31 735.5815,606.7026 808.7618,610.8663 881.9419,564.6001 955.1221,611.8703 955.1221,608.1872 881.9419,561.1535 808.7618,606.4179 735.5815,603.4078 662.4014,608.6946 589.2211,658.0432 516.0409,557.5488 442.8608,532.5559 369.6805,593.5787 296.5004,608.7897 223.3201,562.8749 150.14,624.8273 76.9598,583.4742 3.7795,532.7837 3.7795,530.0483 76.9598,580.7954 150.14,621.3095 223.3201,559.967 296.5004,604.4522 369.6805,589.4406 442.8608,528.2263 516.0409,555.5974 589.2211,655.7105 662.4014,605.3021 735.5815,600.0565 808.7618,601.8374 881.9419,557.7908 955.1221,604.3404 955.1221,600.3441 881.9419,554.502 808.7618,597.1469 735.5815,596.6549 662.4014,602.1176 589.2211,653.5042 516.0409,553.734 442.8608,523.977 369.6805,585.2889 296.5004,600.0727 223.3201,557.1461 150.14,617.593 76.9598,577.9743 3.7795,527.3306 3.7795,524.6231 76.9598,575.0255 150.14,613.7099 223.3201,554.3981 296.5004,595.6587 369.6805,581.1275 442.8608,519.8114 516.0409,551.9346 589.2211,651.4032 662.4014,599.12 735.5815,593.211 808.7618,592.373 881.9419,551.2743 955.1221,596.2193 955.1221,591.9919 881.9419,548.0917 808.7618,587.546 735.5815,589.7347 662.4014,596.2826 589.2211,649.3822 516.0409,550.1712 442.8608,515.7315 369.6805,576.9606 296.5004,591.2178 223.3201,551.7058 150.14,609.6993 76.9598,571.9676 3.7795,521.9185 3.7795,519.2094 76.9598,568.8221 150.14,605.6055 223.3201,549.0494 296.5004,586.7574 369.6805,572.7932 442.8608,511.7377 516.0409,548.4131 589.2211,647.4116 662.4014,593.5741 735.5815,586.2373 808.7618,582.699 881.9419,544.9363 955.1221,587.6925 955.1221,583.3545 881.9419,541.7886 808.7618,577.8672 735.5815,582.731 662.4014,590.9601 589.2211,645.4596 516.0409,546.6279 442.8608,507.8295 369.6805,568.6305 296.5004,582.2847 223.3201,546.4072 150.14,601.4767 76.9598,565.6129 3.7795,516.4886 3.7795,513.7494 76.9598,562.3646 150.14,597.3628 223.3201,543.7567 296.5004,577.8066 369.6805,564.4779 442.8608,504.0052 516.0409,544.7825 589.2211,643.4926 662.4014,588.4047 735.5815,579.2286 808.7618,573.086 881.9419,538.6284 955.1221,579.013 955.1221,574.7035 881.9419,535.4356 808.7618,568.3905 735.5815,575.7427 662.4014,585.8716 589.2211,641.4772 516.0409,542.844 442.8608,500.2626 369.6805,560.3408 296.5004,573.3297 223.3201,541.0754 150.14,593.3139 76.9598,559.1025 3.7795,510.9853 3.7795,508.1906 76.9598,555.8504 150.14,589.3776 223.3201,538.3418 296.5004,568.8599 369.6805,556.2242 442.8608,496.5991 516.0409,540.7814 589.2211,639.3813 662.4014,583.3257 735.5815,572.2855 808.7618,563.8138 881.9419,532.1908 955.1221,570.4599 955.1221,566.3139 881.9419,528.8765 808.7618,559.3863 735.5815,568.8682 662.4014,580.7346 589.2211,637.1752 516.0409,538.5665 442.8608,493.012 369.6805,552.1329 296.5004,564.4025 223.3201,535.5358 150.14,585.5981 76.9598,552.6307 3.7795,505.3602 3.7795,502.4898 76.9598,549.4627 150.14,582.0133 223.3201,532.6401 296.5004,559.9621 369.6805,548.0711 442.8608,489.4987 516.0409,536.1747 589.2211,634.8331 662.4014,578.0702 735.5815,565.5006 808.7618,555.1342 881.9419,525.4772 955.1221,562.293 955.1221,558.4197 881.9419,521.9805 808.7618,551.0786 735.5815,562.1905 662.4014,575.3093 589.2211,632.3337 516.0409,533.5859 442.8608,486.0568 369.6805,544.0423 296.5004,555.5425 223.3201,529.6405 150.14,578.6545 76.9598,546.3622 3.7795,499.576 3.7795,496.6162 76.9598,543.3407 150.14,575.5444 223.3201,526.5267 296.5004,551.1466 369.6805,540.0491 442.8608,482.6848 516.0409,530.7855 589.2211,629.6615 662.4014,572.4347 735.5815,558.9438 808.7618,547.2353 881.9419,518.3773 955.1221,554.7107 955.1221,551.1753 881.9419,514.6641 808.7618,543.6122 735.5815,555.764 662.4014,569.4371 589.2211,626.8054 516.0409,527.7655 442.8608,479.3812 369.6805,536.0918 296.5004,546.776 223.3201,523.2929 150.14,572.6964 76.9598,540.4048 3.7795,493.608 3.7795,490.4504 76.9598,537.5289 150.14,570.1062 223.3201,520.0003 296.5004,542.3903 369.6805,532.0087 442.8608,476.1122 516.0409,524.5813 589.2211,623.591 662.4014,566.3876 735.5815,552.6628 808.7618,540.0548 881.9419,511.0174 955.1221,547.7488 955.1221,544.3851 881.9419,507.5534 808.7618,536.4566 735.5815,549.6459 662.4014,563.3379 589.2211,619.9105 516.0409,521.2748 442.8608,472.8562 369.6805,527.6947 296.5004,537.9631 223.3201,516.6952 150.14,567.7624 76.9598,534.6915 3.7795,487.0802 3.7795,483.5094 76.9598,531.8853 150.14,565.6494 223.3201,513.3881 296.5004,533.4981 369.6805,523.1614 442.8608,469.6167 516.0409,517.8519 589.2211,615.7863 662.4014,560.2923 808.7618,532.8161 881.9419,504.261 955.1221,541.0828 955.1221,537.84 881.9419,501.1223 808.7618,529.131 735.5815,543.8476 662.4014,557.2573 589.2211,611.2536 516.0409,514.3223 442.8608,466.3991 369.6805,518.4268 296.5004,529.0009 223.3201,510.095 150.14,563.7427 76.9598,529.0987 3.7795,479.7575 3.7795,475.8499 76.9598,526.3166 150.14,562.01 223.3201,506.8373 296.5004,524.4782 369.6805,513.5149 442.8608,463.2102 516.0409,510.6991 589.2211,606.3594 662.4014,554.2417 735.5815,541.0523 808.7618,525.398 881.9419,498.1136 955.1221,534.6536 955.1221,531.5202 881.9419,495.2064 808.7618,521.6136 735.5815,538.3141 662.4014,551.2561 589.2211,601.1604 516.0409,506.9976 442.8608,460.0582 369.6805,508.4545 296.5004,519.9383 223.3201,503.6404 150.14,560.412 76.9598,523.5208 3.7795,471.8178 3.7795,467.6964 76.9598,520.6912 150.14,558.9047 223.3201,500.5327 296.5004,515.3904 369.6805,503.2784 442.8608,456.9523 516.0409,503.2356 589.2211,595.7211 662.4014,548.3123 735.5815,535.6221 808.7618,517.7733 881.9419,492.368 955.1221,528.4356 955.1221,525.3951 881.9419,489.5637 808.7618,513.873 735.5815,532.9649 662.4014,545.4229 589.2211,590.1117 516.0409,499.4322 442.8608,453.9018 369.6805,498.0223 296.5004,510.8442 223.3201,497.5442 150.14,557.4403 76.9598,517.8061 3.7795,463.524 3.7795,459.3402 76.9598,514.8439 150.14,555.9697 223.3201,494.705 296.5004,506.31 369.6805,492.7229 442.8608,450.9158 516.0409,495.6068 589.2211,584.4044 662.4014,542.6006 735.5815,530.3305 808.7618,509.9082 881.9419,486.7575 955.1221,522.3938 955.1221,519.4264 881.9419,483.9136 735.5815,527.7069 662.4014,539.8579 589.2211,578.6718 516.0409,491.7791 442.8608,448.0027 369.6805,487.4177 296.5004,501.7976 223.3201,492.044 150.14,554.4437 76.9598,511.7836 3.7795,455.1847 3.7795,451.0959 76.9598,508.6058 150.14,552.8158 223.3201,489.5871 296.5004,497.3166 369.6805,482.1424 442.8608,445.1697 516.0409,487.9676 589.2211,572.9837 662.4014,537.2059 735.5815,525.083 808.7618,501.7699 881.9419,480.9983 955.1221,516.4875 955.1221,513.572 881.9419,477.9811 808.7618,497.5903 735.5815,522.4485 662.4014,534.6545 589.2211,567.4044 516.0409,484.1892 442.8608,442.4222 369.6805,476.9307 296.5004,492.8754 223.3201,487.3563 150.14,551.0429 76.9598,505.2939 3.7795,447.1091 3.7795,443.2557 76.9598,501.8346 150.14,549.0881 223.3201,485.3681 296.5004,488.4816 369.6805,471.8126 442.8608,439.7632 516.0409,480.4587 589.2211,561.9909 662.4014,532.2113 735.5815,519.7946 808.7618,493.3346 881.9419,474.8356 955.1221,510.6744 955.1221,507.79 881.9419,471.5412 808.7618,489.0023 735.5815,517.1142 662.4014,529.8814 589.2211,556.7903 516.0409,476.7877 442.8608,437.1934 369.6805,466.8135 296.5004,484.1412 223.3201,483.6324 150.14,546.921 76.9598,498.2191 3.7795,439.5615 3.7795,436.0467 76.9598,494.443 150.14,544.5196 223.3201,482.1522 296.5004,479.8583 369.6805,461.9536 442.8608,434.7104 516.0409,473.1847 589.2211,551.8385 662.4014,527.6671 735.5815,514.4024 808.7618,484.5942 881.9419,468.0834 955.1221,504.9141 955.1221,502.0438 881.9419,464.4455 808.7618,480.1204 735.5815,511.66 662.4014,525.5551 589.2211,547.1321 516.0409,469.6357 442.8608,432.3151 369.6805,457.2486 296.5004,475.6197 223.3201,480.9092 150.14,541.8704 76.9598,490.5113 3.7795,432.7126 3.7795,429.4486 76.9598,486.4712 150.14,538.9639 223.3201,479.7561 296.5004,471.2656 369.6805,452.7239 442.8608,430.0619 516.0409,465.9509 589.2211,542.4133 662.4014,523.4134 735.5815,508.9232 808.7618,475.662 881.9419,460.5319 955.1221,499.1892 955.1221,496.35 881.9419,456.3294 808.7618,471.241 735.5815,506.2019 662.4014,521.2077 589.2211,537.6215 516.0409,462.0868 442.8608,427.9526 369.6805,448.3849 296.5004,466.7604 223.3201,478.6434 150.14,535.8049 76.9598,482.3429 3.7795,426.2284 3.7795,423.0553 76.9598,478.1386 150.14,532.4086 223.3201,477.5563 296.5004,462.1169 442.8608,425.967 516.0409,458.0558 589.2211,532.7678 662.4014,518.9405 735.5815,503.4963 808.7618,466.8558 881.9419,451.8614 955.1221,493.5221 955.1221,490.7012 881.9419,447.1627 808.7618,462.503 735.5815,500.8073 662.4014,516.6181 589.2211,527.8644 516.0409,453.8765 442.8608,424.0791 369.6805,440.2306 296.5004,457.3539 223.3201,476.4796 150.14,528.7993 76.9598,473.8732 3.7795,419.9316 3.7795,416.8587 76.9598,469.5639 150.14,525.0089 223.3201,475.3979 296.5004,452.4953 369.6805,436.383 442.8608,422.2583 516.0409,449.5721 589.2211,522.9243 662.4014,514.2494 735.5815,498.1357 808.7618,458.1763 881.9419,442.2775 955.1221,487.883 955.1221,485.0631 881.9419,437.258 808.7618,453.868 735.5815,495.4825 662.4014,511.8461 589.2211,517.961 516.0409,445.1705 442.8608,420.4703 369.6805,432.6579 296.5004,447.5697 223.3201,474.296 150.14,521.0755 76.9598,465.2293 3.7795,413.8371 3.7795,410.8668 76.9598,460.8894 150.14,517.0423 223.3201,473.1588 296.5004,442.6085 369.6805,429.0274 442.8608,418.678 516.0409,440.7024 589.2211,512.9884 662.4014,509.4217 735.5815,492.849 808.7618,449.5689 881.9419,432.1624 955.1221,482.237 955.1221,479.4004 881.9419,427.0523 808.7618,445.2688 735.5815,490.2363 662.4014,506.9909 589.2211,508.0205 516.0409,436.2006 442.8608,416.8431 369.6805,425.461 296.5004,437.6454 223.3201,471.9718 150.14,512.9553 76.9598,456.5648 3.7795,407.9468 3.7795,405.0757 76.9598,452.2759 150.14,508.8617 296.5004,432.7147 369.6805,421.9272 442.8608,414.9271 516.0409,431.6986 589.2211,503.0711 662.4014,504.5689 735.5815,487.6454 808.7618,440.9574 881.9419,421.9905 955.1221,476.5494 955.1221,473.68 881.9419,417.0387 808.7618,436.6244 735.5815,485.0773 662.4014,502.1706 589.2211,498.1533 516.0409,427.2291 442.8608,412.8932 369.6805,418.3948 296.5004,427.8499 223.3201,469.3935 150.14,504.808 76.9598,448.0423 3.7795,402.2517 3.7795,399.473 76.9598,443.8825 150.14,500.8378 223.3201,467.9771 296.5004,423.0826 369.6805,414.8339 442.8608,410.7069 516.0409,422.8232 589.2211,493.2797 662.4014,499.8098 735.5815,482.5327 808.7618,432.2604 881.9419,412.2542 955.1221,470.7887 955.1221,467.8721 881.9419,407.6891 808.7618,427.8572 735.5815,480.0119 662.4014,497.4989 589.2211,488.4615 516.0409,418.5088 442.8608,408.3374 369.6805,411.2184 296.5004,418.4409 223.3201,466.4611 150.14,496.9904 76.9598,439.8129 3.7795,396.7373 3.7795,394.0425 76.9598,435.8474 150.14,493.2992 223.3201,464.8361 296.5004,413.9488 369.6805,407.5258 442.8608,405.7592 516.0409,414.3096 589.2211,483.7088 662.4014,495.2476 735.5815,477.5148 808.7618,423.4084 881.9419,403.3864 955.1221,464.9277 955.1221,461.953 881.9419,399.38 808.7618,418.9096 735.5815,475.0411 662.4014,493.0631 589.2211,479.0302 516.0409,410.2446 442.8608,402.9524 369.6805,403.7388 296.5004,409.625 223.3201,463.0941 150.14,489.7899 76.9598,431.9973 3.7795,391.3867 3.7795,388.768 76.9598,428.2702 150.14,486.4799 223.3201,461.2287 296.5004,405.482 369.6805,399.8463 442.8608,399.904 516.0409,406.3267 589.2211,474.4325 662.4014,490.9491 735.5815,472.5897 808.7618,414.3589 881.9419,395.6921 955.1221,458.9463 955.1221,455.8923 881.9419,392.3179 808.7618,409.7741 735.5815,470.1551 662.4014,488.9329 589.2211,469.908 516.0409,402.5797 442.8608,396.6162 369.6805,395.8728 296.5004,401.5233 223.3201,459.3066 150.14,483.4031 76.9598,424.6477 3.7795,386.1654 3.7795,383.5128 76.9598,421.0538 150.14,480.6433 223.3201,457.5612 296.5004,397.7409 369.6805,391.9168 442.8608,393.1189 516.0409,399.0601 589.2211,465.4167 662.4014,487.1009 735.5815,467.7225 808.7618,405.2162 881.9419,389.2047 955.1221,452.7437 955.1221,449.4971 881.9419,386.3352 808.7618,400.6966 735.5815,465.29 662.4014,485.4497 589.2211,460.9567 516.0409,395.7644 442.8608,389.4211 369.6805,387.9889 296.5004,394.1296 223.3201,455.9981 150.14,478.1949 76.9598,417.4809 3.7795,380.8055 3.7795,378.0452 76.9598,413.9256 150.14,476.0345 223.3201,454.5949 296.5004,390.6811 369.6805,384.0926 442.8608,385.5351 516.0409,392.6766 589.2211,456.5276 662.4014,483.9618 735.5815,462.8582 808.7618,396.225 881.9419,383.6851 955.1221,446.1541 955.1221,442.7172 881.9419,381.2204 808.7618,391.8139 735.5815,460.428 662.4014,482.6138 589.2211,452.1276 516.0409,389.7738 442.8608,381.4784 369.6805,380.2327 296.5004,387.3836 223.3201,453.3216 150.14,474.1291 76.9598,410.3827 3.7795,375.2354 3.7795,372.3805 76.9598,406.8452 150.14,472.4372 223.3201,452.1412 296.5004,384.2218 369.6805,376.4147 442.8608,377.2729 516.0409,387.0265 589.2211,447.7532 662.4014,481.3771 735.5815,458.0016 808.7618,387.4777 881.9419,378.8988 955.1221,439.19 955.1221,435.577 881.9419,376.6714 808.7618,383.2325 735.5815,455.5813 662.4014,480.2189 589.2211,443.4002 516.0409,384.4003 442.8608,372.9445 369.6805,372.645 296.5004,381.1779 223.3201,451.0117 150.14,470.9102 76.9598,403.3049 3.7795,369.4861 3.7795,366.5584 76.9598,399.7525 150.14,469.4945 223.3201,449.8872 296.5004,378.2321 369.6805,368.9299 442.8608,368.5215 516.0409,381.857 589.2211,439.0634 662.4014,479.103 735.5815,453.1702 808.7618,379.0952 881.9419,374.4843 955.1221,431.8836 955.1221,428.116 881.9419,372.2814 808.7618,375.0825 735.5815,450.7709 662.4014,477.9918 589.2211,434.7372 516.0409,379.3563 442.8608,364.0346 369.6805,365.276 296.5004,375.3631 223.3201,448.72 150.14,468.1335 76.9598,396.1789 3.7795,363.604 3.7795,360.6301 76.9598,392.5746 150.14,466.7694 223.3201,447.4624 296.5004,372.549 369.6805,361.6893 442.8608,359.5148 516.0409,376.8573 589.2211,430.4161 662.4014,476.8472 735.5815,448.3863 808.7618,371.2104 881.9419,370.0065 955.1221,424.2813 955.1221,420.387 881.9419,367.6055 808.7618,367.4928 735.5815,446.0185 662.4014,475.6316 589.2211,426.0947 516.0409,374.3198 442.8608,354.9931 369.6805,358.1751 296.5004,369.7679 223.3201,446.0682 150.14,465.3459 76.9598,388.931 3.7795,357.6432 3.7795,354.65 76.9598,385.2407 150.14,463.8099 223.3201,444.4954 296.5004,366.9987 369.6805,354.7379 442.8608,350.4991 516.0409,371.7067 589.2211,421.7687 662.4014,474.3104 735.5815,443.6691 808.7618,363.9417 881.9419,365.0286 955.1221,416.4411 955.1221,412.4524 881.9419,362.2329 808.7618,360.5652 735.5815,441.3388 662.4014,472.8517 589.2211,417.4346 516.0409,368.9844 442.8608,346.0603 369.6805,351.3804 296.5004,364.2219 223.3201,442.7069 150.14,462.1137 76.9598,381.4979 3.7795,351.6562 3.7795,348.6669 76.9598,377.6984 150.14,460.2163 223.3201,440.6725 296.5004,361.4197 369.6805,348.1041 442.8608,341.7008 516.0409,366.1248 589.2211,413.0903 662.4014,471.2287 735.5815,439.0268 808.7618,357.368 881.9419,359.1835 955.1221,408.4298 955.1221,404.3824 881.9419,355.8557 808.7618,354.3501 735.5815,436.7313 662.4014,469.4199 589.2211,408.7355 516.0409,363.1062 442.8608,337.4408 369.6805,344.9083 296.5004,358.5772 223.3201,438.3701 150.14,458.0854 76.9598,373.8406 3.7795,345.6857 3.7795,342.7154 76.9598,369.9252 150.14,455.6982 223.3201,435.7864 296.5004,355.6822 369.6805,341.7908 442.8608,333.2962 516.0409,359.9139 589.2211,404.3714 662.4014,467.4097 735.5815,434.4493 808.7618,351.5071 881.9419,352.2354 955.1221,400.3195 955.1221,396.2784 881.9419,348.345 808.7618,348.7548 735.5815,432.1652 662.4014,465.2494 589.2211,400.0546 516.0409,356.6295 442.8608,329.1918 369.6805,338.772 296.5004,352.7549 223.3201,433.0681 150.14,453.091 76.9598,365.9959 3.7795,339.7784 3.7795,336.901 76.9598,362.1088 150.14,450.3231 223.3201,430.4091 296.5004,349.826 369.6805,335.8769 442.8608,325.0257 516.0409,353.3648 589.2211,395.8566 662.4014,463.0118 735.5815,429.8593 808.7618,345.9859 881.9419,344.2246 955.1221,392.3035 955.1221,388.4003 881.9419,339.8924 808.7618,343.1908 735.5815,427.5257 662.4014,460.6942 589.2211,391.7778 516.0409,350.1174 442.8608,320.8095 369.6805,333.0941 296.5004,346.8899 223.3201,427.806 150.14,447.3967 76.9598,358.2674 3.7795,334.0791 3.7795,331.3056 76.9598,354.4742 150.14,444.3199 223.3201,425.2507 296.5004,343.9414 442.8608,316.5576 516.0409,346.8845 589.2211,387.8156 662.4014,458.2947 735.5815,425.1579 808.7618,340.3625 881.9419,335.3757 955.1221,384.5717 955.1221,380.8179 881.9419,330.7093 808.7618,337.4962 735.5815,422.7495 662.4014,455.8131 589.2211,383.9647 516.0409,343.6632 442.8608,312.2868 369.6805,327.8001 296.5004,340.9764 223.3201,422.7318 150.14,441.1056 76.9598,350.7304 3.7795,328.5705 3.7795,325.8615 76.9598,347.0364 150.14,437.7717 223.3201,420.2349 296.5004,337.9915 369.6805,325.2487 442.8608,308.0153 516.0409,340.4505 589.2211,380.2175 662.4014,453.2497 735.5815,420.2938 808.7618,334.5886 881.9419,325.9348 955.1221,377.1371 955.1221,373.5255 881.9419,321.0991 808.7618,331.6386 735.5815,417.7842 662.4014,450.6062 589.2211,376.565 516.0409,337.2437 442.8608,303.7626 369.6805,322.73 296.5004,334.984 223.3201,417.743 150.14,434.3395 76.9598,343.392 3.7795,323.1645 3.7795,320.464 76.9598,339.7961 150.14,430.833 223.3201,415.2375 296.5004,331.952 369.6805,320.2193 442.8608,299.5487 516.0409,334.0397 589.2211,372.9964 662.4014,447.8847 735.5815,415.2139 808.7618,328.6463 881.9419,316.2523 955.1221,369.9777 955.1221,366.4874 881.9419,311.4459 808.7618,325.613 735.5815,412.5771 662.4014,445.0881 589.2211,369.5004 516.0409,330.836 442.8608,295.3938 369.6805,317.6911 296.5004,328.8939 223.3201,412.6994 150.14,427.2779 76.9598,336.2471 3.7795,317.744 3.7795,314.9883 76.9598,332.7433 150.14,423.7001 223.3201,410.1089 296.5004,325.8088 369.6805,315.1205 442.8608,291.3173 516.0409,327.6301 589.2211,366.0654 662.4014,442.2196 735.5815,409.8676 808.7618,322.5408 881.9419,306.7312 955.1221,363.0475 955.1221,359.6509 881.9419,302.157 808.7618,319.4324 735.5815,407.0801 662.4014,439.2823 589.2211,362.6801 516.0409,324.4196 442.8608,287.3374 369.6805,312.484 296.5004,322.6963 223.3201,407.4474 150.14,420.1249 76.9598,329.2826 3.7795,312.1815 3.7795,309.3096 76.9598,325.8631 150.14,416.5755 223.3201,404.6977 296.5004,319.556 369.6805,309.7601 442.8608,283.4706 589.2211,359.3338 662.4014,436.2793 735.5815,404.21 808.7618,316.2907 881.9419,297.7676 955.1221,356.2906 955.1221,352.9604 881.9419,293.6017 808.7618,313.1183 735.5815,401.2531 662.4014,433.2136 589.2211,356.0175 442.8608,279.7309 369.6805,306.9304 296.5004,316.3878 223.3201,401.8448 150.14,413.0724 76.9598,322.4829 3.7795,306.3601 3.7795,303.3231 76.9598,319.1405 150.14,409.632 223.3201,398.8766 296.5004,313.1918 369.6805,303.9801 442.8608,276.1296 516.0409,314.7426 589.2211,352.7235 662.4014,430.0873 735.5815,398.2063 808.7618,309.9178 881.9419,289.6902 955.1221,349.6553 955.1221,346.3714 881.9419,286.0557 808.7618,306.691 735.5815,395.0674 662.4014,426.9023 589.2211,349.4465 516.0409,311.4973 442.8608,272.6748 369.6805,300.8985 296.5004,309.9681 223.3201,395.7842 150.14,406.2665 76.9598,315.8346 3.7795,300.1915 3.7795,296.9668 76.9598,312.5669 150.14,402.9832 223.3201,392.5565 296.5004,306.7173 369.6805,297.679 442.8608,269.3679 516.0409,308.2351 589.2211,346.1871 662.4014,423.6603 735.5815,391.8372 808.7618,303.4383 881.9419,282.709 955.1221,343.1042 955.1221,339.7798 881.9419,279.5892 808.7618,300.148 735.5815,388.5761 662.4014,420.3834 589.2211,343.0612 442.8608,266.116 369.6805,294.3094 296.5004,303.4593 223.3201,389.0053 150.14,399.7956 76.9598,309.4022 3.7795,293.824 3.7795,290.8416 76.9598,306.369 150.14,396.704 223.3201,385.0521 296.5004,300.2038 369.6805,290.789 442.8608,262.8754 516.0409,301.0447 589.2211,340.1191 662.4014,417.0794 735.5815,385.3136 808.7618,296.8152 881.9419,276.6624 955.1221,336.3694 955.1221,332.8867 881.9419,273.9194 808.7618,293.4421 735.5815,382.0521 662.4014,413.7418 589.2211,337.3498 516.0409,297.0548 442.8608,259.6476 369.6805,287.1284 296.5004,296.9517 223.3201,380.7187 150.14,393.6954 76.9598,303.463 3.7795,288.0103 3.7795,285.3155 76.9598,300.6771 150.14,390.75 223.3201,376.0386 296.5004,293.7041 369.6805,283.3442 442.8608,256.4352 516.0409,292.8313 589.2211,334.7367 662.4014,410.3614 735.5815,378.7949 808.7618,290.0321 881.9419,271.3461 955.1221,329.3523 955.1221,325.7933 881.9419,268.9236 808.7618,286.5898 735.5815,375.5466 662.4014,406.9253 589.2211,332.2576 516.0409,288.4066 442.8608,253.2413 369.6805,279.4578 296.5004,290.4629 223.3201,371.056 150.14,387.8419 76.9598,298.0023 3.7795,282.7381 3.7795,280.2552 76.9598,295.4272 150.14,384.9402 223.3201,365.8239 296.5004,287.2303 369.6805,275.495 442.8608,250.0698 516.0409,283.8189 589.2211,329.8861 662.4014,403.419 735.5815,372.3123 808.7618,283.1209 881.9419,266.6294 955.1221,322.2417 955.1221,318.7336 881.9419,264.438 808.7618,279.632 735.5815,369.0978 662.4014,399.8262 589.2211,327.5921 516.0409,279.1118 442.8608,246.9247 369.6805,271.4848 296.5004,284.0086 223.3201,360.402 150.14,382.0103 76.9598,292.9391 3.7795,277.8408 3.7795,275.467 76.9598,290.5241 150.14,379.0155 223.3201,354.8548 296.5004,280.8006 369.6805,267.4585 442.8608,243.8105 516.0409,274.3319 589.2211,325.343 662.4014,396.1298 735.5815,365.9086 808.7618,276.1306 881.9419,262.3217 955.1221,315.3066 955.1221,311.9989 881.9419,260.2515 808.7618,272.6249 735.5815,362.7502 662.4014,392.3132 589.2211,323.1052 516.0409,269.5277 442.8608,240.7314 369.6805,263.448 296.5004,277.6092 223.3201,349.2491 150.14,375.9183 76.9598,288.1674 3.7795,273.1049 3.7795,270.7256 76.9598,285.8537 150.14,372.6823 223.3201,343.6512 296.5004,274.4376 369.6805,259.485 442.8608,237.6914 516.0409,264.747 589.2211,320.8446 662.4014,388.3605 735.5815,359.6275 808.7618,269.1237 881.9419,258.1985 955.1221,308.8473 955.1221,305.8854 881.9419,256.1344 808.7618,265.6361 735.5815,356.5441 662.4014,384.258 589.2211,318.5285 516.0409,260.0358 442.8608,234.6941 369.6805,255.5993 296.5004,271.2887 223.3201,338.1247 150.14,369.2738 76.9598,283.5678 3.7795,268.3013 3.7795,265.8066 76.9598,281.2952 150.14,365.663 223.3201,332.7284 296.5004,268.1658 369.6805,251.8184 442.8608,231.7422 516.0409,255.4363 589.2211,316.1264 662.4014,379.9947 735.5815,353.5027 808.7618,262.1714 881.9419,254.0329 955.1221,303.142 955.1221,300.6396 881.9419,251.8701 808.7618,258.7391 735.5815,350.504 662.4014,375.563 589.2211,313.6109 516.0409,250.9852 442.8608,228.8376 369.6805,248.1654 296.5004,265.0718 223.3201,327.5138 150.14,361.8257 76.9598,279.022 3.7795,263.2189 3.7795,260.5194 76.9598,276.7356 150.14,357.7441 223.3201,322.5233 296.5004,262.0097 369.6805,244.659 442.8608,225.9813 516.0409,246.7128 589.2211,310.9589 662.4014,370.9593 735.5815,347.5471 808.7618,255.3488 881.9419,249.6257 955.1221,298.3933 955.1221,296.4098 881.9419,247.2832 808.7618,252.0094 735.5815,344.629 662.4014,366.1847 589.2211,308.152 516.0409,242.6416 442.8608,223.173 369.6805,241.3123 296.5004,258.982 223.3201,317.7891 150.14,353.408 76.9598,274.4249 3.7795,257.694 3.7795,254.7429 76.9598,272.0605 150.14,348.838 223.3201,313.3276 296.5004,256.0144 442.8608,220.4253 516.0409,238.7635 589.2211,305.1914 662.4014,361.2289 735.5815,341.7405 808.7618,248.7188 881.9419,244.8558 955.1221,294.675 955.1221,293.1032 881.9419,242.4952 808.7618,245.4143 735.5815,338.8487 662.4014,356.0019 589.2211,302.1581 516.0409,234.9451 442.8608,217.8238 369.6805,235.132 296.5004,253.255 223.3201,309.1206 150.14,344.184 76.9598,269.5098 3.7795,251.7224 3.7795,248.6413 76.9598,266.7512 150.14,339.4784 223.3201,305.1614 296.5004,250.7241 369.6805,232.3029 442.8608,215.3757 516.0409,231.1654 589.2211,299.0619 662.4014,350.5063 735.5815,335.9411 808.7618,242.0952 881.9419,240.2188 955.1221,291.6643 955.1221,290.3366 881.9419,238.0122 808.7618,238.7758 735.5815,333.0095 662.4014,344.7728 589.2211,295.8976 516.0409,227.4261 442.8608,213.0666 369.6805,229.6341 296.5004,248.408 223.3201,301.4376 150.14,334.7286 76.9598,263.794 3.7795,245.4992 3.7795,242.2977 76.9598,260.6549 150.14,329.9426 223.3201,297.9273 296.5004,246.2858 369.6805,227.1077 442.8608,210.8772 516.0409,223.728 589.2211,292.6614 662.4014,338.8407 735.5815,330.0451 808.7618,235.4733 881.9419,235.8581 955.1221,289.0938 955.1221,287.9061 881.9419,233.7364 808.7618,232.2071 735.5815,327.0388 662.4014,332.7567 589.2211,289.3504 516.0409,220.0703 442.8608,208.7834 369.6805,224.7003 296.5004,244.3303 223.3201,294.6 150.14,325.1286 76.9598,257.3576 3.7795,239.04 3.7795,235.7307 76.9598,253.9313 150.14,320.2949 223.3201,291.4185 296.5004,242.5094 369.6805,222.3847 442.8608,206.7578 516.0409,216.4509 589.2211,285.9626 662.4014,326.5739 735.5815,323.9818 808.7618,228.9979 881.9419,231.6253 955.1221,286.7406 955.1221,285.5627 881.9419,229.5011 808.7618,225.8676 735.5815,320.8651 662.4014,320.3492 589.2211,282.4971 516.0409,212.8669 442.8608,204.7701 369.6805,220.1301 296.5004,240.7867 223.3201,288.34 150.14,315.4502 76.9598,250.4094 3.7795,232.3756 3.7795,228.9811 76.9598,246.828 150.14,310.6026 223.3201,285.3184 296.5004,239.1236 369.6805,217.9044 442.8608,202.7889 516.0409,209.3147 589.2211,278.9536 662.4014,314.1422 735.5815,317.6801 808.7618,222.8382 881.9419,227.3403 955.1221,284.3369 955.1221,283.028 881.9419,225.1191 808.7618,219.9311 735.5815,314.4191 662.4014,308.0124 589.2211,275.3323 516.0409,205.7903 442.8608,200.7821 369.6805,215.6746 296.5004,237.4808 223.3201,282.3065 150.14,305.7605 76.9598,243.2244 3.7795,225.5542 3.7795,222.1018 76.9598,239.6349 150.14,300.9313 223.3201,279.2576 296.5004,235.8196 369.6805,213.4086 442.8608,198.7189 516.0409,202.2893 589.2211,271.634 662.4014,302.0175 735.5815,311.0747 808.7618,217.1663 881.9419,222.8148 955.1221,281.6022 955.1221,280.0282 881.9419,220.4065 808.7618,214.5619 735.5815,307.6406 662.4014,296.2111 589.2211,267.8597 516.0409,198.8077 442.8608,196.5706 369.6805,211.0765 296.5004,234.1037 223.3201,276.1278 150.14,296.1221 76.9598,236.094 3.7795,218.6306 3.7795,215.1465 76.9598,232.6321 150.14,291.3393 223.3201,272.8779 296.5004,232.3006 369.6805,208.6516 442.8608,194.3115 516.0409,195.3416 589.2211,264.0107 662.4014,290.6411 735.5815,304.1119 808.7618,212.1335 881.9419,217.8759 955.1221,278.2782 955.1221,276.3289 881.9419,215.2078 808.7618,209.8931 735.5815,300.4846 662.4014,285.3478 589.2211,260.0882 516.0409,191.8878 442.8608,191.9204 369.6805,206.1117 296.5004,230.3828 223.3201,269.4753 150.14,286.5884 76.9598,229.2743 3.7795,211.6547 3.7795,208.1589 76.9598,226.0399 150.14,281.8738 223.3201,265.8948 296.5004,228.3292 369.6805,203.4398 442.8608,189.3808 516.0409,188.444 589.2211,256.0932 662.4014,280.3624 735.5815,296.7563 808.7618,207.8491 881.9419,212.3906 955.1221,274.1621 955.1221,271.7653 881.9419,209.4169 808.7618,206.0058 735.5815,292.9262 662.4014,275.7063 589.2211,252.0268 516.0409,185.0084 442.8608,186.6821 369.6805,200.625 296.5004,226.1254 223.3201,262.1205 150.14,277.199 76.9598,222.9407 3.7795,204.6617 3.7795,201.1363 76.9598,219.9312 150.14,272.4926 223.3201,258.1675 296.5004,223.7792 369.6805,197.6424 442.8608,183.8342 516.0409,181.6429 589.2211,247.898 662.4014,271.3585 735.5815,288.9822 808.7618,204.3195 881.9419,206.3323 955.1221,269.2164 955.1221,266.7098 881.9419,203.2512 808.7618,202.6848 735.5815,284.8964 662.4014,267.2458 589.2211,243.7266 516.0409,178.4907 442.8608,180.8727 369.6805,194.4475 296.5004,221.324 223.3201,254.0905 150.14,267.5858 76.9598,216.8943 3.7795,197.5179 3.7795,193.8042 76.9598,213.8235 150.14,262.4814 223.3201,249.9045 296.5004,218.7641 369.6805,191.0513 442.8608,177.8043 516.0409,175.548 589.2211,239.5129 662.4014,263.3563 735.5815,280.6706 808.7618,201.091 881.9419,200.1774 955.1221,264.2493 955.1221,261.8279 881.9419,197.1092 808.7618,199.5296 735.5815,276.3087 662.4014,259.6726 589.2211,235.2559 516.0409,172.7972 442.8608,174.6391 369.6805,187.4769 296.5004,216.1047 223.3201,245.6314 150.14,257.1955 76.9598,210.7173 3.7795,189.9962 3.7795,186.0957 76.9598,207.5744 150.14,251.7501 223.3201,241.3015 296.5004,213.354 369.6805,183.7556 442.8608,171.3907 516.0409,170.2137 589.2211,230.9538 662.4014,256.1698 735.5815,271.8154 808.7618,197.9902 881.9419,194.0439 955.1221,259.4372 955.1221,257.0667 881.9419,190.9786 808.7618,196.4607 735.5815,267.1966 662.4014,252.8161 589.2211,226.6043 516.0409,167.7669 442.8608,168.0761 369.6805,179.9265 296.5004,210.5222 223.3201,236.9515 150.14,246.1722 76.9598,204.3936 3.7795,182.1049 3.7795,178.0265 76.9598,201.1736 150.14,240.4926 223.3201,232.6234 296.5004,207.6216 369.6805,176.0343 442.8608,164.715 516.0409,165.4214 589.2211,222.2051 662.4014,249.5748 735.5815,262.459 808.7618,194.9279 881.9419,187.9098 955.1221,254.7048 955.1221,252.3389 881.9419,184.8336 808.7618,193.3775 735.5815,257.6103 662.4014,246.4052 589.2211,217.7536 516.0409,163.1384 442.8608,161.329 369.6805,172.1278 296.5004,204.6658 223.3201,228.3622 150.14,234.7451 76.9598,197.9137 3.7795,173.864 3.7795,169.6218 76.9598,194.6131 150.14,228.9648 223.3201,224.2144 296.5004,201.6695 369.6805,168.2578 442.8608,157.9407 516.0409,160.877 589.2211,213.2473 662.4014,243.2645 735.5815,252.6597 808.7618,191.7951 881.9419,181.7462 955.1221,249.9561 955.1221,247.5436 881.9419,178.644 808.7618,190.1663 735.5815,247.617 662.4014,240.1097 589.2211,208.6842 516.0409,158.5962 442.8608,154.573 369.6805,164.4751 296.5004,198.648 223.3201,220.2253 150.14,223.1875 76.9598,191.2712 3.7795,165.3044 3.7795,160.9176 76.9598,187.8876 150.14,217.4476 223.3201,216.4369 296.5004,195.6167 369.6805,160.8284 442.8608,151.2481 516.0409,156.2562 589.2211,204.0628 662.4014,236.899 735.5815,242.4936 808.7618,188.4775 881.9419,175.5237 955.1221,245.0888 955.1221,242.5803 881.9419,172.3828 808.7618,186.716 735.5815,237.3018 662.4014,233.5938 589.2211,199.3824 516.0409,153.8197 442.8608,147.9868 369.6805,157.3623 296.5004,192.5903 223.3201,212.8861 150.14,211.7775 76.9598,184.462 3.7795,156.4675 3.7795,151.9611 76.9598,180.9945 150.14,206.2058 223.3201,209.6028 296.5004,189.5828 369.6805,154.1154 442.8608,144.8074 516.0409,151.254 589.2211,194.6435 662.4014,230.16 735.5815,232.0552 808.7618,184.8708 881.9419,169.2192 955.1221,240.0082 955.1221,237.3642 881.9419,166.032 808.7618,182.9326 735.5815,226.7684 662.4014,226.5697 589.2211,189.8474 516.0409,148.5316 442.8608,141.7255 369.6805,151.1187 296.5004,186.6069 223.3201,206.6079 150.14,200.7569 76.9598,177.485 3.7795,147.406 3.7795,142.8106 76.9598,173.9339 150.14,195.4499 223.3201,203.9124 296.5004,183.6735 369.6805,148.3944 442.8608,138.7528 516.0409,145.6314 589.2211,184.9969 662.4014,222.8019 735.5815,221.4574 808.7618,180.8947 881.9419,162.8212 955.1221,234.642 955.1221,231.8377 881.9419,159.5881 808.7618,178.7527 735.5815,216.1389 662.4014,218.8438 589.2211,180.0962 516.0409,142.5398 442.8608,135.8973 369.6805,145.9548 296.5004,180.7916 223.3201,201.5166 150.14,190.2976 76.9598,170.3417 3.7795,138.1837 3.7795,133.5424 76.9598,166.7771 150.14,185.2898 223.3201,199.394 296.5004,177.9047 369.6805,143.7666 442.8608,133.1019 516.0409,139.285 589.2211,175.1556 662.4014,214.6807 735.5815,210.83 808.7618,176.6914 881.9419,156.2881 955.1221,228.9473 955.1221,225.9699 881.9419,152.8866 808.7618,174.8646 735.5815,205.5486 662.4014,210.3083 589.2211,170.1861 516.0409,135.897 442.8608,130.3163 369.6805,141.7926 296.5004,174.9653 223.3201,197.5097 76.9598,163.2969 3.7795,128.9031 3.7795,124.275 76.9598,159.8942 150.14,175.662 223.3201,195.8314 296.5004,171.9828 369.6805,140.0174 442.8608,127.5423 516.0409,132.3817 589.2211,165.1951 662.4014,205.7407 735.5815,200.3138 808.7618,173.2547 881.9419,149.3932 955.1221,222.909 955.1221,219.7706 881.9419,145.8222 808.7618,171.8338 735.5815,195.1446 662.4014,201.0002 589.2211,160.191 516.0409,128.7496 442.8608,124.7819 369.6805,138.4188 296.5004,168.9691 223.3201,194.3179 150.14,171.0283 76.9598,156.5576 3.7795,119.6671 3.7795,115.0879 76.9598,153.2719 150.14,166.4983 223.3201,192.9197 296.5004,165.9376 369.6805,136.9677 442.8608,122.0372 516.0409,125.0158 589.2211,155.1824 662.4014,196.1173 735.5815,190.0603 808.7618,170.5646 881.9419,142.1912 955.1221,216.5631 955.1221,213.2964 881.9419,138.5209 808.7618,169.4021 735.5815,185.0803 662.4014,191.1288 589.2211,150.1789 516.0409,121.1992 442.8608,119.3104 369.6805,135.6298 296.5004,162.9033 223.3201,191.581 150.14,162.0543 76.9598,150.0181 3.7795,110.5457 3.7795,106.0481 76.9598,146.7748 150.14,157.6763 223.3201,190.2413 296.5004,159.8822 369.6805,134.3665 442.8608,116.6036 516.0409,117.3218 589.2211,145.1899 662.4014,186.0768 735.5815,180.223 808.7618,168.2955 881.9419,134.8346 955.1221,209.982 955.1221,206.6324 881.9419,131.1568 808.7618,167.1896 735.5815,175.5065 662.4014,181.0066 589.2211,140.2251 516.0409,113.4075 442.8608,113.9187 369.6805,133.1367 296.5004,156.8908 223.3201,188.8372 150.14,153.3418 76.9598,143.5187 3.7795,101.6019 3.7795,97.2138 76.9598,140.2258 150.14,149.0276 223.3201,187.3048 296.5004,153.9456 369.6805,131.8979 442.8608,111.2578 516.0409,109.4811 589.2211,135.2938 662.4014,175.9653 808.7618,166.0277 881.9419,127.5127 955.1221,203.2603 955.1221,199.8785 881.9419,123.9271 808.7618,164.7534 735.5815,166.562 662.4014,170.9996 589.2211,130.4053 516.0409,105.5677 442.8608,108.6226 369.6805,130.6082 296.5004,151.0624 223.3201,185.5819 150.14,144.7103 76.9598,136.872 3.7795,92.8894 3.7795,88.6337 76.9598,133.4347 150.14,140.3675 223.3201,183.6099 296.5004,148.256 369.6805,129.2278 442.8608,106.0146 516.0409,101.6911 589.2211,125.5677 662.4014,166.154 735.5815,162.3636 808.7618,163.313 881.9419,120.4233 955.1221,196.4993 955.1221,193.1337 881.9419,117.0226 808.7618,161.6575 735.5815,158.3646 662.4014,161.4694 589.2211,120.7886 516.0409,97.8733 442.8608,103.4352 369.6805,127.7204 296.5004,145.5398 223.3201,181.3361 150.14,135.979 76.9598,129.893 3.7795,84.4512 3.7795,80.3453 76.9598,126.2292 150.14,131.5273 223.3201,178.7154 296.5004,142.9248 369.6805,126.0546 442.8608,100.8854 516.0409,94.1332 589.2211,116.0746 662.4014,156.9808 735.5815,154.5752 808.7618,159.7446 881.9419,113.7433 955.1221,189.7914 955.1221,186.48 881.9419,110.5997 808.7618,157.5405 735.5815,151.003 662.4014,152.7165 589.2211,111.4309 516.0409,90.4859 442.8608,98.3658 369.6805,124.2053 296.5004,140.4199 223.3201,175.712 150.14,126.9984 76.9598,122.4291 3.7795,76.319 3.7795,72.3743 76.9598,118.4829 150.14,122.3828 223.3201,172.3006 296.5004,138.0311 369.6805,122.1544 442.8608,95.8768 516.0409,86.9423 589.2211,106.8614 662.4014,148.6965 735.5815,147.6536 808.7618,155.0209 881.9419,107.6022 955.1221,183.2049 955.1221,179.9629 881.9419,104.7518 808.7618,152.1895 735.5815,144.5186 662.4014,144.9395 589.2211,102.3559 516.0409,83.5042 442.8608,93.4336 369.6805,119.888 296.5004,135.7662 223.3201,168.4775 150.14,117.662 76.9598,114.3829 3.7795,68.5087 3.7795,64.6682 76.9598,110.0966 150.14,112.6418 223.3201,164.3846 296.5004,133.6962 369.6805,117.3528 442.8608,91.255 516.0409,80.1096 589.2211,97.7305 662.4014,141.551 735.5815,141.4341 808.7618,149.2882 881.9419,101.9867 955.1221,176.6632 955.1221,173.276 881.9419,99.282 808.7618,146.3988 735.5815,138.346 662.4014,138.5546 589.2211,92.9315 516.0409,76.7386 442.8608,89.4042 369.6805,114.537 296.5004,131.8392 223.3201,160.0729 150.14,107.2691 76.9598,105.6178 3.7795,60.8361 3.7795,57.015 76.9598,100.955 150.14,101.567 223.3201,155.5493 296.5004,130.1847 369.6805,111.4523 442.8608,87.8618 516.0409,73.3926 589.2211,87.9734 662.4014,135.9272 735.5815,135.2537 808.7618,143.5234 881.9419,96.6286 955.1221,169.8015 955.1221,166.2406 881.9419,94.0132 808.7618,140.6654 735.5815,132.1563 662.4014,133.634 589.2211,82.8779 516.0409,70.0737 442.8608,86.5993 369.6805,108.1169 296.5004,128.7172 223.3201,150.8242 150.14,95.5699 76.9598,96.1213 3.7795,53.2086 3.7795,49.4216 76.9598,91.1332 150.14,89.3218 223.3201,145.911 296.5004,127.4167 369.6805,104.5547 516.0409,66.7848 589.2211,77.6728 662.4014,131.6295 735.5815,129.0528 808.7618,137.8291 881.9419,91.4186 955.1221,162.5942 955.1221,158.8634 881.9419,88.8247 808.7618,135.0195 735.5815,125.942 662.4014,129.8596 589.2211,72.3913 516.0409,63.5288 442.8608,84.7575 369.6805,100.7944 296.5004,126.259 223.3201,140.8259 150.14,82.8753 76.9598,86.0107 3.7795,45.6592 3.7795,41.9274 76.9598,80.7761 150.14,76.2892 223.3201,135.5874 296.5004,125.2174 369.6805,96.8687 442.8608,84.0844 516.0409,60.3094 589.2211,67.0704 662.4014,128.2635 735.5815,122.8226 808.7618,132.2418 881.9419,86.2088 955.1221,155.0499 955.1221,151.1556 881.9419,83.5474 808.7618,129.5012 735.5815,119.6933 662.4014,126.7762 589.2211,61.7499 516.0409,57.1299 442.8608,83.5066 369.6805,92.8134 296.5004,124.2626 223.3201,130.2157 150.14,69.6262 76.9598,75.4537 3.7795,38.2322 3.7795,34.5798 76.9598,70.0689 150.14,62.9509 223.3201,124.7322 296.5004,123.3642 369.6805,88.6658 442.8608,82.9691 516.0409,53.9938 589.2211,56.4706 662.4014,125.3309 735.5815,116.5525 808.7618,126.8023 881.9419,80.8165 955.1221,147.1828 955.1221,143.1343 881.9419,77.9929 808.7618,124.1489 735.5815,113.399 662.4014,123.8612 589.2211,51.2732 516.0409,50.904 442.8608,82.4174 369.6805,84.464 296.5004,122.4918 223.3201,119.1592 150.14,56.3271 76.9598,64.6471 3.7795,30.9758 3.7795,27.4253 76.9598,59.2134 150.14,49.8156 223.3201,113.5189 296.5004,121.6154 369.6805,80.2451 442.8608,81.7992 516.0409,47.8631 589.2211,46.1966 662.4014,122.3044 735.5815,110.2313 808.7618,121.5435 881.9419,75.0553 955.1221,139.0133 955.1221,134.8236 881.9419,71.9853 808.7618,118.9867 735.5815,107.0485 662.4014,120.6029 589.2211,41.2763 516.0409,44.8728 442.8608,81.0664 369.6805,76.045 296.5004,120.7069 223.3201,107.8331 150.14,43.4716 76.9598,53.7916 3.7795,23.9324 3.7795,20.5003 76.9598,48.4032 150.14,37.3435 223.3201,102.1227 296.5004,119.7405 369.6805,71.8965 442.8608,80.1769 516.0409,41.9342 589.2211,36.5439 662.4014,118.7071 735.5815,103.8494 808.7618,116.4774 881.9419,68.768 955.1221,130.5692 955.1221,126.2548 881.9419,65.3928 808.7618,114.0122 735.5815,100.6333 662.4014,116.5769 589.2211,32.0251 516.0409,39.0473 442.8608,79.0959 369.6805,67.8287 296.5004,118.694 223.3201,96.4072 150.14,31.4702 76.9598,43.0673 3.7795,17.1306 3.7795,13.8238 76.9598,37.8002 150.14,25.8803 223.3201,90.7045 296.5004,117.5487 369.6805,63.8666 442.8608,77.7968 516.0409,36.2109 589.2211,27.7394 662.4014,114.183 735.5815,97.3997 808.7618,111.5854 881.9419,61.8541 955.1221,121.8857 955.1221,117.4705 881.9419,58.1319 808.7618,109.1358 735.5815,94.1771 662.4014,111.5061 589.2211,23.6626 516.0409,33.4332 442.8608,76.2611 369.6805,60.0117 296.5004,116.3049 223.3201,85.0071 150.14,20.581 76.9598,32.5839 3.7795,10.553 3.7795,7.2083 76.9598,27.2994 150.14,15.5358 223.3201,79.2322 296.5004,115.0139 369.6805,56.2017 442.8608,74.4756 516.0409,30.7553 589.2211,19.6462 662.4014,108.5325 735.5815,91.0859 808.7618,106.431 881.9419,54.1477 955.1221,113.0291 955.1221,108.5685 881.9419,49.9072 808.7618,103.4458 735.5815,88.1331 662.4014,105.2695 589.2211,15.6794 516.0409,28.175 442.8608,72.4421 369.6805,52.4414 296.5004,113.6738 223.3201,73.3853 150.14,10.7358 76.9598,21.9448 3.7795,3.7795"
       id="polyline153"
       style="stroke:#bc9eca;stroke-opacity:1" />
  </g>
</svg>
