<?xml version="1.0" encoding="UTF-8" standalone="no"?>
<!-- Created with Inkscape (http://www.inkscape.org/) -->

<svg
   width="0.52114952in"
   height="0.50291771in"
   viewBox="0 0 13.237198 12.77411"
   version="1.1"
   id="svg8495"
   xml:space="preserve"
   xmlns="http://www.w3.org/2000/svg"
   xmlns:svg="http://www.w3.org/2000/svg"><defs
     id="defs8492" /><path
     id="path2070"
     style="font-variation-settings:'wght' 500;display:inline;fill:none;stroke:#fcfaee;stroke-width:0.529167;stroke-linecap:round;stroke-dasharray:none;stroke-opacity:1"
     d="M 7.4838157,0.26458335 A 5.0507398,3.017903 0 0 0 2.4965232,2.8127483 l 1.2138794,0.324528 A 3.7861105,1.7971479 0 0 1 7.4838157,1.4851807 3.7861105,1.7971479 0 0 1 11.258262,3.1408936 L 12.473175,2.8158489 A 5.0507398,3.017903 0 0 0 7.4838157,0.26458335 Z M 6.8936709,4.5118694 6.3262636,12.36617 7.557713,12.39976 8.0165998,5.4187908 l 2.9739782,0.00258 c 1.304785,0.033395 1.542348,2.7492518 -0.179834,2.7987956 L 8.333893,8.2320558 8.2016014,9.1369101 10.73323,9.0909181 c 2.739622,0.118834 3.110148,-4.321948 0.303857,-4.5790487 z M 3.6122174,4.5635458 0.39070855,12.489677 1.4986513,12.50673 4.5837343,4.5976523 Z" /></svg>
