<?xml version="1.0" encoding="UTF-8" standalone="no"?>
<!-- Created with Inkscape (http://www.inkscape.org/) -->

<svg
   width="1in"
   height="1in"
   viewBox="0 0 25.4 25.4"
   version="1.1"
   id="svg8495"
   xml:space="preserve"
   inkscape:version="1.2.2 (b0a84865, 2022-12-01)"
   sodipodi:docname="sig.svg"
   xmlns:inkscape="http://www.inkscape.org/namespaces/inkscape"
   xmlns:sodipodi="http://sodipodi.sourceforge.net/DTD/sodipodi-0.dtd"
   xmlns="http://www.w3.org/2000/svg"
   xmlns:svg="http://www.w3.org/2000/svg"><sodipodi:namedview
     id="namedview8497"
     pagecolor="#ffffff"
     bordercolor="#999999"
     borderopacity="1"
     inkscape:showpageshadow="0"
     inkscape:pageopacity="0"
     inkscape:pagecheckerboard="0"
     inkscape:deskcolor="#d1d1d1"
     inkscape:document-units="in"
     showgrid="false"
     inkscape:zoom="7.875"
     inkscape:cx="39.809524"
     inkscape:cy="48.063492"
     inkscape:window-width="1728"
     inkscape:window-height="921"
     inkscape:window-x="0"
     inkscape:window-y="38"
     inkscape:window-maximized="1"
     inkscape:current-layer="layer3" /><defs
     id="defs8492" /><g
     inkscape:groupmode="layer"
     id="layer3"
     inkscape:label="1"
     style="fill:none;stroke:#000000;stroke-width:0.3;stroke-dasharray:none;stroke-opacity:1"><g
       id="g3121"
       transform="matrix(1.0121357,0,0,1.0121357,-86.962557,-131.45242)"><path
         style="font-variation-settings:'wght' 500;display:inline;fill:none;stroke:#000000;stroke-width:0.900006;stroke-linecap:round;stroke-dasharray:none;stroke-opacity:1"
         d="m 276.55032,171.61414 1.12127,-15.52081 h 8.18773 c 5.54533,0.50804 4.81305,9.28324 -0.60054,9.04842 l -5.00201,0.0904 0.26128,-1.78716 4.89385,-0.0235 c 3.40309,-0.0979 2.93347,-5.46445 0.35517,-5.53044 l -5.8762,-0.006 -0.90668,13.7946 z"
         id="path2070"
         sodipodi:nodetypes="ccccccccccc"
         transform="matrix(0.4999967,0,0,0.4999967,-40.10424,62.525513)" /><path
         style="font-variation-settings:'wght' 500;display:inline;fill:none;stroke:#000000;stroke-width:0.900006;stroke-linecap:round;stroke-dasharray:none;stroke-opacity:1"
         d="m 273.10739,156.26251 -6.09649,15.62857 -2.18935,-0.0337 6.36595,-15.66226 z"
         id="path2068"
         transform="matrix(0.4999967,0,0,0.4999967,-40.10424,62.525513)" /><path
         id="path2351"
         style="font-variation-settings:'wght' 500;display:inline;fill:none;stroke:#000000;stroke-width:0.45;stroke-linecap:round;stroke-dasharray:none;stroke-opacity:1"
         d="m 99.313835,136.37514 a 4.9901805,2.9817178 0 0 0 -4.927348,2.51767 l 1.19941,0.32091 a 3.7407143,1.7755998 0 0 1 3.727938,-1.63245 3.7407143,1.7755998 0 0 1 3.728975,1.63607 l 1.20044,-0.32143 a 4.9901805,2.9817178 0 0 0 -4.929415,-2.52077 z" /></g></g></svg>
